<?xml version="1.0" encoding="utf-8"?>
<svg version="1.1" xmlns:xlink="http://www.w3.org/1999/xlink" width="13px" height="13px" viewBox="421 340  13 13" xmlns="http://www.w3.org/2000/svg">
  <path d="M 427.5 340  C 431.14 340  434 342.86  434 346.5  C 434 350.14  431.14 353  427.5 353  C 423.86 353  421 350.14  421 346.5  C 421 342.86  423.86 340  427.5 340  Z " fill-rule="nonzero" fill="#ffffff" stroke="none" />
  <path d="M 427.5 340.5  C 430.86 340.5  433.5 343.14  433.5 346.5  C 433.5 349.86  430.86 352.5  427.5 352.5  C 424.14 352.5  421.5 349.86  421.5 346.5  C 421.5 343.14  424.14 340.5  427.5 340.5  Z " stroke-width="1" stroke="#797979" fill="none" />
  <path d="M 427.5 349.75  C 425.68 349.75  424.25 348.32  424.25 346.5  C 424.25 344.68  425.68 343.25  427.5 343.25  C 429.32 343.25  430.75 344.68  430.75 346.5  C 430.75 348.32  429.32 349.75  427.5 349.75  " fill-rule="nonzero" fill="#797979" stroke="none" />
</svg>