<?xml version="1.0" encoding="utf-8"?>
<svg version="1.1" xmlns:xlink="http://www.w3.org/1999/xlink" width="13px" height="13px" viewBox="421 421  13 13" xmlns="http://www.w3.org/2000/svg">
  <path d="M 427.5 421  C 431.14 421  434 423.86  434 427.5  C 434 431.14  431.14 434  427.5 434  C 423.86 434  421 431.14  421 427.5  C 421 423.86  423.86 421  427.5 421  Z " fill-rule="nonzero" fill="#ffffff" stroke="none" />
  <path d="M 427.5 421.5  C 430.86 421.5  433.5 424.14  433.5 427.5  C 433.5 430.86  430.86 433.5  427.5 433.5  C 424.14 433.5  421.5 430.86  421.5 427.5  C 421.5 424.14  424.14 421.5  427.5 421.5  Z " stroke-width="1" stroke="#797979" fill="none" />
  <path d="M 427.5 430.75  C 425.68 430.75  424.25 429.32  424.25 427.5  C 424.25 425.68  425.68 424.25  427.5 424.25  C 429.32 424.25  430.75 425.68  430.75 427.5  C 430.75 429.32  429.32 430.75  427.5 430.75  " fill-rule="nonzero" fill="#797979" stroke="none" />
</svg>