<?xml version="1.0" encoding="utf-8"?>
<svg version="1.1" xmlns:xlink="http://www.w3.org/1999/xlink" width="13px" height="13px" viewBox="421 450  13 13" xmlns="http://www.w3.org/2000/svg">
  <path d="M 427.5 450  C 431.14 450  434 452.86  434 456.5  C 434 460.14  431.14 463  427.5 463  C 423.86 463  421 460.14  421 456.5  C 421 452.86  423.86 450  427.5 450  Z " fill-rule="nonzero" fill="#f0f0f0" stroke="none" />
  <path d="M 427.5 450.5  C 430.86 450.5  433.5 453.14  433.5 456.5  C 433.5 459.86  430.86 462.5  427.5 462.5  C 424.14 462.5  421.5 459.86  421.5 456.5  C 421.5 453.14  424.14 450.5  427.5 450.5  Z " stroke-width="1" stroke="#797979" fill="none" />
  <path d="M 427.5 459.75  C 425.68 459.75  424.25 458.32  424.25 456.5  C 424.25 454.68  425.68 453.25  427.5 453.25  C 429.32 453.25  430.75 454.68  430.75 456.5  C 430.75 458.32  429.32 459.75  427.5 459.75  " fill-rule="nonzero" fill="#797979" stroke="none" />
</svg>