<?xml version="1.0" encoding="utf-8"?>
<svg version="1.1" xmlns:xlink="http://www.w3.org/1999/xlink" width="23px" height="27px" xmlns="http://www.w3.org/2000/svg">
  <g transform="matrix(1 0 0 1 -1041 -299 )">
    <path d="M 8.216619318181818 22.341796875  C 8.314630681818182 22.236328125  8.363636363636363 22.1015625  8.363636363636363 21.9375  L 8.363636363636363 9.562499999999998  C 8.363636363636363 9.3984375  8.314630681818182 9.263671875000002  8.216619318181818 9.158203125000002  C 8.118607954545455 9.052734375000002  7.993371212121214 9.000000000000002  7.84090909090909 9.000000000000002  L 6.795454545454546 9.000000000000002  C 6.642992424242426 9.000000000000002  6.517755681818183 9.052734375000002  6.419744318181818 9.158203125000002  C 6.321732954545454 9.263671875000002  6.2727272727272725 9.3984375  6.2727272727272725 9.562499999999998  L 6.2727272727272725 21.9375  C 6.2727272727272725 22.1015625  6.321732954545454 22.236328125  6.419744318181818 22.341796875  C 6.517755681818183 22.447265625  6.642992424242426 22.5  6.795454545454546 22.5  L 7.84090909090909 22.5  C 7.993371212121214 22.5  8.118607954545455 22.447265625  8.216619318181818 22.341796875  Z M 12.3984375 22.341796875  C 12.496448863636363 22.236328125  12.545454545454545 22.1015625  12.545454545454545 21.9375  L 12.545454545454545 9.562499999999998  C 12.545454545454545 9.3984375  12.496448863636363 9.263671875000002  12.3984375 9.158203125000002  C 12.300426136363637 9.052734375000002  12.175189393939394 9.000000000000002  12.022727272727272 9.000000000000002  L 10.977272727272728 9.000000000000002  C 10.824810606060607 9.000000000000002  10.699573863636363 9.052734375000002  10.6015625 9.158203125000002  C 10.503551136363637 9.263671875000002  10.454545454545455 9.3984375  10.454545454545455 9.562499999999998  L 10.454545454545455 21.9375  C 10.454545454545455 22.1015625  10.503551136363637 22.236328125  10.6015625 22.341796875  C 10.699573863636363 22.447265625  10.824810606060607 22.5  10.977272727272728 22.5  L 12.022727272727272 22.5  C 12.175189393939394 22.5  12.300426136363637 22.447265625  12.3984375 22.341796875  Z M 16.58025568181818 22.341796875  C 16.678267045454543 22.236328125  16.727272727272727 22.1015625  16.727272727272727 21.9375  L 16.727272727272727 9.562499999999998  C 16.727272727272727 9.3984375  16.678267045454543 9.263671875000002  16.58025568181818 9.158203125000002  C 16.48224431818182 9.052734375000002  16.357007575757574 9.000000000000002  16.204545454545457 9.000000000000002  L 15.159090909090908 9.000000000000002  C 15.006628787878787 9.000000000000002  14.881392045454545 9.052734375000002  14.78338068181818 9.158203125000002  C 14.68536931818182 9.263671875000002  14.636363636363637 9.3984375  14.636363636363637 9.562499999999998  L 14.636363636363637 21.9375  C 14.636363636363637 22.1015625  14.68536931818182 22.236328125  14.78338068181818 22.341796875  C 14.881392045454545 22.447265625  15.006628787878787 22.5  15.159090909090908 22.5  L 16.204545454545457 22.5  C 16.357007575757574 22.5  16.48224431818182 22.447265625  16.58025568181818 22.341796875  Z M 8.641335227272728 2.443359374999999  L 7.84090909090909 4.499999999999999  L 15.159090909090908 4.499999999999999  L 14.375 2.443359374999999  C 14.298768939393943 2.337890624999999  14.206202651515152 2.2734374999999987  14.097301136363637 2.250000000000001  L 8.91903409090909 2.250000000000001  C 8.810132575757576 2.2734374999999987  8.717566287878789 2.337890624999999  8.641335227272728 2.443359374999999  Z M 22.852982954545457 4.658203124999999  C 22.95099431818182 4.763671874999999  23 4.898437499999998  23 5.0625  L 23 6.187499999999999  C 23 6.351562499999997  22.95099431818182 6.486328125  22.852982954545457 6.591796875  C 22.75497159090909 6.697265625  22.62973484848485 6.75  22.477272727272727 6.75  L 21 6.75  L 21 23.4140625  C 20.90909090909091 24.386718749999996  20.65317234848485 25.2275390625  20.141335227272727 25.9365234375  C 19.62949810606061 26.6455078125  19.014204545454543 27  18.295454545454543 27  L 4.704545454545455 27  C 3.985795454545455 27  3.3705018939393945 26.6572265625  2.8586647727272725 25.9716796875  C 2.346827651515152 25.2861328125  2.090909090909091 24.45703125  2 23.484375  L 2 6.75  L 0.5227272727272727 6.75  C 0.3702651515151515 6.75  0.24502840909090912 6.697265625  0.14701704545454547 6.591796875  C 0.049005681818181816 6.486328125  0 6.351562499999997  0 6.187499999999999  L 0 5.0625  C 0 4.898437499999998  0.049005681818181816 4.763671874999999  0.14701704545454547 4.658203124999999  C 0.24502840909090912 4.552734374999999  0.3702651515151515 4.499999999999999  0.5227272727272727 4.499999999999999  L 5.5703125 4.499999999999999  L 6.71377840909091 1.5644531250000009  C 6.877130681818183 1.1308593749999978  7.171164772727273 0.7617187499999977  7.595880681818182 0.457031250000001  C 8.020596590909092 0.15234374999999833  8.450757575757576 0  8.886363636363637 0  L 14.113636363636363 0  C 14.549242424242427 0  14.979403409090908 0.15234374999999833  15.40411931818182 0.457031250000001  C 15.828835227272728 0.7617187499999977  16.12286931818182 1.1308593749999978  16.28622159090909 1.5644531250000009  L 17.4296875 4.499999999999999  L 22.477272727272727 4.499999999999999  C 22.62973484848485 4.499999999999999  22.75497159090909 4.552734374999999  22.852982954545457 4.658203124999999  Z " fill-rule="nonzero" fill="#000000" stroke="none" transform="matrix(1 0 0 1 1041 299 )" />
  </g>
</svg>