<?xml version="1.0" encoding="utf-8"?>
<svg version="1.1" xmlns:xlink="http://www.w3.org/1999/xlink" width="115px" height="115px" xmlns="http://www.w3.org/2000/svg">
  <g transform="matrix(1 0 0 1 -183 -220 )">
    <path d="M 89.09505208333334 47.916666666666664  C 89.09505208333334 49.214409722222214  88.62087673611111 50.337456597222214  87.67252604166666 51.285807291666664  L 56.07747395833333 82.880859375  C 55.12912326388889 83.82921006944443  54.00607638888889 84.30338541666667  52.70833333333333 84.30338541666667  C 51.410590277777786 84.30338541666667  50.287543402777786 83.82921006944443  49.33919270833333 82.880859375  L 27.327473958333336 60.869140625  C 26.379123263888893 59.92078993055554  25.904947916666664 58.79774305555554  25.904947916666664 57.5  C 25.904947916666664 56.20225694444444  26.379123263888893 55.07921006944444  27.327473958333336 54.130859375  L 34.96419270833333 46.494140625  C 35.912543402777786 45.54578993055556  37.035590277777786 45.071614583333336  38.33333333333333 45.071614583333336  C 39.63107638888889 45.071614583333336  40.75412326388889 45.54578993055556  41.70247395833333 46.494140625  L 52.70833333333333 57.5  L 73.29752604166666 36.910807291666664  C 74.24587673611111 35.962456597222214  75.36892361111111 35.48828125  76.66666666666666 35.48828125  C 77.96440972222223 35.48828125  79.08745659722223 35.962456597222214  80.03580729166666 36.910807291666664  L 87.67252604166666 44.547526041666664  C 88.62087673611111 45.49587673611111  89.09505208333334 46.61892361111111  89.09505208333334 47.916666666666664  Z M 92.763671875 77.939453125  C 96.40733506944444 71.70030381944443  98.22916666666666 64.88715277777779  98.22916666666666 57.5  C 98.22916666666666 50.112847222222214  96.40733506944444 43.29969618055556  92.763671875 37.060546875  C 89.12000868055557 30.821397569444432  84.17860243055557 25.879991319444432  77.939453125 22.236328125  C 71.70030381944444 18.592664930555554  64.88715277777779 16.77083333333334  57.5 16.77083333333334  C 50.11284722222222 16.77083333333334  43.29969618055556 18.592664930555554  37.060546875 22.236328125  C 30.821397569444446 25.879991319444432  25.879991319444446 30.821397569444432  22.236328125 37.060546875  C 18.592664930555557 43.29969618055556  16.770833333333336 50.112847222222214  16.770833333333336 57.5  C 16.770833333333336 64.88715277777779  18.592664930555557 71.70030381944443  22.236328125 77.939453125  C 25.879991319444446 84.17860243055554  30.821397569444446 89.12000868055556  37.060546875 92.763671875  C 43.29969618055556 96.40733506944444  50.11284722222222 98.22916666666666  57.5 98.22916666666666  C 64.88715277777779 98.22916666666666  71.70030381944444 96.40733506944444  77.939453125 92.763671875  C 84.17860243055557 89.12000868055556  89.12000868055557 84.17860243055554  92.763671875 77.939453125  Z M 107.28841145833334 28.6376953125  C 112.4294704861111 37.447374131944436  115 47.06814236111109  115 57.5  C 115 67.93185763888889  112.4294704861111 77.55262586805554  107.28841145833334 86.3623046875  C 102.14735243055557 95.17198350694444  95.17198350694444 102.14735243055556  86.3623046875 107.28841145833334  C 77.55262586805557 112.42947048611111  67.93185763888889 115  57.5 115  C 47.068142361111114 115  37.44737413194444 112.42947048611111  28.6376953125 107.28841145833334  C 19.828016493055557 102.14735243055556  12.852647569444446 95.17198350694444  7.711588541666667 86.3623046875  C 2.5705295138888884 77.55262586805554  0 67.93185763888889  0 57.5  C 0 47.06814236111109  2.5705295138888884 37.447374131944436  7.711588541666667 28.6376953125  C 12.852647569444446 19.828016493055554  19.828016493055557 12.852647569444432  28.6376953125 7.7115885416666625  C 37.44737413194444 2.570529513888879  47.068142361111114 0  57.5 0  C 67.93185763888889 0  77.55262586805557 2.570529513888879  86.3623046875 7.7115885416666625  C 95.17198350694444 12.852647569444432  102.14735243055557 19.828016493055554  107.28841145833334 28.6376953125  Z " fill-rule="nonzero" fill="#eb2084" stroke="none" transform="matrix(1 0 0 1 183 220 )" />
  </g>
</svg>