<?xml version="1.0" encoding="utf-8"?>
<svg version="1.1" xmlns:xlink="http://www.w3.org/1999/xlink" width="23px" height="25px" xmlns="http://www.w3.org/2000/svg">
  <g transform="matrix(1 0 0 1 -713 -302 )">
    <path d="M 13.51531862745098 2.24609375  C 13.205269607843137 1.9391741071428577  12.834150326797387 1.785714285714285  12.401960784313724 1.785714285714285  C 11.969771241830067 1.785714285714285  11.598651960784316 1.9391741071428577  11.28860294117647 2.24609375  C 10.978553921568627 2.5530133928571423  10.823529411764707 2.920386904761904  10.823529411764707 3.3482142857142847  L 10.823529411764707 12.5  L 10.372549019607844 12.5  L 10.372549019607844 5.133928571428573  C 10.372549019607844 4.706101190476189  10.217524509803921 4.338727678571427  9.907475490196079 4.031808035714285  C 9.597426470588236 3.7248883928571423  9.226307189542485 3.5714285714285725  8.794117647058822 3.5714285714285725  C 8.361928104575163 3.5714285714285725  7.990808823529411 3.7248883928571423  7.6807598039215685 4.031808035714285  C 7.370710784313726 4.338727678571427  7.215686274509804 4.706101190476189  7.215686274509804 5.133928571428573  L 7.215686274509804 12.5  L 7.215686274509804 16.07142857142857  L 5.045343137254902 13.211495535714285  C 4.688316993464053 12.73716517857143  4.209150326797386 12.5  3.607843137254902 12.5  C 3.109885620915033 12.5  2.6847426470588234 12.674386160714285  2.3324142156862746 13.023158482142858  C 1.9800857843137254 13.37193080357143  1.803921568627451 13.792782738095239  1.803921568627451 14.285714285714285  C 1.803921568627451 14.685639880952381  1.9260620915032682 15.043712797619047  2.170343137254902 15.359933035714285  L 7.582107843137255 22.502790178571427  C 7.9391339869281055 22.977120535714285  8.418300653594772 23.214285714285715  9.019607843137255 23.214285714285715  L 18.715686274509803 23.214285714285715  C 19.03513071895425 23.214285714285715  19.321691176470587 23.111979166666668  19.575367647058822 22.907366071428573  C 19.82904411764706 22.702752976190474  19.988766339869283 22.44233630952381  20.05453431372549 22.126116071428573  L 21.12561274509804 16.476004464285715  C 21.172589869281047 16.178385416666664  21.19607843137255 15.904017857142858  21.19607843137255 15.652901785714285  L 21.19607843137255 8.705357142857142  C 21.19607843137255 8.277529761904761  21.041053921568626 7.91015625  20.731004901960784 7.603236607142858  C 20.42095588235294 7.296316964285715  20.04983660130719 7.142857142857142  19.61764705882353 7.142857142857142  C 19.185457516339874 7.142857142857142  18.814338235294116 7.296316964285715  18.504289215686274 7.603236607142858  C 18.194240196078432 7.91015625  18.03921568627451 8.277529761904761  18.03921568627451 8.705357142857142  L 18.03921568627451 12.5  L 17.588235294117645 12.5  L 17.588235294117645 5.133928571428573  C 17.588235294117645 4.706101190476189  17.433210784313726 4.338727678571427  17.123161764705884 4.031808035714285  C 16.81311274509804 3.7248883928571423  16.44199346405229 3.5714285714285725  16.009803921568626 3.5714285714285725  C 15.57761437908497 3.5714285714285725  15.206495098039216 3.7248883928571423  14.896446078431373 4.031808035714285  C 14.586397058823529 4.338727678571427  14.431372549019608 4.706101190476189  14.431372549019608 5.133928571428573  L 14.431372549019608 12.5  L 13.980392156862743 12.5  L 13.980392156862743 3.3482142857142847  C 13.980392156862743 2.920386904761904  13.825367647058822 2.5530133928571423  13.51531862745098 2.24609375  Z M 10.63327205882353 0.4952566964285726  C 11.173508986928105 0.1650855654761918  11.763071895424838 0  12.401960784313724 0  C 13.040849673202617 0  13.630412581699348 0.1650855654761918  14.170649509803921 0.4952566964285726  C 14.7108864379085 0.8254278273809507  15.126633986928107 1.2741815476190466  15.417892156862743 1.8415178571428577  C 15.59640522875817 1.804315476190474  15.793709150326798 1.785714285714285  16.009803921568626 1.785714285714285  C 16.939950980392158 1.785714285714285  17.736213235294116 2.1135602678571423  18.39859068627451 2.7692522321428577  C 19.060968137254903 3.4249441964285725  19.392156862745097 4.213169642857142  19.392156862745097 5.133928571428573  L 19.392156862745097 5.37109375  C 20.378676470588236 5.315290178571427  21.226613562091504 5.612909226190474  21.935968137254903 6.263950892857142  C 22.645322712418302 6.914992559523808  23.000000000000004 7.728794642857142  23 8.705357142857142  L 23 15.652901785714285  C 23.000000000000004 16.024925595238095  22.962418300653596 16.410900297619047  22.887254901960784 16.810825892857142  L 21.816176470588236 22.446986607142858  C 21.68464052287582 23.18173363095238  21.32526552287582 23.79092261904762  20.738051470588236 24.274553571428573  C 20.150837418300654 24.758184523809526  19.47671568627451 25  18.715686274509803 25  L 9.019607843137255 25  C 8.455882352941178 25  7.917994281045751 24.87211681547619  7.405943627450981 24.616350446428573  C 6.89389297385621 24.360584077380953  6.468750000000001 24.014136904761905  6.130514705882353 23.577008928571427  L 0.71875 16.434151785714285  C 0.23958333333333331 15.801711309523808  0 15.085565476190476  0 14.285714285714285  C 0 13.29985119047619  0.352328431372549 12.458147321428573  1.0569852941176472 11.760602678571427  C 1.7616421568627452 11.063058035714285  2.6119281045751634 10.714285714285715  3.607843137254902 10.714285714285715  C 4.340686274509804 10.714285714285715  4.941993464052288 10.872395833333334  5.411764705882353 11.188616071428573  L 5.411764705882353 5.133928571428573  C 5.411764705882353 4.213169642857142  5.742953431372549 3.4249441964285725  6.405330882352941 2.7692522321428577  C 7.067708333333334 2.1135602678571423  7.863970588235294 1.785714285714285  8.794117647058822 1.785714285714285  C 9.010212418300654 1.785714285714285  9.207516339869281 1.804315476190474  9.386029411764707 1.8415178571428577  C 9.677287581699348 1.2741815476190466  10.093035130718956 0.8254278273809507  10.63327205882353 0.4952566964285726  Z " fill-rule="nonzero" fill="#4c4c4c" stroke="none" transform="matrix(1 0 0 1 713 302 )" />
  </g>
</svg>