<?xml version="1.0" encoding="utf-8"?>
<svg version="1.1" xmlns:xlink="http://www.w3.org/1999/xlink" width="25px" height="30px" xmlns="http://www.w3.org/2000/svg">
  <g transform="matrix(1 0 0 1 -749 -242 )">
    <path d="M 22.164393395549176 19.633413461538463  C 22.98994974874372 20.823317307692307  23.93515195022733 21.580528846153847  25 21.905048076923073  C 24.53338119167265 23.40745192307692  23.797559224694904 24.90985576923077  22.792534099066764 26.412259615384617  C 21.249102656137833 28.768028846153847  19.711653505623357 29.945913461538463  18.180186647523332 29.945913461538463  C 17.593921990906917 29.945913461538463  16.756401052883465 29.753605769230766  15.667623833452978 29.368990384615383  C 14.638669538167026 28.984375  13.735343383584588 28.792067307692307  12.957645369705673 28.792067307692307  C 12.22780569514238 28.792067307692307  11.378320172290021 28.990384615384617  10.4091888011486 29.38701923076923  C 9.44005743000718 29.79567307692308  8.650394831299355 30  8.040201005025125 30  C 6.221584111031347 30  4.420914094280929 28.443509615384617  2.638190954773869 25.330528846153847  C 0.8793969849246231 22.193509615384617  0 19.170673076923077  0 16.26201923076923  C 0 13.521634615384615  0.6759990428332137 11.274038461538462  2.0279971284996408 9.519230769230768  C 3.3799952141660685 7.788461538461537  5.078966259870783 6.923076923076922  7.124910265613783 6.923076923076922  C 7.986360373295047 6.923076923076922  9.045226130653267 7.103365384615384  10.301507537688442 7.463942307692307  C 11.545824359894713 7.824519230769232  12.371380713089257 8.004807692307693  12.778176597272076 8.004807692307693  C 13.316582914572864 8.004807692307693  14.172050729839675 7.8004807692307665  15.344580043072506 7.391826923076922  C 16.564967695620965 6.983173076923077  17.599904283321372 6.778846153846153  18.449389806173727 6.778846153846153  C 19.873175400813594 6.778846153846153  21.14740368509213 7.169471153846151  22.272074659009334 7.950721153846153  C 22.89423307011247 8.383413461538463  23.516391481215603 8.984374999999998  24.138549892318736 9.753605769230768  C 23.193347690835132 10.55889423076923  22.511366355587466 11.268028846153847  22.092605886575736 11.881009615384615  C 21.31490787269682 13.010817307692303  20.92605886575736 14.254807692307688  20.92605886575736 15.612980769230768  C 20.92605886575736 17.103365384615387  21.33883704235463 18.443509615384617  22.164393395549176 19.633413461538463  Z M 18.24300071787509 0.5769230769230782  C 18.248983010289546 0.6490384615384626  18.25197415649677 0.7091346153846145  18.251974156496768 0.7572115384615374  C 18.25197415649677 1.4903846153846134  18.07848767647763 2.307692307692306  17.73151471643934 3.209134615384616  C 17.372577171572146 4.110576923076922  16.816223977027995 4.939903846153847  16.062455132806893 5.697115384615384  C 15.416367552045946 6.346153846153847  14.770279971284998 6.778846153846153  14.124192390524048 6.995192307692307  C 13.68150275185451 7.127403846153846  13.059344340751377 7.229567307692307  12.257717157214644 7.301682692307693  C 12.293610911701364 5.510817307692304  12.760229720028715 3.9663461538461533  13.657573582196697 2.6682692307692313  C 14.542952859535774 1.3822115384615352  16.03852596314908 0.49278846153846145  18.144292893036614 0  C 18.15625747786552 0.036057692307693845  18.17121320890165 0.10216346153846034  18.189160086145012 0.19831730769230616  C 18.20710696338837 0.29447115384615197  18.222062694424505 0.3605769230769218  18.23402727925341 0.39663461538461564  C 18.23402727925341 0.4447115384615352  18.23701842546064 0.5048076923076938  18.24300071787509 0.5769230769230782  Z " fill-rule="nonzero" fill="#4c4c4c" stroke="none" transform="matrix(1 0 0 1 749 242 )" />
  </g>
</svg>