<?xml version="1.0" encoding="utf-8"?>
<svg version="1.1" xmlns:xlink="http://www.w3.org/1999/xlink" width="27px" height="25px" xmlns="http://www.w3.org/2000/svg">
  <g transform="matrix(1 0 0 1 -1003 -257 )">
    <path d="M 26.403872282608695 10.020860077021823  C 26.801290760869563 10.42201540436457  27 10.906076166024818  27 11.473042362002566  L 27 13.526957637997434  C 27 14.09392383397518  26.801290760869563 14.57798459563543  26.403872282608695 14.979139922978177  C 26.006453804347828 15.380295250320925  25.4898097826087 15.5808729139923  24.853940217391305 15.5808729139923  L 11.940896739130435 15.5808729139923  L 17.315217391304348 20.298459563543002  C 17.779891304347828 20.683568677792042  18.012228260869566 21.164955070603337  18.012228260869566 21.742618741976894  C 18.012228260869566 22.32028241335045  17.779891304347828 22.801668806161747  17.315217391304348 23.186777920410783  L 15.93953804347826 24.406290115532734  C 15.48709239130435 24.80209670517758  14.936820652173912 25  14.288722826086957 25  C 13.652853260869566 25  13.096467391304348 24.80209670517758  12.619565217391305 24.406290115532734  L 0.6786684782608696 13.94415917843389  C 0.22622282608695668 13.548352588789045  0 13.066966195977747  0 12.5  C 0 11.943731279418056  0.22622282608695668 11.456996148908857  0.6786684782608696 11.0397946084724  L 12.619565217391305 0.6097560975609762  C 13.084239130434783 0.20325203252032353  13.640625000000002 0  14.288722826086957 0  C 14.924592391304348 0  15.474864130434785 0.20325203252032353  15.93953804347826 0.6097560975609762  L 17.315217391304348 1.7971758664955066  C 17.779891304347828 2.203679931536157  18.012228260869566 2.6904150620453535  18.012228260869566 3.2573812580231065  C 18.012228260869566 3.8243474540008537  17.779891304347828 4.3110825845100536  17.315217391304348 4.717586649550706  L 11.940896739130435 9.419127086007704  L 24.853940217391305 9.419127086007704  C 25.4898097826087 9.419127086007704  26.006453804347828 9.619704749679075  26.403872282608695 10.020860077021823  Z " fill-rule="nonzero" fill="#000000" stroke="none" transform="matrix(1 0 0 1 1003 257 )" />
  </g>
</svg>