<?xml version="1.0" encoding="utf-8"?>
<svg version="1.1" xmlns:xlink="http://www.w3.org/1999/xlink" width="36px" height="34px" xmlns="http://www.w3.org/2000/svg">
  <g transform="matrix(1 0 0 1 -569 -35 )">
    <path d="M 9.6 12.14285714285714  C 9.6 13.901041666666666  10.10625 15.520089285714286  11.118749999999999 17  C 9.09375 17.063244047619047  7.437500000000001 17.872767857142854  6.15 19.428571428571427  L 3.6375 19.428571428571427  C 2.6125 19.428571428571427  1.7500000000000002 19.172433035714285  1.05 18.66015625  C 0.3499999999999999 18.147879464285715  0 17.3984375  0 16.411830357142858  C 0 11.946800595238093  0.7749999999999999 9.714285714285714  2.325 9.714285714285714  C 2.4 9.714285714285714  2.671875 9.847098214285714  3.140625 10.112723214285714  C 3.609375 10.378348214285714  4.21875 10.647135416666666  4.96875 10.919084821428573  C 5.71875 11.191034226190476  6.4625 11.327008928571427  7.2 11.327008928571427  C 8.0375 11.327008928571427  8.86875 11.181547619047617  9.693750000000001 10.890625  C 9.631250000000001 11.358630952380947  9.6 11.776041666666666  9.6 12.14285714285714  Z M 31.134375000000002 27.122209821428573  C 31.178125000000005 27.760974702380953  31.200000000000003 28.415550595238095  31.200000000000003 29.0859375  C 31.200000000000003 30.603794642857142  30.743750000000002 31.802269345238095  29.831249999999997 32.68136160714286  C 28.918750000000003 33.56045386904762  27.706250000000004 34  26.19375 34  L 9.80625 34  C 8.293750000000001 34  7.081250000000002 33.56045386904762  6.16875 32.68136160714286  C 5.2562500000000005 31.802269345238095  4.8 30.603794642857142  4.8 29.0859375  C 4.8 28.415550595238095  4.821875 27.760974702380953  4.8656250000000005 27.122209821428573  C 4.909375000000001 26.48344494047619  4.996874999999999 25.794084821428573  5.128125000000001 25.054129464285715  C 5.2593749999999995 24.314174107142854  5.425000000000001 23.62797619047619  5.625 22.995535714285715  C 5.825 22.363095238095234  6.09375 21.746465773809522  6.43125 21.145647321428573  C 6.76875 20.544828869047617  7.156250000000001 20.032552083333332  7.59375 19.608816964285715  C 8.03125 19.185081845238095  8.565625 18.84672619047619  9.196875 18.59375  C 9.828125000000002 18.340773809523807  10.525 18.214285714285715  11.2875 18.214285714285715  C 11.412500000000001 18.214285714285715  11.681249999999999 18.350260416666664  12.09375 18.622209821428573  C 12.506250000000001 18.894159226190474  12.9625 19.197730654761905  13.4625 19.532924107142854  C 13.962500000000002 19.868117559523807  14.631250000000001 20.171688988095234  15.46875 20.443638392857146  C 16.306250000000002 20.715587797619047  17.150000000000002 20.8515625  18 20.8515625  C 18.85 20.8515625  19.69375 20.715587797619047  20.53125 20.443638392857146  C 21.368750000000002 20.171688988095234  22.037500000000005 19.868117559523807  22.5375 19.532924107142854  C 23.0375 19.197730654761905  23.49375 18.894159226190474  23.90625 18.622209821428573  C 24.31875 18.350260416666664  24.587500000000002 18.214285714285715  24.7125 18.214285714285715  C 25.475 18.214285714285715  26.171875000000004 18.340773809523807  26.803124999999998 18.59375  C 27.434375000000003 18.84672619047619  27.96875 19.185081845238095  28.40625 19.608816964285715  C 28.843750000000004 20.032552083333332  29.231250000000003 20.544828869047617  29.56875 21.145647321428573  C 29.90625 21.746465773809522  30.175000000000004 22.363095238095234  30.375 22.995535714285715  C 30.575000000000003 23.62797619047619  30.740624999999998 24.314174107142854  30.871875 25.054129464285715  C 31.003125 25.794084821428573  31.090625000000003 26.48344494047619  31.134375000000002 27.122209821428573  Z M 10.59375 1.4229910714285725  C 11.53125 2.3716517857142865  12 3.516369047619045  12 4.8571428571428585  C 12 6.197916666666665  11.53125 7.342633928571427  10.59375 8.29129464285714  C 9.65625 9.23995535714286  8.525 9.714285714285714  7.2 9.714285714285714  C 5.875000000000001 9.714285714285714  4.74375 9.23995535714286  3.80625 8.29129464285714  C 2.86875 7.342633928571427  2.4 6.197916666666665  2.4 4.8571428571428585  C 2.4 3.516369047619045  2.86875 2.3716517857142865  3.80625 1.4229910714285725  C 4.74375 0.47433035714285876  5.875000000000001 0  7.2 0  C 8.525 0  9.65625 0.47433035714285876  10.59375 1.4229910714285725  Z M 23.090625 6.9916294642857135  C 24.496875 8.414620535714286  25.2 10.131696428571427  25.2 12.14285714285714  C 25.2 14.15401785714286  24.496875 15.87109375  23.090625 17.294084821428573  C 21.684375 18.717075892857146  19.987499999999997 19.428571428571427  18 19.428571428571427  C 16.012500000000003 19.428571428571427  14.315625 18.717075892857146  12.909374999999999 17.294084821428573  C 11.503124999999999 15.87109375  10.799999999999999 14.15401785714286  10.799999999999999 12.14285714285714  C 10.799999999999999 10.131696428571427  11.503124999999999 8.414620535714286  12.909374999999999 6.9916294642857135  C 14.315625 5.5686383928571415  16.012500000000003 4.8571428571428585  18 4.8571428571428585  C 19.987499999999997 4.8571428571428585  21.684375 5.5686383928571415  23.090625 6.9916294642857135  Z M 33.675 9.714285714285714  C 35.22500000000001 9.714285714285714  36.00000000000001 11.946800595238093  36 16.411830357142858  C 36.00000000000001 17.3984375  35.65 18.147879464285715  34.95 18.66015625  C 34.25 19.172433035714285  33.3875 19.428571428571427  32.3625 19.428571428571427  L 29.85 19.428571428571427  C 28.562500000000004 17.872767857142854  26.90625 17.063244047619047  24.88125 17  C 25.893749999999997 15.520089285714286  26.4 13.901041666666666  26.4 12.14285714285714  C 26.4 11.776041666666666  26.368750000000002 11.358630952380947  26.30625 10.890625  C 27.13125 11.181547619047617  27.962500000000002 11.327008928571427  28.8 11.327008928571427  C 29.5375 11.327008928571427  30.28125 11.191034226190476  31.03125 10.919084821428573  C 31.78125 10.647135416666666  32.390625 10.378348214285714  32.859375 10.112723214285714  C 33.328125 9.847098214285714  33.6 9.714285714285714  33.675 9.714285714285714  Z M 32.19375 1.4229910714285725  C 33.13125 2.3716517857142865  33.6 3.516369047619045  33.6 4.8571428571428585  C 33.6 6.197916666666665  33.13125 7.342633928571427  32.19375 8.29129464285714  C 31.25625 9.23995535714286  30.125 9.714285714285714  28.8 9.714285714285714  C 27.475 9.714285714285714  26.34375 9.23995535714286  25.40625 8.29129464285714  C 24.46875 7.342633928571427  24 6.197916666666665  24 4.8571428571428585  C 24 3.516369047619045  24.46875 2.3716517857142865  25.40625 1.4229910714285725  C 26.34375 0.47433035714285876  27.475 0  28.8 0  C 30.125 0  31.25625 0.47433035714285876  32.19375 1.4229910714285725  Z " fill-rule="nonzero" fill="#ffffff" stroke="none" transform="matrix(1 0 0 1 569 35 )" />
  </g>
</svg>