<?xml version="1.0" encoding="utf-8"?>
<svg version="1.1" xmlns:xlink="http://www.w3.org/1999/xlink" width="31px" height="18px" xmlns="http://www.w3.org/2000/svg">
  <g transform="matrix(1 0 0 1 -1086 -481 )">
    <path d="M 23.01646205357143 14.1015625  C 25.328776041666668 12.8359375  27.25186011904762 11.135416666666664  28.78571428571429 9  C 27.032738095238095 6.541666666666667  24.835751488095237 4.703125  22.19475446428571 3.484374999999999  C 22.898251488095237 4.567708333333331  23.25 5.739583333333332  23.25 6.999999999999999  C 23.25 8.927083333333332  22.491722470238095 10.575520833333332  20.97516741071429 11.9453125  C 19.458612351190478 13.315104166666664  17.633556547619047 14  15.5 14  C 13.366443452380954 14  11.541387648809526 13.315104166666664  10.024832589285715 11.9453125  C 8.508277529761907 10.575520833333332  7.75 8.927083333333332  7.75 6.999999999999999  C 7.75 5.739583333333332  8.101748511904763 4.567708333333331  8.805245535714285 3.484374999999999  C 6.164248511904763 4.703125  3.967261904761905 6.541666666666667  2.214285714285714 9  C 3.7481398809523814 11.135416666666664  5.671223958333334 12.8359375  7.983537946428572 14.1015625  C 10.29585193452381 15.3671875  12.801339285714285 16  15.5 16  C 18.19866071428571 16  20.704148065476193 15.3671875  23.01646205357143 14.1015625  Z M 16.088169642857142 3.5312500000000004  C 16.249627976190478 3.385416666666667  16.330357142857142 3.2083333333333326  16.330357142857142 2.999999999999999  C 16.330357142857142 2.791666666666666  16.249627976190478 2.6145833333333317  16.088169642857142 2.46875  C 15.926711309523812 2.3229166666666647  15.730654761904761 2.2499999999999982  15.5 2.25  C 14.058407738095239 2.2499999999999982  12.821521577380954 2.7161458333333326  11.789341517857144 3.6484375  C 10.757161458333334 4.580729166666667  10.241071428571429 5.697916666666667  10.241071428571429 6.999999999999999  C 10.241071428571429 7.208333333333332  10.321800595238097 7.385416666666667  10.483258928571429 7.53125  C 10.644717261904763 7.677083333333332  10.84077380952381 7.75  11.071428571428571 7.75  C 11.302083333333334 7.75  11.498139880952383 7.677083333333332  11.659598214285715 7.53125  C 11.821056547619047 7.385416666666667  11.901785714285715 7.208333333333332  11.901785714285715 6.999999999999999  C 11.901785714285715 6.104166666666666  12.253534226190476 5.338541666666666  12.95703125 4.703125  C 13.660528273809526 4.067708333333333  14.508184523809526 3.7499999999999987  15.5 3.750000000000001  C 15.730654761904761 3.7499999999999987  15.926711309523812 3.677083333333332  16.088169642857142 3.5312500000000004  Z M 30.654017857142858 7.921874999999999  C 30.88467261904762 8.286458333333332  31 8.645833333333332  31 9  C 31 9.354166666666664  30.88467261904762 9.713541666666668  30.654017857142858 10.078124999999998  C 29.03943452380953 12.473958333333332  26.86839657738096 14.393229166666668  24.140904017857142 15.8359375  C 21.413411458333336 17.278645833333332  18.53311011904762 18  15.5 18  C 12.466889880952383 18  9.586588541666668 17.276041666666668  6.859095982142858 15.828125  C 4.1316034226190474 14.380208333333332  1.9605654761904765 12.463541666666664  0.34598214285714285 10.078124999999998  C 0.11532738095238095 9.713541666666668  0 9.354166666666664  0 9  C 0 8.645833333333332  0.11532738095238095 8.286458333333332  0.34598214285714285 7.921874999999999  C 1.9605654761904765 5.536458333333333  4.1316034226190474 3.6197916666666656  6.859095982142858 2.171875  C 9.586588541666668 0.7239583333333319  12.466889880952383 0  15.5 0  C 18.53311011904762 0  21.413411458333336 0.7239583333333319  24.140904017857142 2.171875  C 26.86839657738096 3.6197916666666656  29.03943452380953 5.536458333333333  30.654017857142858 7.921874999999999  Z " fill-rule="nonzero" fill="#e59810" stroke="none" transform="matrix(1 0 0 1 1086 481 )" />
  </g>
</svg>