<?xml version="1.0" encoding="utf-8"?>
<svg version="1.1" xmlns:xlink="http://www.w3.org/1999/xlink" width="25px" height="25px" xmlns="http://www.w3.org/2000/svg">
  <g transform="matrix(1 0 0 1 -1048 -257 )">
    <path d="M 24.371603260869566 11.05584082156611  C 24.790534420289855 11.430252460419341  25 11.911638853230636  25 12.5  C 25 13.077663671373557  24.790534420289855 13.564398801882755  24.371603260869566 13.9602053915276  L 13.31521739130435 24.406290115532734  C 12.873641304347828 24.80209670517758  12.358469202898553 25  11.769701086956522 25  C 11.192255434782608 25  10.682744565217392 24.80209670517758  10.24116847826087 24.406290115532734  L 8.967391304347826 23.202824133504492  C 8.53713768115942 22.796320068463842  8.322010869565217 22.30958493795464  8.322010869565217 21.742618741976894  C 8.322010869565217 21.175652545999146  8.53713768115942 20.688917415489943  8.967391304347826 20.282413350449293  L 13.943614130434783 15.5808729139923  L 1.987092391304348 15.5808729139923  C 1.398324275362319 15.5808729139923  0.9199501811594204 15.380295250320925  0.5519701086956522 14.979139922978177  C 0.18399003623188404 14.57798459563543  0 14.09392383397518  0 13.526957637997434  L 0 11.473042362002566  C 0 10.906076166024818  0.18399003623188404 10.42201540436457  0.5519701086956522 10.020860077021823  C 0.9199501811594204 9.619704749679075  1.398324275362319 9.419127086007704  1.987092391304348 9.419127086007704  L 13.943614130434783 9.419127086007704  L 8.967391304347826 4.701540436456996  C 8.53713768115942 4.316431322207959  8.322010869565217 3.8350449293966635  8.322010869565217 3.2573812580231065  C 8.322010869565217 2.679717586649552  8.53713768115942 2.1983311938382544  8.967391304347826 1.8132220795892162  L 10.24116847826087 0.6097560975609762  C 10.671422101449277 0.20325203252032353  11.180932971014492 0  11.769701086956522 0  C 12.369791666666668 0  12.884963768115941 0.20325203252032353  13.31521739130435 0.6097560975609762  L 24.371603260869566 11.05584082156611  Z " fill-rule="nonzero" fill="#000000" stroke="none" transform="matrix(1 0 0 1 1048 257 )" />
  </g>
</svg>