<?xml version="1.0" encoding="utf-8"?>
<svg version="1.1" xmlns:xlink="http://www.w3.org/1999/xlink" width="300px" height="40px" xmlns="http://www.w3.org/2000/svg">
  <defs>
    <mask fill="white" id="clip47">
      <path d="M 20 40  C 8.799999999999955 40  0 31.200000000000045  0 20  C 0 8.799999999999955  8.799999999999955 0  20 0  L 280 0  C 291.20000000000005 0  300 8.799999999999955  300 20  C 300 31.200000000000045  291.20000000000005 40  280 40  L 154.0185185185169 40  L 20 40  Z " fill-rule="evenodd" />
    </mask>
  </defs>
  <g transform="matrix(1 0 0 1 -527 -548 )">
    <path d="M 20 40  C 8.799999999999955 40  0 31.200000000000045  0 20  C 0 8.799999999999955  8.799999999999955 0  20 0  L 280 0  C 291.20000000000005 0  300 8.799999999999955  300 20  C 300 31.200000000000045  291.20000000000005 40  280 40  L 154.0185185185169 40  L 20 40  Z " fill-rule="nonzero" fill="#e59810" stroke="none" transform="matrix(1 0 0 1 527 548 )" />
    <path d="M 20 40  C 8.799999999999955 40  0 31.200000000000045  0 20  C 0 8.799999999999955  8.799999999999955 0  20 0  L 280 0  C 291.20000000000005 0  300 8.799999999999955  300 20  C 300 31.200000000000045  291.20000000000005 40  280 40  L 154.0185185185169 40  L 20 40  Z " stroke-width="2" stroke="#797979" fill="none" stroke-opacity="0.1568627450980392" transform="matrix(1 0 0 1 527 548 )" mask="url(#clip47)" />
  </g>
</svg>