<?xml version="1.0" encoding="utf-8"?>
<svg version="1.1" xmlns:xlink="http://www.w3.org/1999/xlink" width="40px" height="40px" xmlns="http://www.w3.org/2000/svg">
  <g transform="matrix(1 0 0 1 -729 -122 )">
    <path d="M 6.759075907590759 36.62046204620462  L 9.584158415841584 36.62046204620462  L 11.986798679867988 34.21782178217822  L 5.782178217821782 28.013201320132012  L 3.3795379537953796 30.415841584158414  L 3.3795379537953796 33.240924092409244  L 6.759075907590759 33.240924092409244  L 6.759075907590759 36.62046204620462  Z M 23.207920792079207 12.567656765676567  C 23.33113311331133 12.444444444444445  23.392739273927393 12.294829482948293  23.392739273927393 12.11881188118812  C 23.392739273927393 11.731573157315731  23.1991199119912 11.537953795379536  22.81188118811881 11.537953795379536  C 22.63586358635864 11.537953795379536  22.48624862486249 11.599559955995598  22.363036303630363 11.722772277227724  L 8.052805280528052 26.033003300330037  C 7.92959295929593 26.156215621562154  7.867986798679868 26.305830583058302  7.867986798679868 26.48184818481848  C 7.867986798679868 26.86908690869086  8.061606160616062 27.062706270627068  8.448844884488448 27.062706270627068  C 8.624862486248626 27.062706270627068  8.774477447744776 27.001100110011002  8.897689768976898 26.877887788778878  L 23.207920792079207 12.567656765676567  Z M 0 29.01650165016502  L 21.966996699669966 7.049504950495051  L 32.95049504950495 18.033003300330034  L 10.983498349834983 40  L 0 40  L 0 29.01650165016502  Z M 39.023102310231025 7.1815181518151805  C 39.67436743674368 7.867986798679869  40 8.668866886688669  40 9.584158415841584  C 40 10.517051705170516  39.67436743674368 11.309130913091305  39.023102310231025 11.960396039603962  L 34.64026402640264 16.34323432343234  L 23.65676567656766 5.3597359735973615  L 28.039603960396036 1.0033003300330012  C 28.67326732673267 0.3344334433443308  29.465346534653463 0  30.415841584158414 0  C 31.348734873487352 0  32.149614961496155 0.3344334433443308  32.81848184818482 1.0033003300330012  L 39.023102310231025 7.1815181518151805  Z " fill-rule="nonzero" fill="#000000" stroke="none" transform="matrix(1 0 0 1 729 122 )" />
  </g>
</svg>