<?xml version="1.0" encoding="utf-8"?>
<svg version="1.1" xmlns:xlink="http://www.w3.org/1999/xlink" width="18px" height="17px" xmlns="http://www.w3.org/2000/svg">
  <g transform="matrix(1 0 0 1 -244 -87 )">
    <path d="M 4.8 6.07142857142857  C 4.8 6.950520833333333  5.053125 7.760044642857143  5.559374999999999 8.5  C 4.546875 8.531622023809524  3.7187500000000004 8.936383928571427  3.075 9.714285714285714  L 1.81875 9.714285714285714  C 1.30625 9.714285714285714  0.8750000000000001 9.586216517857142  0.525 9.330078125  C 0.17499999999999996 9.073939732142858  0 8.69921875  0 8.205915178571429  C 0 5.973400297619047  0.38749999999999996 4.857142857142857  1.1625 4.857142857142857  C 1.2 4.857142857142857  1.3359375 4.923549107142857  1.5703125 5.056361607142857  C 1.8046875 5.189174107142857  2.109375 5.323567708333333  2.484375 5.4595424107142865  C 2.859375 5.595517113095238  3.23125 5.6635044642857135  3.6 5.6635044642857135  C 4.01875 5.6635044642857135  4.434375 5.590773809523808  4.846875000000001 5.4453125  C 4.815625000000001 5.679315476190474  4.8 5.888020833333333  4.8 6.07142857142857  Z M 15.567187500000001 13.561104910714286  C 15.589062500000002 13.880487351190476  15.600000000000001 14.207775297619047  15.600000000000001 14.54296875  C 15.600000000000001 15.301897321428571  15.371875000000001 15.901134672619047  14.915624999999999 16.34068080357143  C 14.459375000000001 16.78022693452381  13.853125000000002 17  13.096875 17  L 4.903125 17  C 4.1468750000000005 17  3.540625000000001 16.78022693452381  3.084375 16.34068080357143  C 2.6281250000000003 15.901134672619047  2.4 15.301897321428571  2.4 14.54296875  C 2.4 14.207775297619047  2.4109375 13.880487351190476  2.4328125000000003 13.561104910714286  C 2.4546875000000004 13.241722470238095  2.4984374999999996 12.897042410714286  2.5640625000000004 12.527064732142858  C 2.6296874999999997 12.157087053571427  2.7125000000000004 11.813988095238095  2.8125 11.497767857142858  C 2.9125 11.181547619047617  3.046875 10.873232886904761  3.215625 10.572823660714286  C 3.384375 10.272414434523808  3.5781250000000004 10.016276041666666  3.796875 9.804408482142858  C 4.015625 9.592540922619047  4.2828125 9.423363095238095  4.5984375 9.296875  C 4.914062500000001 9.170386904761903  5.2625 9.107142857142858  5.64375 9.107142857142858  C 5.706250000000001 9.107142857142858  5.840624999999999 9.175130208333332  6.046875 9.311104910714286  C 6.253125000000001 9.447079613095237  6.48125 9.598865327380953  6.73125 9.766462053571427  C 6.981250000000001 9.934058779761903  7.315625000000001 10.085844494047617  7.734375 10.221819196428573  C 8.153125000000001 10.357793898809524  8.575000000000001 10.42578125  9 10.42578125  C 9.425 10.42578125  9.846875 10.357793898809524  10.265625 10.221819196428573  C 10.684375000000001 10.085844494047617  11.018750000000002 9.934058779761903  11.26875 9.766462053571427  C 11.51875 9.598865327380953  11.746875 9.447079613095237  11.953125 9.311104910714286  C 12.159375 9.175130208333332  12.293750000000001 9.107142857142858  12.35625 9.107142857142858  C 12.7375 9.107142857142858  13.085937500000002 9.170386904761903  13.401562499999999 9.296875  C 13.717187500000001 9.423363095238095  13.984375 9.592540922619047  14.203125 9.804408482142858  C 14.421875000000002 10.016276041666666  14.615625000000001 10.272414434523808  14.784375 10.572823660714286  C 14.953125 10.873232886904761  15.087500000000002 11.181547619047617  15.1875 11.497767857142858  C 15.287500000000001 11.813988095238095  15.370312499999999 12.157087053571427  15.4359375 12.527064732142858  C 15.5015625 12.897042410714286  15.545312500000001 13.241722470238095  15.567187500000001 13.561104910714286  Z M 5.296875 0.7114955357142863  C 5.765625 1.1858258928571432  6 1.7581845238095224  6 2.4285714285714293  C 6 3.0989583333333326  5.765625 3.6713169642857135  5.296875 4.14564732142857  C 4.828125 4.61997767857143  4.2625 4.857142857142857  3.6 4.857142857142857  C 2.9375000000000004 4.857142857142857  2.371875 4.61997767857143  1.903125 4.14564732142857  C 1.434375 3.6713169642857135  1.2 3.0989583333333326  1.2 2.4285714285714293  C 1.2 1.7581845238095224  1.434375 1.1858258928571432  1.903125 0.7114955357142863  C 2.371875 0.23716517857142938  2.9375000000000004 0  3.6 0  C 4.2625 0  4.828125 0.23716517857142938  5.296875 0.7114955357142863  Z M 11.5453125 3.4958147321428568  C 12.2484375 4.207310267857143  12.6 5.0658482142857135  12.6 6.07142857142857  C 12.6 7.07700892857143  12.2484375 7.935546875  11.5453125 8.647042410714286  C 10.8421875 9.358537946428573  9.993749999999999 9.714285714285714  9 9.714285714285714  C 8.006250000000001 9.714285714285714  7.1578125 9.358537946428573  6.4546874999999995 8.647042410714286  C 5.7515624999999995 7.935546875  5.3999999999999995 7.07700892857143  5.3999999999999995 6.07142857142857  C 5.3999999999999995 5.0658482142857135  5.7515624999999995 4.207310267857143  6.4546874999999995 3.4958147321428568  C 7.1578125 2.7843191964285707  8.006250000000001 2.4285714285714293  9 2.4285714285714293  C 9.993749999999999 2.4285714285714293  10.8421875 2.7843191964285707  11.5453125 3.4958147321428568  Z M 16.8375 4.857142857142857  C 17.612500000000004 4.857142857142857  18.000000000000004 5.973400297619047  18 8.205915178571429  C 18.000000000000004 8.69921875  17.825 9.073939732142858  17.475 9.330078125  C 17.125 9.586216517857142  16.69375 9.714285714285714  16.18125 9.714285714285714  L 14.925 9.714285714285714  C 14.281250000000002 8.936383928571427  13.453125 8.531622023809524  12.440625 8.5  C 12.946874999999999 7.760044642857143  13.2 6.950520833333333  13.2 6.07142857142857  C 13.2 5.888020833333333  13.184375000000001 5.679315476190474  13.153125 5.4453125  C 13.565625 5.590773809523808  13.981250000000001 5.6635044642857135  14.4 5.6635044642857135  C 14.76875 5.6635044642857135  15.140625 5.595517113095238  15.515625 5.4595424107142865  C 15.890625 5.323567708333333  16.1953125 5.189174107142857  16.4296875 5.056361607142857  C 16.6640625 4.923549107142857  16.8 4.857142857142857  16.8375 4.857142857142857  Z M 16.096875 0.7114955357142863  C 16.565625 1.1858258928571432  16.8 1.7581845238095224  16.8 2.4285714285714293  C 16.8 3.0989583333333326  16.565625 3.6713169642857135  16.096875 4.14564732142857  C 15.628125 4.61997767857143  15.0625 4.857142857142857  14.4 4.857142857142857  C 13.7375 4.857142857142857  13.171875 4.61997767857143  12.703125 4.14564732142857  C 12.234375 3.6713169642857135  12 3.0989583333333326  12 2.4285714285714293  C 12 1.7581845238095224  12.234375 1.1858258928571432  12.703125 0.7114955357142863  C 13.171875 0.23716517857142938  13.7375 0  14.4 0  C 15.0625 0  15.628125 0.23716517857142938  16.096875 0.7114955357142863  Z " fill-rule="nonzero" fill="#000000" stroke="none" transform="matrix(1 0 0 1 244 87 )" />
  </g>
</svg>