<?xml version="1.0" encoding="utf-8"?>
<svg version="1.1" xmlns:xlink="http://www.w3.org/1999/xlink" width="300px" height="40px" xmlns="http://www.w3.org/2000/svg">
  <g transform="matrix(1 0 0 1 -317 -451 )">
    <path d="M 318 471  A 19 19 0 0 1 337 452 L 597 452  A 19 19 0 0 1 616 471 A 19 19 0 0 1 597 490 L 337 490  A 19 19 0 0 1 318 471 Z " fill-rule="nonzero" fill="#e59810" stroke="none" fill-opacity="0.8862745098039215" />
    <path d="M 317.5 471  A 19.5 19.5 0 0 1 337 451.5 L 597 451.5  A 19.5 19.5 0 0 1 616.5 471 A 19.5 19.5 0 0 1 597 490.5 L 337 490.5  A 19.5 19.5 0 0 1 317.5 471 Z " stroke-width="1" stroke="#797979" fill="none" stroke-opacity="0.1568627450980392" />
  </g>
</svg>