<?xml version="1.0" encoding="utf-8"?>
<svg version="1.1" xmlns:xlink="http://www.w3.org/1999/xlink" width="13px" height="15px" xmlns="http://www.w3.org/2000/svg">
  <g transform="matrix(1 0 0 1 -523 -398 )">
    <path d="M 10.833333333333334 4.285714285714286  C 10.833333333333334 5.106026785714286  10.610460069444445 5.864955357142856  10.164713541666666 6.5625  C 10.42990451388889 6.640624999999999  10.68240017361111 6.746651785714286  10.922200520833334 6.880580357142857  C 11.162000868055557 7.014508928571429  11.4130859375 7.2181919642857135  11.675455729166666 7.491629464285714  C 11.937825520833334 7.7650669642857135  12.162109375 8.087332589285714  12.348307291666666 8.458426339285715  C 12.534505208333334 8.829520089285714  12.68967013888889 9.309430803571427  12.813802083333334 9.898158482142858  C 12.937934027777777 10.486886160714286  13 11.146763392857142  13 11.877790178571429  C 13 12.73716517857143  12.717881944444443 13.472377232142856  12.153645833333334 14.083426339285715  C 11.589409722222223 14.694475446428571  10.909505208333334 15  10.113932291666666 15  L 2.8860677083333335 15  C 2.0904947916666665 15  1.410590277777778 14.694475446428571  0.8463541666666667 14.083426339285715  C 0.2821180555555555 13.472377232142856  0 12.73716517857143  0 11.877790178571429  C 0 11.146763392857142  0.06206597222222222 10.486886160714286  0.18619791666666666 9.898158482142858  C 0.31032986111111116 9.309430803571427  0.46549479166666663 8.829520089285714  0.6516927083333334 8.458426339285715  C 0.837890625 8.087332589285714  1.0621744791666667 7.7650669642857135  1.3245442708333333 7.491629464285714  C 1.5869140625 7.2181919642857135  1.8379991319444446 7.014508928571429  2.0777994791666665 6.880580357142857  C 2.3175998263888893 6.746651785714286  2.570095486111111 6.640624999999999  2.8352864583333335 6.5625  C 2.389539930555556 5.864955357142856  2.1666666666666665 5.106026785714286  2.1666666666666665 4.285714285714286  C 2.1666666666666665 3.7053571428571415  2.2809244791666665 3.151506696428571  2.5094401041666665 2.624162946428571  C 2.7379557291666665 2.096819196428571  3.046875 1.640625  3.436197916666667 1.2555803571428563  C 3.825520833333333 0.8705357142857145  4.286783854166667 0.5650111607142855  4.819986979166667 0.33900669642857095  C 5.353190104166667 0.11300223214285643  5.913194444444445 0  6.5 0  C 7.086805555555556 0  7.646809895833334 0.11300223214285643  8.180013020833334 0.33900669642857095  C 8.713216145833334 0.5650111607142855  9.174479166666666 0.8705357142857145  9.563802083333334 1.2555803571428563  C 9.953125 1.640625  10.262044270833334 2.096819196428571  10.490559895833334 2.624162946428571  C 10.719075520833334 3.151506696428571  10.833333333333334 3.7053571428571415  10.833333333333334 4.285714285714286  Z M 8.7978515625 2.0131138392857144  C 8.163085937500002 1.3853236607142856  7.397135416666668 1.071428571428571  6.5 1.071428571428571  C 5.602864583333333 1.071428571428571  4.8369140625 1.3853236607142856  4.2021484375 2.0131138392857144  C 3.5673828125 2.6409040178571437  3.25 3.3984375  3.25 4.285714285714286  C 3.25 5.172991071428571  3.5673828125 5.930524553571429  4.2021484375 6.558314732142857  C 4.8369140625 7.186104910714286  5.602864583333333 7.5  6.5 7.5  C 7.397135416666668 7.5  8.163085937500002 7.186104910714286  8.7978515625 6.558314732142857  C 9.4326171875 5.930524553571429  9.75 5.172991071428571  9.75 4.285714285714286  C 9.75 3.3984375  9.4326171875 2.6409040178571437  8.7978515625 2.0131138392857144  Z M 2.8860677083333335 13.928571428571429  L 10.113932291666666 13.928571428571429  C 10.610460069444445 13.928571428571429  11.035047743055557 13.729073660714286  11.3876953125 13.330078125  C 11.740342881944445 12.931082589285714  11.916666666666666 12.446986607142858  11.916666666666666 11.877790178571429  C 11.916666666666666 10.544084821428571  11.695203993055557 9.4921875  11.252278645833334 8.722098214285715  C 10.80935329861111 7.952008928571429  10.173177083333334 7.547433035714285  9.34375 7.508370535714286  C 8.52560763888889 8.217075892857142  7.577690972222222 8.571428571428571  6.5 8.571428571428571  C 5.422309027777779 8.571428571428571  4.474392361111112 8.217075892857142  3.65625 7.508370535714286  C 2.8268229166666665 7.547433035714285  2.1906467013888893 7.952008928571429  1.7477213541666665 8.722098214285715  C 1.3047960069444446 9.4921875  1.0833333333333333 10.544084821428571  1.0833333333333333 11.877790178571429  C 1.0833333333333333 12.446986607142858  1.2596571180555556 12.931082589285714  1.6123046875 13.330078125  C 1.9649522569444446 13.729073660714286  2.389539930555556 13.928571428571429  2.8860677083333335 13.928571428571429  Z " fill-rule="nonzero" fill="#797979" stroke="none" transform="matrix(1 0 0 1 523 398 )" />
  </g>
</svg>