<?xml version="1.0" encoding="utf-8"?>
<svg version="1.1" xmlns:xlink="http://www.w3.org/1999/xlink" width="37px" height="37px" xmlns="http://www.w3.org/2000/svg">
  <g transform="matrix(1 0 0 1 -1060 -485 )">
    <path d="M 30.03622159090909 17.0546875  C 30.193892045454547 17.212357954545453  30.272727272727273 17.413825757575754  30.272727272727273 17.65909090909091  L 30.272727272727273 19.34090909090909  C 30.272727272727273 19.586174242424242  30.193892045454547 19.787642045454547  30.03622159090909 19.9453125  C 29.878551136363637 20.102982954545453  29.67708333333334 20.18181818181818  29.43181818181818 20.18181818181818  L 20.18181818181818 20.18181818181818  L 20.18181818181818 29.43181818181818  C 20.18181818181818 29.677083333333332  20.102982954545453 29.878551136363637  19.9453125 30.03622159090909  C 19.787642045454547 30.193892045454547  19.586174242424246 30.27272727272727  19.34090909090909 30.27272727272727  L 17.65909090909091 30.27272727272727  C 17.413825757575758 30.27272727272727  17.212357954545453 30.193892045454547  17.0546875 30.03622159090909  C 16.897017045454547 29.878551136363637  16.818181818181817 29.677083333333332  16.818181818181817 29.43181818181818  L 16.818181818181817 20.18181818181818  L 7.568181818181818 20.18181818181818  C 7.322916666666667 20.18181818181818  7.121448863636363 20.102982954545453  6.963778409090909 19.9453125  C 6.806107954545455 19.787642045454547  6.7272727272727275 19.586174242424242  6.7272727272727275 19.34090909090909  L 6.7272727272727275 17.65909090909091  C 6.7272727272727275 17.413825757575754  6.806107954545455 17.212357954545453  6.963778409090909 17.0546875  C 7.121448863636363 16.897017045454547  7.322916666666667 16.81818181818182  7.568181818181818 16.81818181818182  L 16.818181818181817 16.81818181818182  L 16.818181818181817 7.56818181818182  C 16.818181818181817 7.322916666666661  16.897017045454547 7.121448863636365  17.0546875 6.96377840909091  C 17.212357954545453 6.806107954545455  17.413825757575758 6.727272727272726  17.65909090909091 6.727272727272726  L 19.34090909090909 6.727272727272726  C 19.586174242424246 6.727272727272726  19.787642045454547 6.806107954545455  19.9453125 6.96377840909091  C 20.102982954545453 7.121448863636365  20.18181818181818 7.322916666666661  20.18181818181818 7.56818181818182  L 20.18181818181818 16.81818181818182  L 29.43181818181818 16.81818181818182  C 29.67708333333334 16.81818181818182  29.878551136363637 16.897017045454547  30.03622159090909 17.0546875  Z M 32.40127840909091 32.40127840909091  C 33.22466856060606 31.57788825757575  33.63636363636363 30.58806818181818  33 29.43181818181818  L 33 7.56818181818182  C 33.63636363636363 6.41193181818182  33.22466856060606 5.42211174242424  32.40127840909091 4.59872159090909  C 31.577888257575758 3.775331439393936  30.58806818181818 3.3636363636363646  29.43181818181818 4  L 7.568181818181818 4  C 6.411931818181818 3.3636363636363646  5.422111742424243 3.775331439393936  4.598721590909091 4.59872159090909  C 3.77533143939394 5.42211174242424  3.3636363636363638 6.41193181818182  4 7.56818181818182  L 4 29.43181818181818  C 3.3636363636363638 30.58806818181818  3.77533143939394 31.57788825757575  4.598721590909091 32.40127840909091  C 5.422111742424243 33.22466856060606  6.411931818181818 33.63636363636363  7.568181818181818 33  L 29.43181818181818 33  C 30.58806818181818 33.63636363636363  31.577888257575758 33.22466856060606  32.40127840909091 32.40127840909091  Z M 34.77947443181818 2.2205255681818197  C 36.25982481060606 3.7008759469696955  37 5.483428030303026  37 7.56818181818182  L 37 29.43181818181818  C 37 31.51657196969697  36.25982481060606 33.299124053030305  34.77947443181818 34.77947443181818  C 33.299124053030305 36.25982481060606  31.516571969696972 37  29.43181818181818 37  L 7.568181818181818 37  C 5.483428030303031 37  3.7008759469696972 36.25982481060606  2.2205255681818183 34.77947443181818  C 0.7401751893939393 33.299124053030305  0 31.51657196969697  0 29.43181818181818  L 0 7.56818181818182  C 0 5.483428030303026  0.7401751893939393 3.7008759469696955  2.2205255681818183 2.2205255681818197  C 3.7008759469696972 0.7401751893939358  5.483428030303031 0  7.568181818181818 0  L 29.43181818181818 0  C 31.516571969696972 0  33.299124053030305 0.7401751893939358  34.77947443181818 2.2205255681818197  Z " fill-rule="nonzero" fill="#e59810" stroke="none" transform="matrix(1 0 0 1 1060 485 )" />
  </g>
</svg>