<?xml version="1.0" encoding="utf-8"?>
<svg version="1.1" xmlns:xlink="http://www.w3.org/1999/xlink" width="17px" height="17px" xmlns="http://www.w3.org/2000/svg">
  <g transform="matrix(1 0 0 1 -244 -11 )">
    <path d="M 9.817057291666668 4.349609375  C 9.883463541666668 4.416015625  9.916666666666668 4.500868055555554  9.916666666666668 4.604166666666667  L 9.916666666666668 9.5625  C 9.916666666666668 9.66579861111111  9.883463541666668 9.750651041666666  9.817057291666668 9.817057291666666  C 9.750651041666668 9.883463541666666  9.665798611111112 9.916666666666666  9.5625 9.916666666666666  L 6.020833333333334 9.916666666666666  C 5.917534722222223 9.916666666666666  5.832682291666666 9.883463541666666  5.766276041666666 9.817057291666666  C 5.699869791666666 9.750651041666666  5.666666666666666 9.66579861111111  5.666666666666666 9.5625  L 5.666666666666666 8.854166666666666  C 5.666666666666666 8.750868055555555  5.699869791666666 8.666015625  5.766276041666666 8.599609375  C 5.832682291666666 8.533203125  5.917534722222223 8.5  6.020833333333334 8.5  L 8.5 8.5  L 8.5 4.604166666666667  C 8.5 4.500868055555554  8.533203125 4.416015625  8.599609375 4.349609375  C 8.666015625000002 4.283203125  8.750868055555557 4.25  8.854166666666668 4.25  L 9.5625 4.25  C 9.665798611111112 4.25  9.750651041666668 4.283203125  9.817057291666668 4.349609375  Z M 13.712890625 11.521484375  C 14.251519097222223 10.599175347222221  14.520833333333332 9.59201388888889  14.520833333333332 8.5  C 14.520833333333332 7.407986111111111  14.251519097222223 6.400824652777778  13.712890625 5.478515625  C 13.174262152777779 4.5562065972222205  12.443793402777779 3.8257378472222205  11.521484375 3.287109375  C 10.599175347222223 2.7484809027777777  9.59201388888889 2.4791666666666674  8.5 2.4791666666666674  C 7.407986111111112 2.4791666666666674  6.400824652777779 2.7484809027777777  5.478515625 3.287109375  C 4.556206597222222 3.8257378472222205  3.8257378472222223 4.5562065972222205  3.287109375 5.478515625  C 2.748480902777778 6.400824652777778  2.479166666666667 7.407986111111111  2.479166666666667 8.5  C 2.479166666666667 9.59201388888889  2.748480902777778 10.599175347222221  3.287109375 11.521484375  C 3.8257378472222223 12.443793402777775  4.556206597222222 13.174262152777777  5.478515625 13.712890625  C 6.400824652777779 14.251519097222223  7.407986111111112 14.520833333333332  8.5 14.520833333333332  C 9.59201388888889 14.520833333333332  10.599175347222223 14.251519097222223  11.521484375 13.712890625  C 12.443793402777779 13.174262152777777  13.174262152777779 12.443793402777775  13.712890625 11.521484375  Z M 15.860026041666668 4.2333984375  C 16.620008680555554 5.5356987847222205  17 6.957899305555554  17 8.5  C 17 10.042100694444445  16.620008680555554 11.464301215277775  15.860026041666668 12.7666015625  C 15.100043402777779 14.068901909722223  14.068901909722223 15.100043402777777  12.7666015625 15.860026041666668  C 11.464301215277779 16.620008680555557  10.042100694444445 17  8.5 17  C 6.957899305555556 17  5.535698784722222 16.620008680555557  4.2333984375 15.860026041666668  C 2.931098090277778 15.100043402777777  1.8999565972222223 14.068901909722223  1.1399739583333335 12.7666015625  C 0.3799913194444444 11.464301215277775  0 10.042100694444445  0 8.5  C 0 6.957899305555554  0.3799913194444444 5.5356987847222205  1.1399739583333335 4.2333984375  C 1.8999565972222223 2.9310980902777777  2.931098090277778 1.8999565972222205  4.2333984375 1.1399739583333326  C 5.535698784722222 0.379991319444443  6.957899305555556 0  8.5 0  C 10.042100694444445 0  11.464301215277779 0.379991319444443  12.7666015625 1.1399739583333326  C 14.068901909722223 1.8999565972222205  15.100043402777779 2.9310980902777777  15.860026041666668 4.2333984375  Z " fill-rule="nonzero" fill="#000000" stroke="none" transform="matrix(1 0 0 1 244 11 )" />
  </g>
</svg>