<?xml version="1.0" encoding="utf-8"?>
<svg version="1.1" xmlns:xlink="http://www.w3.org/1999/xlink" width="26px" height="19px" xmlns="http://www.w3.org/2000/svg">
  <g transform="matrix(1 0 0 1 -1109 -415 )">
    <path d="M 19.304129464285715 14.884982638888888  C 21.243489583333336 13.549045138888888  22.85639880952381 11.754050925925922  24.142857142857142 9.5  C 22.672619047619047 6.905092592592593  20.82998511904762 4.964409722222222  18.614955357142858 3.677951388888888  C 19.20498511904762 4.821469907407405  19.5 6.0584490740740735  19.5 7.3888888888888875  C 19.5 9.423032407407405  18.864025297619047 11.163049768518517  17.592075892857142 12.608940972222221  C 16.32012648809524 14.054832175925922  14.789434523809524 14.777777777777779  13 14.777777777777779  C 11.210565476190478 14.777777777777779  9.679873511904763 14.054832175925922  8.407924107142858 12.608940972222221  C 7.135974702380953 11.163049768518517  6.5 9.423032407407405  6.5 7.3888888888888875  C 6.5 6.0584490740740735  6.795014880952381 4.821469907407405  7.385044642857142 3.677951388888888  C 5.170014880952381 4.964409722222222  3.327380952380953 6.905092592592593  1.857142857142857 9.5  C 3.1436011904761907 11.754050925925922  4.756510416666667 13.549045138888888  6.695870535714286 14.884982638888888  C 8.635230654761905 16.22092013888889  10.736607142857142 16.88888888888889  13 16.88888888888889  C 15.263392857142856 16.88888888888889  17.3647693452381 16.22092013888889  19.304129464285715 14.884982638888888  Z M 13.493303571428571 3.7274305555555562  C 13.628720238095239 3.5734953703703707  13.696428571428571 3.3865740740740735  13.696428571428571 3.166666666666666  C 13.696428571428571 2.9467592592592586  13.628720238095239 2.759837962962961  13.493303571428571 2.605902777777778  C 13.357886904761907 2.451967592592591  13.19345238095238 2.374999999999998  13 2.375  C 11.79092261904762 2.374999999999998  10.753534226190478 2.8670428240740735  9.887834821428571 3.851128472222222  C 9.022135416666668 4.83521412037037  8.589285714285714 6.014467592592593  8.589285714285714 7.3888888888888875  C 8.589285714285714 7.608796296296295  8.65699404761905 7.795717592592593  8.792410714285714 7.949652777777778  C 8.927827380952381 8.103587962962962  9.092261904761905 8.180555555555555  9.285714285714286 8.180555555555555  C 9.479166666666668 8.180555555555555  9.643601190476192 8.103587962962962  9.779017857142858 7.949652777777778  C 9.914434523809524 7.795717592592593  9.982142857142858 7.608796296296295  9.982142857142858 7.3888888888888875  C 9.982142857142858 6.443287037037036  10.277157738095237 5.635127314814815  10.8671875 4.964409722222222  C 11.457217261904763 4.29369212962963  12.168154761904763 3.958333333333332  13 3.958333333333334  C 13.19345238095238 3.958333333333332  13.357886904761907 3.881365740740739  13.493303571428571 3.7274305555555562  Z M 25.709821428571427 8.361979166666666  C 25.90327380952381 8.74681712962963  26 9.126157407407405  26 9.5  C 26 9.87384259259259  25.90327380952381 10.25318287037037  25.709821428571427 10.638020833333332  C 24.355654761904766 13.166956018518517  22.53478422619048 15.192853009259261  20.247209821428573 16.715711805555557  C 17.959635416666668 18.23857060185185  15.543898809523812 19  13 19  C 10.456101190476192 19  8.040364583333334 18.23582175925926  5.752790178571429 16.70746527777778  C 3.4652157738095237 15.179108796296296  1.6443452380952384 13.155960648148147  0.29017857142857145 10.638020833333332  C 0.09672619047619047 10.25318287037037  0 9.87384259259259  0 9.5  C 0 9.126157407407405  0.09672619047619047 8.74681712962963  0.29017857142857145 8.361979166666666  C 1.6443452380952384 5.844039351851851  3.4652157738095237 3.8208912037037024  5.752790178571429 2.292534722222222  C 8.040364583333334 0.7641782407407393  10.456101190476192 0  13 0  C 15.543898809523812 0  17.959635416666668 0.7641782407407393  20.247209821428573 2.292534722222222  C 22.53478422619048 3.8208912037037024  24.355654761904766 5.844039351851851  25.709821428571427 8.361979166666666  Z " fill-rule="nonzero" fill="#e59810" stroke="none" transform="matrix(1 0 0 1 1109 415 )" />
  </g>
</svg>