<?xml version="1.0" encoding="utf-8"?>
<svg version="1.1" xmlns:xlink="http://www.w3.org/1999/xlink" width="27px" height="26px" xmlns="http://www.w3.org/2000/svg">
  <g transform="matrix(1 0 0 1 -1079 -498 )">
    <path d="M 4.562376237623763 23.803300330033004  L 6.469306930693069 23.803300330033004  L 8.091089108910891 22.24158415841584  L 3.902970297029703 18.20858085808581  L 2.2811881188118814 19.77029702970297  L 2.2811881188118814 21.606600660066007  L 4.562376237623763 21.606600660066007  L 4.562376237623763 23.803300330033004  Z M 15.665346534653464 8.168976897689769  C 15.74851485148515 8.088888888888889  15.790099009900992 7.991639163916391  15.790099009900992 7.877227722772279  C 15.790099009900992 7.625522552255225  15.659405940594059 7.499669966996699  15.398019801980197 7.499669966996699  C 15.27920792079208 7.499669966996699  15.17821782178218 7.539713971397139  15.095049504950495 7.619801980198021  L 5.435643564356435 16.921452145214523  C 5.352475247524753 17.001540154015398  5.310891089108911 17.098789878987894  5.310891089108911 17.213201320132015  C 5.310891089108911 17.46490649064906  5.441584158415842 17.59075907590759  5.702970297029703 17.59075907590759  C 5.8217821782178225 17.59075907590759  5.922772277227724 17.55071507150715  6.005940594059406 17.47062706270627  L 15.665346534653464 8.168976897689769  Z M 0 18.860726072607264  L 14.827722772277228 4.582178217821784  L 22.24158415841584 11.72145214521452  L 7.413861386138614 26  L 0 26  L 0 18.860726072607264  Z M 26.34059405940594 4.667986798679867  C 26.780198019801983 5.114191419141915  27 5.634763476347635  27 6.22970297029703  C 27 6.836083608360836  26.780198019801983 7.3509350935093485  26.34059405940594 7.774257425742576  L 23.38217821782178 10.623102310231022  L 15.968316831683168 3.483828382838285  L 18.926732673267324 0.6521452145214508  C 19.354455445544552 0.217381738173815  19.88910891089109 0  20.53069306930693 0  C 21.160396039603963 0  21.700990099009903 0.217381738173815  22.15247524752475 0.6521452145214508  L 26.34059405940594 4.667986798679867  Z " fill-rule="nonzero" fill="#e59810" stroke="none" transform="matrix(1 0 0 1 1079 498 )" />
  </g>
</svg>