<?xml version="1.0" encoding="utf-8"?>
<svg version="1.1" xmlns:xlink="http://www.w3.org/1999/xlink" width="23px" height="26px" xmlns="http://www.w3.org/2000/svg">
  <g transform="matrix(1 0 0 1 -1058 -358 )">
    <path d="M 8.216619318181818 21.514322916666668  C 8.314630681818182 21.412760416666668  8.363636363636363 21.28298611111111  8.363636363636363 21.125  L 8.363636363636363 9.208333333333332  C 8.363636363636363 9.050347222222223  8.314630681818182 8.920572916666668  8.216619318181818 8.819010416666668  C 8.118607954545455 8.717447916666668  7.993371212121214 8.666666666666668  7.84090909090909 8.666666666666668  L 6.795454545454546 8.666666666666668  C 6.642992424242426 8.666666666666668  6.517755681818183 8.717447916666668  6.419744318181818 8.819010416666668  C 6.321732954545454 8.920572916666668  6.2727272727272725 9.050347222222223  6.2727272727272725 9.208333333333332  L 6.2727272727272725 21.125  C 6.2727272727272725 21.28298611111111  6.321732954545454 21.412760416666668  6.419744318181818 21.514322916666668  C 6.517755681818183 21.615885416666668  6.642992424242426 21.666666666666668  6.795454545454546 21.666666666666668  L 7.84090909090909 21.666666666666668  C 7.993371212121214 21.666666666666668  8.118607954545455 21.615885416666668  8.216619318181818 21.514322916666668  Z M 12.3984375 21.514322916666668  C 12.496448863636363 21.412760416666668  12.545454545454545 21.28298611111111  12.545454545454545 21.125  L 12.545454545454545 9.208333333333332  C 12.545454545454545 9.050347222222223  12.496448863636363 8.920572916666668  12.3984375 8.819010416666668  C 12.300426136363637 8.717447916666668  12.175189393939394 8.666666666666668  12.022727272727272 8.666666666666668  L 10.977272727272728 8.666666666666668  C 10.824810606060607 8.666666666666668  10.699573863636363 8.717447916666668  10.6015625 8.819010416666668  C 10.503551136363637 8.920572916666668  10.454545454545455 9.050347222222223  10.454545454545455 9.208333333333332  L 10.454545454545455 21.125  C 10.454545454545455 21.28298611111111  10.503551136363637 21.412760416666668  10.6015625 21.514322916666668  C 10.699573863636363 21.615885416666668  10.824810606060607 21.666666666666668  10.977272727272728 21.666666666666668  L 12.022727272727272 21.666666666666668  C 12.175189393939394 21.666666666666668  12.300426136363637 21.615885416666668  12.3984375 21.514322916666668  Z M 16.58025568181818 21.514322916666668  C 16.678267045454543 21.412760416666668  16.727272727272727 21.28298611111111  16.727272727272727 21.125  L 16.727272727272727 9.208333333333332  C 16.727272727272727 9.050347222222223  16.678267045454543 8.920572916666668  16.58025568181818 8.819010416666668  C 16.48224431818182 8.717447916666668  16.357007575757574 8.666666666666668  16.204545454545457 8.666666666666668  L 15.159090909090908 8.666666666666668  C 15.006628787878787 8.666666666666668  14.881392045454545 8.717447916666668  14.78338068181818 8.819010416666668  C 14.68536931818182 8.920572916666668  14.636363636363637 9.050347222222223  14.636363636363637 9.208333333333332  L 14.636363636363637 21.125  C 14.636363636363637 21.28298611111111  14.68536931818182 21.412760416666668  14.78338068181818 21.514322916666668  C 14.881392045454545 21.615885416666668  15.006628787878787 21.666666666666668  15.159090909090908 21.666666666666668  L 16.204545454545457 21.666666666666668  C 16.357007575757574 21.666666666666668  16.48224431818182 21.615885416666668  16.58025568181818 21.514322916666668  Z M 8.641335227272728 2.352864583333332  L 7.84090909090909 4.333333333333332  L 15.159090909090908 4.333333333333332  L 14.375 2.352864583333332  C 14.298768939393943 2.251302083333332  14.206202651515152 2.18923611111111  14.097301136363637 2.166666666666668  L 8.91903409090909 2.166666666666668  C 8.810132575757576 2.18923611111111  8.717566287878789 2.251302083333332  8.641335227272728 2.352864583333332  Z M 22.852982954545457 4.485677083333332  C 22.95099431818182 4.587239583333332  23 4.7170138888888875  23 4.875  L 23 5.958333333333332  C 23 6.116319444444442  22.95099431818182 6.24609375  22.852982954545457 6.34765625  C 22.75497159090909 6.44921875  22.62973484848485 6.5  22.477272727272727 6.5  L 21 6.5  L 21 22.546875  C 20.90909090909091 23.483506944444443  20.65317234848485 24.29318576388889  20.141335227272727 24.975911458333332  C 19.62949810606061 25.65863715277778  19.014204545454543 26  18.295454545454543 26  L 4.704545454545455 26  C 3.985795454545455 26  3.3705018939393945 25.669921875  2.8586647727272725 25.009765625  C 2.346827651515152 24.349609375  2.090909090909091 23.55121527777778  2 22.614583333333332  L 2 6.5  L 0.5227272727272727 6.5  C 0.3702651515151515 6.5  0.24502840909090912 6.44921875  0.14701704545454547 6.34765625  C 0.049005681818181816 6.24609375  0 6.116319444444442  0 5.958333333333332  L 0 4.875  C 0 4.7170138888888875  0.049005681818181816 4.587239583333332  0.14701704545454547 4.485677083333332  C 0.24502840909090912 4.384114583333332  0.3702651515151515 4.333333333333332  0.5227272727272727 4.333333333333332  L 5.5703125 4.333333333333332  L 6.71377840909091 1.5065104166666676  C 6.877130681818183 1.0889756944444422  7.171164772727273 0.7335069444444422  7.595880681818182 0.44010416666666763  C 8.020596590909092 0.14670138888888729  8.450757575757576 0  8.886363636363637 0  L 14.113636363636363 0  C 14.549242424242427 0  14.979403409090908 0.14670138888888729  15.40411931818182 0.44010416666666763  C 15.828835227272728 0.7335069444444422  16.12286931818182 1.0889756944444422  16.28622159090909 1.5065104166666676  L 17.4296875 4.333333333333332  L 22.477272727272727 4.333333333333332  C 22.62973484848485 4.333333333333332  22.75497159090909 4.384114583333332  22.852982954545457 4.485677083333332  Z " fill-rule="nonzero" fill="#000000" stroke="none" transform="matrix(1 0 0 1 1058 358 )" />
  </g>
</svg>