<?xml version="1.0" encoding="utf-8"?>
<svg version="1.1" xmlns:xlink="http://www.w3.org/1999/xlink" width="41px" height="44px" xmlns="http://www.w3.org/2000/svg">
  <g transform="matrix(1 0 0 1 -175 -41 )">
    <path d="M 20.5 42.035714285714285  C 20.762820512820518 42.035714285714285  20.894230769230774 41.904761904761905  20.894230769230766 41.64285714285714  C 20.894230769230774 41.38095238095238  20.762820512820518 41.25  20.5 41.25  C 19.53084935897436 41.25  18.6972155448718 40.902157738095234  17.999098557692307 40.206473214285715  C 17.30098157051282 39.51078869047619  16.951923076923077 38.68005952380952  16.951923076923077 37.714285714285715  C 16.951923076923077 37.45238095238095  16.82051282051282 37.32142857142857  16.557692307692307 37.32142857142857  C 16.294871794871796 37.32142857142857  16.163461538461537 37.45238095238095  16.163461538461537 37.714285714285715  C 16.163461538461537 38.90922619047619  16.58643830128205 39.928199404761905  17.432391826923077 40.77120535714286  C 18.278345352564106 41.61421130952381  19.300881410256412 42.035714285714285  20.5 42.035714285714285  Z M 11.038461538461538 14.142857142857142  C 11.038461538461538 22.851190476190478  8.853766025641026 29.660714285714285  4.484375 34  L 36.515625 34  C 32.14623397435898 29.660714285714285  29.96153846153846 22.851190476190478  29.96153846153846 14.142857142857142  C 29.96153846153846 13.308035714285712  29.764423076923077 12.448660714285712  29.370192307692307 11.564732142857142  C 28.97596153846154 10.680803571428571  28.409254807692307 9.837797619047615  27.670072115384617 9.035714285714288  C 26.930889423076923 8.23363095238095  25.93299278846154 7.574776785714288  24.67638221153846 7.059151785714288  C 23.419771634615383 6.543526785714288  22.027644230769234 6.285714285714288  20.5 6.285714285714288  C 18.97235576923077 6.285714285714288  17.580228365384617 6.543526785714288  16.323617788461537 7.059151785714288  C 15.067007211538462 7.574776785714288  14.069110576923077 8.23363095238095  13.329927884615383 9.035714285714288  C 12.590745192307692 9.837797619047615  12.024038461538462 10.680803571428571  11.629807692307692 11.564732142857142  C 11.235576923076923 12.448660714285712  11.038461538461538 13.308035714285712  11.038461538461538 14.142857142857142  Z M 38.7578125 32.410714285714285  C 39.43129006410257 33.16369047619048  40.1786858974359 33.88392857142857  41 34.57142857142857  C 41.00000000000001 35.42261904761905  40.68790064102564 36.1592261904762  40.06370192307693 36.78125  C 39.43950320512821 37.4032738095238  38.70032051282052 37.714285714285715  37.84615384615385 37  L 26.807692307692307 37  C 26.807692307692307 39.449404761904766  26.191706730769234 40.93080357142857  24.959735576923077 42.15848214285714  C 23.727764423076923 43.386160714285715  22.2411858974359 44  20.5 44  C 18.758814102564106 44  17.272235576923077 43.386160714285715  16.040264423076923 42.15848214285714  C 14.80829326923077 40.93080357142857  14.192307692307692 39.449404761904766  14.192307692307692 37  L 3.153846153846154 37  C 2.2996794871794877 37.714285714285715  1.560496794871795 37.4032738095238  0.9362980769230769 36.78125  C 0.3120993589743591 36.1592261904762  0 35.42261904761905  0 34.57142857142857  C 0.8213141025641028 33.88392857142857  1.5687099358974363 33.16369047619048  2.2421875 32.410714285714285  C 2.9156650641025648 31.65773809523809  3.6137820512820515 30.6796875  4.336538461538462 29.4765625  C 5.059294871794872 28.2734375  5.6711738782051295 26.976190476190474  6.172175480769231 25.58482142857143  C 6.673177083333334 24.19345238095238  7.083834134615385 22.507440476190478  7.404146634615385 20.52678571428571  C 7.724459134615385 18.546130952380953  7.884615384615385 16.418154761904756  7.884615384615385 14.142857142857142  C 7.884615384615385 11.654761904761902  8.845552884615385 9.342633928571429  10.767427884615383 7.206473214285712  C 12.689302884615383 5.0703125  15.21073717948718 3.773065476190473  18.33173076923077 3.3147321428571415  C 18.200320512820515 3.003720238095234  18.134615384615383 2.6845238095238098  18.134615384615383 2.3571428571428585  C 18.134615384615383 1.7023809523809512  18.364583333333336 1.1458333333333317  18.82451923076923 0.6875  C 19.28445512820513 0.2291666666666683  19.84294871794872 0  20.5 0  C 21.157051282051285 0  21.715544871794876 0.2291666666666683  22.175480769230766 0.6875  C 22.635416666666668 1.1458333333333317  22.865384615384617 1.7023809523809512  22.865384615384617 2.3571428571428585  C 22.865384615384617 2.6845238095238098  22.79967948717949 3.003720238095234  22.668269230769234 3.3147321428571415  C 25.789262820512825 3.773065476190473  28.310697115384617 5.0703125  30.232572115384617 7.206473214285712  C 32.15444711538461 9.342633928571429  33.11538461538461 11.654761904761902  33.11538461538461 14.142857142857142  C 33.11538461538461 16.418154761904756  33.27554086538461 18.546130952380953  33.59585336538461 20.52678571428571  C 33.91616586538461 22.507440476190478  34.32682291666667 24.19345238095238  34.82782451923077 25.58482142857143  C 35.328826121794876 26.976190476190474  35.94070512820513 28.2734375  36.66346153846154 29.4765625  C 37.386217948717956 30.6796875  38.084334935897445 31.65773809523809  38.7578125 32.410714285714285  Z " fill-rule="nonzero" fill="#e09600" stroke="none" transform="matrix(1 0 0 1 175 41 )" />
  </g>
</svg>