<?xml version="1.0" encoding="utf-8"?>
<svg version="1.1" xmlns:xlink="http://www.w3.org/1999/xlink" width="27px" height="25px" xmlns="http://www.w3.org/2000/svg">
  <g transform="matrix(1 0 0 1 -1023 -589 )">
    <path d="M 4.562376237623763 22.887788778877887  L 6.469306930693069 22.887788778877887  L 8.091089108910891 21.386138613861387  L 3.902970297029703 17.50825082508251  L 2.2811881188118814 19.00990099009901  L 2.2811881188118814 20.775577557755774  L 4.562376237623763 20.775577557755774  L 4.562376237623763 22.887788778877887  Z M 15.665346534653464 7.854785478547854  C 15.74851485148515 7.777777777777778  15.790099009900992 7.684268426842683  15.790099009900992 7.574257425742576  C 15.790099009900992 7.332233223322332  15.659405940594059 7.21122112211221  15.398019801980197 7.21122112211221  C 15.27920792079208 7.21122112211221  15.17821782178218 7.249724972497249  15.095049504950495 7.326732673267328  L 5.435643564356435 16.27062706270627  C 5.352475247524753 16.347634763476346  5.310891089108911 16.441144114411436  5.310891089108911 16.551155115511552  C 5.310891089108911 16.793179317931788  5.441584158415842 16.914191419141915  5.702970297029703 16.914191419141915  C 5.8217821782178225 16.914191419141915  5.922772277227724 16.875687568756874  6.005940594059406 16.7986798679868  L 15.665346534653464 7.854785478547854  Z M 0 18.135313531353138  L 14.827722772277228 4.405940594059407  L 22.24158415841584 11.27062706270627  L 7.413861386138614 25  L 0 25  L 0 18.135313531353138  Z M 26.34059405940594 4.488448844884488  C 26.780198019801983 4.917491749174918  27 5.418041804180418  27 5.99009900990099  C 27 6.5731573157315735  26.780198019801983 7.068206820682066  26.34059405940594 7.475247524752477  L 23.38217821782178 10.214521452145215  L 15.968316831683168 3.3498349834983507  L 18.926732673267324 0.6270627062706258  C 19.354455445544552 0.20902090209020674  19.88910891089109 0  20.53069306930693 0  C 21.160396039603963 0  21.700990099009903 0.20902090209020674  22.15247524752475 0.6270627062706258  L 26.34059405940594 4.488448844884488  Z " fill-rule="nonzero" fill="#e59810" stroke="none" transform="matrix(1 0 0 1 1023 589 )" />
  </g>
</svg>