<?xml version="1.0" encoding="utf-8"?>
<svg version="1.1" xmlns:xlink="http://www.w3.org/1999/xlink" width="26px" height="18px" xmlns="http://www.w3.org/2000/svg">
  <g transform="matrix(1 0 0 1 -1053 -508 )">
    <path d="M 19.304129464285715 14.1015625  C 21.243489583333336 12.8359375  22.85639880952381 11.135416666666664  24.142857142857142 9  C 22.672619047619047 6.541666666666667  20.82998511904762 4.703125  18.614955357142858 3.484374999999999  C 19.20498511904762 4.567708333333331  19.5 5.739583333333332  19.5 6.999999999999999  C 19.5 8.927083333333332  18.864025297619047 10.575520833333332  17.592075892857142 11.9453125  C 16.32012648809524 13.315104166666664  14.789434523809524 14  13 14  C 11.210565476190478 14  9.679873511904763 13.315104166666664  8.407924107142858 11.9453125  C 7.135974702380953 10.575520833333332  6.5 8.927083333333332  6.5 6.999999999999999  C 6.5 5.739583333333332  6.795014880952381 4.567708333333331  7.385044642857142 3.484374999999999  C 5.170014880952381 4.703125  3.327380952380953 6.541666666666667  1.857142857142857 9  C 3.1436011904761907 11.135416666666664  4.756510416666667 12.8359375  6.695870535714286 14.1015625  C 8.635230654761905 15.3671875  10.736607142857142 16  13 16  C 15.263392857142856 16  17.3647693452381 15.3671875  19.304129464285715 14.1015625  Z M 13.493303571428571 3.5312500000000004  C 13.628720238095239 3.385416666666667  13.696428571428571 3.2083333333333326  13.696428571428571 2.999999999999999  C 13.696428571428571 2.791666666666666  13.628720238095239 2.6145833333333317  13.493303571428571 2.46875  C 13.357886904761907 2.3229166666666647  13.19345238095238 2.2499999999999982  13 2.25  C 11.79092261904762 2.2499999999999982  10.753534226190478 2.7161458333333326  9.887834821428571 3.6484375  C 9.022135416666668 4.580729166666667  8.589285714285714 5.697916666666667  8.589285714285714 6.999999999999999  C 8.589285714285714 7.208333333333332  8.65699404761905 7.385416666666667  8.792410714285714 7.53125  C 8.927827380952381 7.677083333333332  9.092261904761905 7.75  9.285714285714286 7.75  C 9.479166666666668 7.75  9.643601190476192 7.677083333333332  9.779017857142858 7.53125  C 9.914434523809524 7.385416666666667  9.982142857142858 7.208333333333332  9.982142857142858 6.999999999999999  C 9.982142857142858 6.104166666666666  10.277157738095237 5.338541666666666  10.8671875 4.703125  C 11.457217261904763 4.067708333333333  12.168154761904763 3.7499999999999987  13 3.750000000000001  C 13.19345238095238 3.7499999999999987  13.357886904761907 3.677083333333332  13.493303571428571 3.5312500000000004  Z M 25.709821428571427 7.921874999999999  C 25.90327380952381 8.286458333333332  26 8.645833333333332  26 9  C 26 9.354166666666664  25.90327380952381 9.713541666666668  25.709821428571427 10.078124999999998  C 24.355654761904766 12.473958333333332  22.53478422619048 14.393229166666668  20.247209821428573 15.8359375  C 17.959635416666668 17.278645833333332  15.543898809523812 18  13 18  C 10.456101190476192 18  8.040364583333334 17.276041666666668  5.752790178571429 15.828125  C 3.4652157738095237 14.380208333333332  1.6443452380952384 12.463541666666664  0.29017857142857145 10.078124999999998  C 0.09672619047619047 9.713541666666668  0 9.354166666666664  0 9  C 0 8.645833333333332  0.09672619047619047 8.286458333333332  0.29017857142857145 7.921874999999999  C 1.6443452380952384 5.536458333333333  3.4652157738095237 3.6197916666666656  5.752790178571429 2.171875  C 8.040364583333334 0.7239583333333319  10.456101190476192 0  13 0  C 15.543898809523812 0  17.959635416666668 0.7239583333333319  20.247209821428573 2.171875  C 22.53478422619048 3.6197916666666656  24.355654761904766 5.536458333333333  25.709821428571427 7.921874999999999  Z " fill-rule="nonzero" fill="#000000" stroke="none" transform="matrix(1 0 0 1 1053 508 )" />
  </g>
</svg>