<?xml version="1.0" encoding="utf-8"?>
<svg version="1.1" xmlns:xlink="http://www.w3.org/1999/xlink" width="27px" height="27px" xmlns="http://www.w3.org/2000/svg">
  <g transform="matrix(1 0 0 1 -1068 -358 )">
    <path d="M 4.562376237623763 24.71881188118812  L 6.469306930693069 24.71881188118812  L 8.091089108910891 23.097029702970296  L 3.902970297029703 18.908910891089107  L 2.2811881188118814 20.53069306930693  L 2.2811881188118814 22.437623762376237  L 4.562376237623763 22.437623762376237  L 4.562376237623763 24.71881188118812  Z M 15.665346534653464 8.483168316831684  C 15.74851485148515 8.4  15.790099009900992 8.299009900990098  15.790099009900992 8.180198019801981  C 15.790099009900992 7.918811881188119  15.659405940594059 7.788118811881187  15.398019801980197 7.788118811881187  C 15.27920792079208 7.788118811881187  15.17821782178218 7.829702970297029  15.095049504950495 7.912871287128714  L 5.435643564356435 17.572277227722775  C 5.352475247524753 17.655445544554453  5.310891089108911 17.756435643564352  5.310891089108911 17.875247524752474  C 5.310891089108911 18.136633663366332  5.441584158415842 18.26732673267327  5.702970297029703 18.26732673267327  C 5.8217821782178225 18.26732673267327  5.922772277227724 18.225742574257424  6.005940594059406 18.142574257425743  L 15.665346534653464 8.483168316831684  Z M 0 19.586138613861387  L 14.827722772277228 4.75841584158416  L 22.24158415841584 12.172277227722772  L 7.413861386138614 27  L 0 27  L 0 19.586138613861387  Z M 26.34059405940594 4.8475247524752465  C 26.780198019801983 5.310891089108912  27 5.851485148514851  27 6.469306930693069  C 27 7.099009900990099  26.780198019801983 7.633663366336631  26.34059405940594 8.073267326732674  L 23.38217821782178 11.031683168316832  L 15.968316831683168 3.6178217821782193  L 18.926732673267324 0.6772277227722758  C 19.354455445544552 0.22574257425742328  19.88910891089109 0  20.53069306930693 0  C 21.160396039603963 0  21.700990099009903 0.22574257425742328  22.15247524752475 0.6772277227722758  L 26.34059405940594 4.8475247524752465  Z " fill-rule="nonzero" fill="#000000" stroke="none" transform="matrix(1 0 0 1 1068 358 )" />
  </g>
</svg>