<?xml version="1.0" encoding="utf-8"?>
<svg version="1.1" xmlns:xlink="http://www.w3.org/1999/xlink" width="116px" height="32px" xmlns="http://www.w3.org/2000/svg">
  <g transform="matrix(1 0 0 1 -276 -301 )">
    <path d="M 277 317  A 15 15 0 0 1 292 302 L 376 302  A 15 15 0 0 1 391 317 A 15 15 0 0 1 376 332 L 292 332  A 15 15 0 0 1 277 317 Z " fill-rule="nonzero" fill="#e59810" stroke="none" fill-opacity="0.9921568627450981" />
    <path d="M 276.5 317  A 15.5 15.5 0 0 1 292 301.5 L 376 301.5  A 15.5 15.5 0 0 1 391.5 317 A 15.5 15.5 0 0 1 376 332.5 L 292 332.5  A 15.5 15.5 0 0 1 276.5 317 Z " stroke-width="1" stroke="#797979" fill="none" stroke-opacity="0.1568627450980392" />
  </g>
</svg>