<?xml version="1.0" encoding="utf-8"?>
<svg version="1.1" xmlns:xlink="http://www.w3.org/1999/xlink" width="32px" height="18px" xmlns="http://www.w3.org/2000/svg">
  <g transform="matrix(1 0 0 1 -1160 -398 )">
    <path d="M 23.758928571428573 14.1015625  C 26.145833333333336 12.8359375  28.130952380952383 11.135416666666664  29.714285714285715 9  C 27.904761904761905 6.541666666666667  25.636904761904763 4.703125  22.910714285714285 3.484374999999999  C 23.636904761904763 4.567708333333331  24 5.739583333333332  24 6.999999999999999  C 24 8.927083333333332  23.217261904761905 10.575520833333332  21.651785714285715 11.9453125  C 20.086309523809526 13.315104166666664  18.202380952380953 14  16 14  C 13.79761904761905 14  11.913690476190478 13.315104166666664  10.348214285714286 11.9453125  C 8.782738095238097 10.575520833333332  8 8.927083333333332  8 6.999999999999999  C 8 5.739583333333332  8.363095238095239 4.567708333333331  9.089285714285714 3.484374999999999  C 6.363095238095239 4.703125  4.095238095238096 6.541666666666667  2.2857142857142856 9  C 3.8690476190476195 11.135416666666664  5.854166666666667 12.8359375  8.241071428571429 14.1015625  C 10.627976190476192 15.3671875  13.214285714285714 16  16 16  C 18.785714285714285 16  21.372023809523814 15.3671875  23.758928571428573 14.1015625  Z M 16.607142857142858 3.5312500000000004  C 16.773809523809526 3.385416666666667  16.857142857142858 3.2083333333333326  16.857142857142858 2.999999999999999  C 16.857142857142858 2.791666666666666  16.773809523809526 2.6145833333333317  16.607142857142858 2.46875  C 16.440476190476193 2.3229166666666647  16.238095238095237 2.2499999999999982  16 2.25  C 14.511904761904763 2.2499999999999982  13.23511904761905 2.7161458333333326  12.169642857142858 3.6484375  C 11.104166666666668 4.580729166666667  10.571428571428571 5.697916666666667  10.571428571428571 6.999999999999999  C 10.571428571428571 7.208333333333332  10.654761904761907 7.385416666666667  10.821428571428571 7.53125  C 10.988095238095239 7.677083333333332  11.190476190476192 7.75  11.428571428571429 7.75  C 11.666666666666668 7.75  11.86904761904762 7.677083333333332  12.035714285714286 7.53125  C 12.202380952380953 7.385416666666667  12.285714285714286 7.208333333333332  12.285714285714286 6.999999999999999  C 12.285714285714286 6.104166666666666  12.648809523809524 5.338541666666666  13.375 4.703125  C 14.101190476190478 4.067708333333333  14.976190476190478 3.7499999999999987  16 3.750000000000001  C 16.238095238095237 3.7499999999999987  16.440476190476193 3.677083333333332  16.607142857142858 3.5312500000000004  Z M 31.642857142857142 7.921874999999999  C 31.880952380952383 8.286458333333332  32 8.645833333333332  32 9  C 32 9.354166666666664  31.880952380952383 9.713541666666668  31.642857142857142 10.078124999999998  C 29.97619047619048 12.473958333333332  27.735119047619055 14.393229166666668  24.919642857142858 15.8359375  C 22.104166666666668 17.278645833333332  19.130952380952383 18  16 18  C 12.86904761904762 18  9.895833333333334 17.276041666666668  7.080357142857143 15.828125  C 4.2648809523809526 14.380208333333332  2.023809523809524 12.463541666666664  0.35714285714285715 10.078124999999998  C 0.11904761904761904 9.713541666666668  0 9.354166666666664  0 9  C 0 8.645833333333332  0.11904761904761904 8.286458333333332  0.35714285714285715 7.921874999999999  C 2.023809523809524 5.536458333333333  4.2648809523809526 3.6197916666666656  7.080357142857143 2.171875  C 9.895833333333334 0.7239583333333319  12.86904761904762 0  16 0  C 19.130952380952383 0  22.104166666666668 0.7239583333333319  24.919642857142858 2.171875  C 27.735119047619055 3.6197916666666656  29.97619047619048 5.536458333333333  31.642857142857142 7.921874999999999  Z " fill-rule="nonzero" fill="#000000" stroke="none" transform="matrix(1 0 0 1 1160 398 )" />
  </g>
</svg>