<?xml version="1.0" encoding="utf-8"?>
<svg version="1.1" xmlns:xlink="http://www.w3.org/1999/xlink" width="29px" height="34px" xmlns="http://www.w3.org/2000/svg">
  <g transform="matrix(1 0 0 1 -1023 -35 )">
    <path d="M 21.825520833333332 1.2901785714285725  L 27.716145833333332 7.209821428571427  C 28.068576388888893 7.563988095238093  28.370659722222225 8.04464285714286  28.622395833333332 8.651785714285714  C 28.874131944444443 9.258928571428573  29 9.81547619047619  29 10.321428571428573  L 29 32.17857142857143  C 29 32.68452380952381  28.82378472222222 33.11458333333333  28.471354166666668 33.46875  C 28.118923611111114 33.82291666666667  27.690972222222225 34  27.1875 34  L 1.8125 34  C 1.309027777777778 34  0.881076388888889 33.82291666666667  0.5286458333333334 33.46875  C 0.17621527777777776 33.11458333333333  0 32.68452380952381  0 32.17857142857143  L 0 1.8214285714285725  C 0 1.3154761904761896  0.17621527777777776 0.8854166666666654  0.5286458333333334 0.53125  C 0.881076388888889 0.1770833333333346  1.309027777777778 0  1.8125 0  L 18.729166666666668 0  C 19.232638888888893 0  19.786458333333332 0.12648809523809668  20.390625 0.37946428571428625  C 20.994791666666668 0.6324404761904758  21.47309027777778 0.9360119047619033  21.825520833333332 1.2901785714285725  Z M 20.107421875 2.9977678571428585  C 19.956380208333332 2.8459821428571415  19.698350694444446 2.706845238095234  19.333333333333332 2.5803571428571415  L 19.333333333333332 9.714285714285714  L 26.432291666666668 9.714285714285714  C 26.306423611111114 9.347470238095234  26.16796875 9.08816964285714  26.016927083333332 8.936383928571427  L 20.107421875 2.9977678571428585  Z M 2.4166666666666665 31  L 26.583333333333332 31  L 26.583333333333332 12.14285714285714  L 18.729166666666668 12.14285714285714  C 18.225694444444443 12.14285714285714  17.797743055555557 11.965773809523807  17.4453125 11.61160714285714  C 17.092881944444443 11.257440476190476  16.916666666666668 10.827380952380947  16.916666666666668 10.321428571428573  L 16.916666666666668 3  L 2.4166666666666665 3  L 2.4166666666666665 31  Z M 7.25 16.392857142857142  L 7.25 15.178571428571427  C 7.25 15.001488095238093  7.306640625 14.856026785714286  7.419921875 14.7421875  C 7.533203125000002 14.628348214285714  7.67795138888889 14.571428571428573  7.854166666666666 15  L 21.145833333333332 15  C 21.322048611111114 14.571428571428573  21.466796875 14.628348214285714  21.580078125 14.7421875  C 21.693359375 14.856026785714286  21.75 15.001488095238093  21.75 15.178571428571427  L 21.75 16.392857142857142  C 21.75 16.569940476190474  21.693359375 16.715401785714285  21.580078125 16.829241071428573  C 21.466796875 16.943080357142858  21.322048611111114 17  21.145833333333332 17  L 7.854166666666666 17  C 7.67795138888889 17  7.533203125000002 16.943080357142858  7.419921875 16.829241071428573  C 7.306640625 16.715401785714285  7.25 16.569940476190474  7.25 16.392857142857142  Z M 7.854166666666666 19  L 21.145833333333332 19  C 21.322048611111114 19.428571428571427  21.466796875 19.485491071428573  21.580078125 19.599330357142854  C 21.693359375 19.713169642857146  21.75 19.858630952380953  21.75 20.035714285714285  L 21.75 21.25  C 21.75 21.427083333333332  21.693359375 21.572544642857146  21.580078125 21.686383928571427  C 21.466796875 21.800223214285715  21.322048611111114 21.857142857142854  21.145833333333332 21.857142857142854  L 7.854166666666666 21.857142857142854  C 7.67795138888889 21.857142857142854  7.533203125000002 21.800223214285715  7.419921875 21.686383928571427  C 7.306640625 21.572544642857146  7.25 21.427083333333332  7.25 21.25  L 7.25 20.035714285714285  C 7.25 19.858630952380953  7.306640625 19.713169642857146  7.419921875 19.599330357142854  C 7.533203125000002 19.485491071428573  7.67795138888889 19.428571428571427  7.854166666666666 19  Z M 7.854166666666666 24  L 21.145833333333332 24  C 21.322048611111114 24.285714285714285  21.466796875 24.342633928571427  21.580078125 24.456473214285715  C 21.693359375 24.5703125  21.75 24.71577380952381  21.75 24.892857142857146  L 21.75 26.107142857142854  C 21.75 26.28422619047619  21.693359375 26.4296875  21.580078125 26.543526785714285  C 21.466796875 26.657366071428573  21.322048611111114 26.714285714285715  21.145833333333332 26.714285714285715  L 7.854166666666666 26.714285714285715  C 7.67795138888889 26.714285714285715  7.533203125000002 26.657366071428573  7.419921875 26.543526785714285  C 7.306640625 26.4296875  7.25 26.28422619047619  7.25 26.107142857142854  L 7.25 24.892857142857146  C 7.25 24.71577380952381  7.306640625 24.5703125  7.419921875 24.456473214285715  C 7.533203125000002 24.342633928571427  7.67795138888889 24.285714285714285  7.854166666666666 24  Z " fill-rule="nonzero" fill="#ffffff" stroke="none" transform="matrix(1 0 0 1 1023 35 )" />
  </g>
</svg>