<?xml version="1.0" encoding="utf-8"?>
<svg version="1.1" xmlns:xlink="http://www.w3.org/1999/xlink" width="300px" height="40px" xmlns="http://www.w3.org/2000/svg">
  <g transform="matrix(1 0 0 1 -447 -709 )">
    <path d="M 448 729  A 19 19 0 0 1 467 710 L 727 710  A 19 19 0 0 1 746 729 A 19 19 0 0 1 727 748 L 467 748  A 19 19 0 0 1 448 729 Z " fill-rule="nonzero" fill="#e59810" stroke="none" fill-opacity="0.9921568627450981" />
    <path d="M 447.5 729  A 19.5 19.5 0 0 1 467 709.5 L 727 709.5  A 19.5 19.5 0 0 1 746.5 729 A 19.5 19.5 0 0 1 727 748.5 L 467 748.5  A 19.5 19.5 0 0 1 447.5 729 Z " stroke-width="1" stroke="#797979" fill="none" stroke-opacity="0.1568627450980392" />
  </g>
</svg>