<?xml version="1.0" encoding="utf-8"?>
<svg version="1.1" xmlns:xlink="http://www.w3.org/1999/xlink" width="24px" height="22px" xmlns="http://www.w3.org/2000/svg">
  <g transform="matrix(1 0 0 1 -747 -626 )">
    <path d="M 18.1875 19.978749999999998  C 18.370192307692307 19.804583333333333  18.461538461538463 19.598333333333333  18.461538461538463 19.36  C 18.461538461538463 19.12166666666667  18.370192307692307 18.91541666666667  18.1875 18.741249999999997  C 18.004807692307693 18.567083333333333  17.78846153846154 18.48  17.538461538461537 18.48  C 17.28846153846154 18.48  17.072115384615387 18.567083333333333  16.889423076923077 18.741249999999997  C 16.706730769230774 18.91541666666667  16.615384615384613 19.12166666666667  16.615384615384613 19.36  C 16.615384615384613 19.598333333333333  16.706730769230774 19.804583333333333  16.889423076923077 19.978749999999998  C 17.072115384615387 20.15291666666667  17.28846153846154 20.240000000000002  17.538461538461537 20.240000000000002  C 17.78846153846154 20.240000000000002  18.004807692307693 20.15291666666667  18.1875 19.978749999999998  Z M 21.879807692307693 19.978749999999998  C 22.0625 19.804583333333333  22.153846153846153 19.598333333333333  22.153846153846153 19.36  C 22.153846153846153 19.12166666666667  22.0625 18.91541666666667  21.879807692307693 18.741249999999997  C 21.697115384615387 18.567083333333333  21.480769230769234 18.48  21.23076923076923 18.48  C 20.98076923076923 18.48  20.76442307692308 18.567083333333333  20.58173076923077 18.741249999999997  C 20.399038461538463 18.91541666666667  20.307692307692307 19.12166666666667  20.307692307692307 19.36  C 20.307692307692307 19.598333333333333  20.399038461538463 19.804583333333333  20.58173076923077 19.978749999999998  C 20.76442307692308 20.15291666666667  20.98076923076923 20.240000000000002  21.23076923076923 20.240000000000002  C 21.480769230769234 20.240000000000002  21.697115384615387 20.15291666666667  21.879807692307693 19.978749999999998  Z M 23.596153846153847 15.345  C 23.865384615384617 15.601666666666663  24 15.913333333333332  24 16.28  L 24 20.68  C 24 21.046666666666667  23.865384615384617 21.358333333333334  23.596153846153847 21.615000000000002  C 23.32692307692308 21.87166666666667  23.000000000000004 22  22.615384615384613 22  L 1.3846153846153846 22  C 1 22  0.6730769230769231 21.87166666666667  0.40384615384615385 21.615000000000002  C 0.13461538461538458 21.358333333333334  0 21.046666666666667  0 20.68  L 0 16.28  C 0 15.913333333333332  0.13461538461538458 15.601666666666663  0.40384615384615385 15.345  C 0.6730769230769231 15.088333333333335  1 14.959999999999999  1.3846153846153846 14.959999999999999  L 7.543269230769232 14.959999999999999  C 7.7451923076923075 15.473333333333334  8.084134615384615 15.894999999999998  8.560096153846153 16.225  C 9.036057692307693 16.555  9.567307692307693 16.72  10.153846153846153 16.72  L 13.846153846153845 16.72  C 14.432692307692308 16.72  14.963942307692307 16.555  15.439903846153845 16.225  C 15.915865384615385 15.894999999999998  16.254807692307693 15.473333333333334  16.45673076923077 14.959999999999999  L 22.615384615384613 14.959999999999999  C 23.000000000000004 14.959999999999999  23.32692307692308 15.088333333333335  23.596153846153847 15.345  Z M 19.110576923076923 6.42125  C 19.408653846153847 6.696249999999999  19.47596153846154 7.012499999999999  19.3125 7.369999999999999  C 19.149038461538463 7.736666666666665  18.865384615384613 7.92  18.461538461538463 7.92  L 14.76923076923077 7.92  L 14.76923076923077 14.08  C 14.76923076923077 14.318333333333332  14.677884615384617 14.524583333333332  14.495192307692307 14.698750000000002  C 14.312500000000002 14.872916666666667  14.096153846153847 14.959999999999999  13.846153846153845 14.959999999999999  L 10.153846153846153 14.959999999999999  C 9.903846153846155 14.959999999999999  9.6875 14.872916666666667  9.504807692307693 14.698750000000002  C 9.322115384615385 14.524583333333332  9.230769230769232 14.318333333333332  9.230769230769232 14.08  L 9.230769230769232 7.92  L 5.538461538461538 7.92  C 5.134615384615384 7.92  4.850961538461539 7.736666666666665  4.6875 7.369999999999999  C 4.524038461538462 7.012499999999999  4.591346153846154 6.696249999999999  4.889423076923077 6.42125  L 11.350961538461538 0.2612499999999993  C 11.524038461538462 0.08708333333333229  11.740384615384615 0  12 0  C 12.259615384615385 0  12.475961538461537 0.08708333333333229  12.649038461538463 0.2612499999999993  L 19.110576923076923 6.42125  Z " fill-rule="nonzero" fill="#000000" stroke="none" transform="matrix(1 0 0 1 747 626 )" />
  </g>
</svg>