<?xml version="1.0" encoding="utf-8"?>
<svg version="1.1" xmlns:xlink="http://www.w3.org/1999/xlink" width="34px" height="34px" xmlns="http://www.w3.org/2000/svg">
  <g transform="matrix(1 0 0 1 -960 -11 )">
    <path d="M 5.745214521452145 31.127392739273926  L 8.146534653465347 31.127392739273926  L 10.188778877887788 29.085148514851486  L 4.914851485148515 23.81122112211221  L 2.8726072607260726 25.853465346534655  L 2.8726072607260726 28.254785478547856  L 5.745214521452145 28.254785478547856  L 5.745214521452145 31.127392739273926  Z M 19.726732673267325 10.682508250825082  C 19.831463146314633 10.577777777777778  19.883828382838285 10.45060506050605  19.883828382838285 10.300990099009903  C 19.883828382838285 9.971837183718371  19.71925192519252 9.807260726072606  19.39009900990099 9.807260726072606  C 19.24048404840484 9.807260726072606  19.11331133113312 9.859625962596258  19.00858085808581 9.964356435643566  L 6.8448844884488445 22.12805280528053  C 6.740154015401541 22.23278327832783  6.687788778877888 22.359955995599556  6.687788778877888 22.50957095709571  C 6.687788778877888 22.838723872387234  6.852365236523653 23.003300330033007  7.181518151815181 23.003300330033007  C 7.331133113311331 23.003300330033007  7.4583058305830585 22.95093509350935  7.563036303630363 22.846204620462046  L 19.726732673267325 10.682508250825082  Z M 0 24.664026402640268  L 18.671947194719472 5.992079207920794  L 28.007920792079208 15.328052805280528  L 9.335973597359736 34  L 0 34  L 0 24.664026402640268  Z M 33.16963696369637 6.104290429042903  C 33.723212321232126 6.687788778877889  34 7.368536853685368  34 8.146534653465347  C 34 8.93949394939494  33.723212321232126 9.61276127612761  33.16963696369637 10.166336633663368  L 29.444224422442243 13.891749174917491  L 20.108250825082507 4.555775577557757  L 23.833663366336634 0.852805280528051  C 24.372277227722773 0.28426842684268117  25.045544554455446 0  25.853465346534655 0  C 26.64642464246425 0  27.32717271727173 0.28426842684268117  27.895709570957095 0.852805280528051  L 33.16963696369637 6.104290429042903  Z " fill-rule="nonzero" fill="#000000" stroke="none" transform="matrix(1 0 0 1 960 11 )" />
  </g>
</svg>