<?xml version="1.0" encoding="utf-8"?>
<svg version="1.1" xmlns:xlink="http://www.w3.org/1999/xlink" width="69px" height="39px" xmlns="http://www.w3.org/2000/svg">
  <g transform="matrix(1 0 0 1 -926 -280 )">
    <path d="M 67.7197265625 31.619791666666664  C 68.5732421875 32.47743055555554  69 33.49305555555554  69 34.666666666666664  C 69 35.84027777777777  68.5732421875 36.85590277777777  67.7197265625 37.713541666666664  C 66.8662109375 38.57118055555556  65.85546875 39  64.6875 39  L 4.3125 39  C 3.1445312500000004 39  2.1337890625 38.57118055555556  1.2802734375 37.713541666666664  C 0.4267578125 36.85590277777777  0 35.84027777777777  0 34.666666666666664  C 0 33.49305555555554  0.4267578125 32.47743055555554  1.2802734375 31.619791666666664  L 31.4677734375 1.2864583333333353  C 32.32128906250001 0.4288194444444393  33.33203125000001 0  34.5 0  C 35.66796875 0  36.6787109375 0.4288194444444393  37.5322265625 1.2864583333333353  L 67.7197265625 31.619791666666664  Z " fill-rule="nonzero" fill="#d9001b" stroke="none" transform="matrix(1 0 0 1 926 280 )" />
  </g>
</svg>