<?xml version="1.0" encoding="utf-8"?>
<svg version="1.1" xmlns:xlink="http://www.w3.org/1999/xlink" width="301px" height="36px" xmlns="http://www.w3.org/2000/svg">
  <defs>
    <mask fill="white" id="clip2">
      <path d="M 18 36  C 7.91999999999996 36  0 28.079999999999984  0 18  C 0 7.920000000000016  7.91999999999996 0  18 0  L 255.1666666666647 0  L 283 0  C 293.0799999999999 0  301 7.920000000000016  301 18  C 301 28.079999999999984  293.0799999999999 36  283 36  L 18 36  Z " fill-rule="evenodd" />
    </mask>
  </defs>
  <g transform="matrix(1 0 0 1 -693 -368 )">
    <path d="M 18 36  C 7.91999999999996 36  0 28.079999999999984  0 18  C 0 7.920000000000016  7.91999999999996 0  18 0  L 255.1666666666647 0  L 283 0  C 293.0799999999999 0  301 7.920000000000016  301 18  C 301 28.079999999999984  293.0799999999999 36  283 36  L 18 36  Z " fill-rule="nonzero" fill="#ffffff" stroke="none" fill-opacity="0" transform="matrix(1 0 0 1 693 368 )" />
    <path d="M 18 36  C 7.91999999999996 36  0 28.079999999999984  0 18  C 0 7.920000000000016  7.91999999999996 0  18 0  L 255.1666666666647 0  L 283 0  C 293.0799999999999 0  301 7.920000000000016  301 18  C 301 28.079999999999984  293.0799999999999 36  283 36  L 18 36  Z " stroke-width="2" stroke="#797979" fill="none" transform="matrix(1 0 0 1 693 368 )" mask="url(#clip2)" />
  </g>
</svg>