<?xml version="1.0" encoding="utf-8"?>
<svg version="1.1" xmlns:xlink="http://www.w3.org/1999/xlink" width="37px" height="42px" xmlns="http://www.w3.org/2000/svg">
  <g transform="matrix(1 0 0 1 -166 -247 )">
    <path d="M 10.277777777777779 13.363636363636365  L 10.277777777777779 19  L 26.72222222222222 19  L 26.72222222222222 13.363636363636365  C 26.72222222222222 11.255681818181817  25.919270833333336 9.455965909090907  24.313368055555557 7.964488636363634  C 22.70746527777778 6.473011363636366  20.769675925925927 5.727272727272727  18.5 5.727272727272727  C 16.230324074074076 5.727272727272727  14.292534722222221 6.473011363636366  12.686631944444443 7.964488636363634  C 11.080729166666668 9.455965909090907  10.277777777777779 11.255681818181817  10.277777777777779 13.363636363636365  Z M 36.10069444444444 19.926136363636367  C 36.70023148148149 20.482954545454543  37 21.159090909090903  37 21.954545454545453  L 37 39.13636363636364  C 37 39.93181818181819  36.70023148148149 40.60795454545455  36.10069444444444 41.16477272727273  C 35.50115740740741 41.721590909090914  34.77314814814815 42  33.916666666666664 42  L 3.083333333333333 42  C 2.226851851851852 42  1.4988425925925928 41.721590909090914  0.8993055555555556 41.16477272727273  C 0.2997685185185185 40.60795454545455  0 39.93181818181819  0 39.13636363636364  L 0 21.954545454545453  C 0 21.159090909090903  0.2997685185185185 20.482954545454543  0.8993055555555556 19.926136363636367  C 1.4988425925925928 19.369318181818183  2.226851851851852 19.090909090909093  3.083333333333333 19.090909090909093  L 4.111111111111111 19.090909090909093  L 4.111111111111111 13.363636363636365  C 4.111111111111111 9.70454545454545  5.524305555555555 6.5625  8.350694444444445 3.9375  C 11.177083333333332 1.3125  14.560185185185187 0  18.5 0  C 22.439814814814817 0  25.822916666666664 1.3125  28.649305555555557 3.9375  C 31.475694444444443 6.5625  32.888888888888886 9.70454545454545  32.888888888888886 13.363636363636365  L 32.888888888888886 19.090909090909093  L 33.916666666666664 19.090909090909093  C 34.77314814814815 19.090909090909093  35.50115740740741 19.369318181818183  36.10069444444444 19.926136363636367  Z " fill-rule="nonzero" fill="#e59810" stroke="none" transform="matrix(1 0 0 1 166 247 )" />
  </g>
</svg>