<?xml version="1.0" encoding="utf-8"?>
<svg version="1.1" xmlns:xlink="http://www.w3.org/1999/xlink" width="26px" height="25px" xmlns="http://www.w3.org/2000/svg">
  <g transform="matrix(1 0 0 1 -966 -303 )">
    <path d="M 25.425951086956523 10.020860077021823  C 25.808650362318836 10.42201540436457  26 10.906076166024818  26 11.473042362002566  L 26 13.526957637997434  C 26 14.09392383397518  25.808650362318836 14.57798459563543  25.425951086956523 14.979139922978177  C 25.043251811594207 15.380295250320925  24.54574275362319 15.5808729139923  23.933423913043477 15.5808729139923  L 11.498641304347826 15.5808729139923  L 16.673913043478258 20.298459563543002  C 17.121376811594207 20.683568677792042  17.345108695652176 21.164955070603337  17.345108695652176 21.742618741976894  C 17.345108695652176 22.32028241335045  17.121376811594207 22.801668806161747  16.673913043478258 23.186777920410783  L 15.349184782608695 24.406290115532734  C 14.913496376811596 24.80209670517758  14.383605072463768 25  13.759510869565217 25  C 13.147192028985508 25  12.611413043478262 24.80209670517758  12.152173913043478 24.406290115532734  L 0.6535326086956522 13.94415917843389  C 0.2178442028985509 13.548352588789045  0 13.066966195977747  0 12.5  C 0 11.943731279418056  0.2178442028985509 11.456996148908857  0.6535326086956522 11.0397946084724  L 12.152173913043478 0.6097560975609762  C 12.599637681159422 0.20325203252032353  13.135416666666668 0  13.759510869565217 0  C 14.371829710144928 0  14.901721014492756 0.20325203252032353  15.349184782608695 0.6097560975609762  L 16.673913043478258 1.7971758664955066  C 17.121376811594207 2.203679931536157  17.345108695652176 2.6904150620453535  17.345108695652176 3.2573812580231065  C 17.345108695652176 3.8243474540008537  17.121376811594207 4.3110825845100536  16.673913043478258 4.717586649550706  L 11.498641304347826 9.419127086007704  L 23.933423913043477 9.419127086007704  C 24.54574275362319 9.419127086007704  25.043251811594207 9.619704749679075  25.425951086956523 10.020860077021823  Z " fill-rule="nonzero" fill="#000000" stroke="none" transform="matrix(1 0 0 1 966 303 )" />
  </g>
</svg>