<?xml version="1.0" encoding="utf-8"?>
<svg version="1.1" xmlns:xlink="http://www.w3.org/1999/xlink" width="21px" height="21px" xmlns="http://www.w3.org/2000/svg">
  <g transform="matrix(1 0 0 1 -1067 -536 )">
    <path d="M 13.876953125 17.376953125  C 13.958984375 17.294921875  14 17.190104166666664  14 17.0625  L 14 14.874999999999998  C 14 14.747395833333332  13.958984375 14.642578125  13.876953125 14.560546875  C 13.794921875 14.478515625  13.690104166666666 14.4375  13.5625 14.4375  L 12.25 14.4375  L 12.25 7.437499999999999  C 12.25 7.309895833333334  12.208984375 7.205078125000001  12.126953125 7.123046875000001  C 12.044921875 7.041015625000001  11.940104166666668 7.000000000000001  11.8125 7.000000000000001  L 7.4375 7.000000000000001  C 7.309895833333335 7.000000000000001  7.205078125 7.041015625000001  7.123046875 7.123046875000001  C 7.041015625 7.205078125000001  7 7.309895833333334  7 7.437499999999999  L 7 9.625  C 7 9.752604166666666  7.041015625 9.857421875  7.123046875 9.939453125  C 7.205078125 10.021484375  7.309895833333335 10.0625  7.4375 10.0625  L 8.75 10.0625  L 8.75 14.4375  L 7.4375 14.4375  C 7.309895833333335 14.4375  7.205078125 14.478515625  7.123046875 14.560546875  C 7.041015625 14.642578125  7 14.747395833333332  7 14.874999999999998  L 7 17.0625  C 7 17.190104166666664  7.041015625 17.294921875  7.123046875 17.376953125  C 7.205078125 17.458984375  7.309895833333335 17.5  7.4375 17.5  L 13.5625 17.5  C 13.690104166666666 17.5  13.794921875 17.458984375  13.876953125 17.376953125  Z M 12.126953125 5.126953125  C 12.208984375 5.044921875  12.25 4.940104166666665  12.25 4.812499999999999  L 12.25 2.625  C 12.25 2.497395833333332  12.208984375 2.392578124999999  12.126953125 2.310546874999999  C 12.044921875 2.228515624999999  11.940104166666668 2.187499999999999  11.8125 2.187499999999999  L 9.1875 2.187499999999999  C 9.059895833333334 2.187499999999999  8.955078125 2.228515624999999  8.873046875 2.310546874999999  C 8.791015625 2.392578124999999  8.75 2.497395833333332  8.75 2.625  L 8.75 4.812499999999999  C 8.75 4.940104166666665  8.791015625 5.044921875  8.873046875 5.126953125  C 8.955078125 5.208984375  9.059895833333334 5.25  9.1875 5.25  L 11.8125 5.25  C 11.940104166666668 5.25  12.044921875 5.208984375  12.126953125 5.126953125  Z M 19.591796875 5.2294921875  C 20.530598958333332 6.838216145833331  21 8.59505208333333  21 10.5  C 21 12.404947916666668  20.530598958333332 14.161783854166664  19.591796875 15.7705078125  C 18.652994791666668 17.379231770833332  17.379231770833332 18.652994791666668  15.7705078125 19.591796875  C 14.161783854166668 20.530598958333336  12.404947916666668 21  10.5 21  C 8.595052083333334 21  6.838216145833334 20.530598958333336  5.2294921875 19.591796875  C 3.620768229166667 18.652994791666668  2.3470052083333335 17.379231770833332  1.408203125 15.7705078125  C 0.46940104166666663 14.161783854166664  0 12.404947916666668  0 10.5  C 0 8.59505208333333  0.46940104166666663 6.838216145833331  1.408203125 5.2294921875  C 2.3470052083333335 3.6207682291666665  3.620768229166667 2.3470052083333313  5.2294921875 1.4082031249999991  C 6.838216145833334 0.46940104166666485  8.595052083333334 0  10.5 0  C 12.404947916666668 0  14.161783854166668 0.46940104166666485  15.7705078125 1.4082031249999991  C 17.379231770833332 2.3470052083333313  18.652994791666668 3.6207682291666665  19.591796875 5.2294921875  Z " fill-rule="nonzero" fill="#000000" stroke="none" transform="matrix(1 0 0 1 1067 536 )" />
  </g>
</svg>