<?xml version="1.0" encoding="utf-8"?>
<svg version="1.1" xmlns:xlink="http://www.w3.org/1999/xlink" width="27px" height="19px" xmlns="http://www.w3.org/2000/svg">
  <g transform="matrix(1 0 0 1 -1032 -566 )">
    <path d="M 20.046595982142858 14.884982638888888  C 22.060546875000004 13.549045138888888  23.735491071428573 11.754050925925922  25.071428571428573 9.5  C 23.544642857142858 6.905092592592593  21.631138392857142 4.964409722222222  19.330915178571427 3.677951388888888  C 19.943638392857142 4.821469907407405  20.25 6.0584490740740735  20.25 7.3888888888888875  C 20.25 9.423032407407405  19.589564732142858 11.163049768518517  18.268694196428573 12.608940972222221  C 16.94782366071429 14.054832175925922  15.358258928571429 14.777777777777779  13.5 14.777777777777779  C 11.641741071428573 14.777777777777779  10.052176339285715 14.054832175925922  8.731305803571429 12.608940972222221  C 7.410435267857144 11.163049768518517  6.75 9.423032407407405  6.75 7.3888888888888875  C 6.75 6.0584490740740735  7.056361607142858 4.821469907407405  7.669084821428571 3.677951388888888  C 5.368861607142858 4.964409722222222  3.4553571428571432 6.905092592592593  1.9285714285714284 9.5  C 3.264508928571429 11.754050925925922  4.939453125 13.549045138888888  6.953404017857143 14.884982638888888  C 8.967354910714286 16.22092013888889  11.149553571428571 16.88888888888889  13.5 16.88888888888889  C 15.850446428571427 16.88888888888889  18.03264508928572 16.22092013888889  20.046595982142858 14.884982638888888  Z M 14.012276785714286 3.7274305555555562  C 14.152901785714286 3.5734953703703707  14.223214285714286 3.3865740740740735  14.223214285714286 3.166666666666666  C 14.223214285714286 2.9467592592592586  14.152901785714286 2.759837962962961  14.012276785714286 2.605902777777778  C 13.871651785714288 2.451967592592591  13.700892857142856 2.374999999999998  13.5 2.375  C 12.244419642857144 2.374999999999998  11.167131696428573 2.8670428240740735  10.268136160714286 3.851128472222222  C 9.369140625000002 4.83521412037037  8.919642857142858 6.014467592592593  8.919642857142858 7.3888888888888875  C 8.919642857142858 7.608796296296295  8.98995535714286 7.795717592592593  9.130580357142858 7.949652777777778  C 9.271205357142858 8.103587962962962  9.441964285714286 8.180555555555555  9.642857142857142 8.180555555555555  C 9.843750000000002 8.180555555555555  10.01450892857143 8.103587962962962  10.155133928571429 7.949652777777778  C 10.295758928571429 7.795717592592593  10.366071428571429 7.608796296296295  10.366071428571429 7.3888888888888875  C 10.366071428571429 6.443287037037036  10.672433035714286 5.635127314814815  11.28515625 4.964409722222222  C 11.897879464285715 4.29369212962963  12.636160714285715 3.958333333333332  13.5 3.958333333333334  C 13.700892857142856 3.958333333333332  13.871651785714288 3.881365740740739  14.012276785714286 3.7274305555555562  Z M 26.698660714285715 8.361979166666666  C 26.899553571428573 8.74681712962963  27 9.126157407407405  27 9.5  C 27 9.87384259259259  26.899553571428573 10.25318287037037  26.698660714285715 10.638020833333332  C 25.29241071428572 13.166956018518517  23.401506696428577 15.192853009259261  21.025948660714285 16.715711805555557  C 18.650390625 18.23857060185185  16.141741071428573 19  13.5 19  C 10.85825892857143 19  8.349609375 18.23582175925926  5.974051339285714 16.70746527777778  C 3.598493303571429 15.179108796296296  1.707589285714286 13.155960648148147  0.3013392857142857 10.638020833333332  C 0.10044642857142856 10.25318287037037  0 9.87384259259259  0 9.5  C 0 9.126157407407405  0.10044642857142856 8.74681712962963  0.3013392857142857 8.361979166666666  C 1.707589285714286 5.844039351851851  3.598493303571429 3.8208912037037024  5.974051339285714 2.292534722222222  C 8.349609375 0.7641782407407393  10.85825892857143 0  13.5 0  C 16.141741071428573 0  18.650390625 0.7641782407407393  21.025948660714285 2.292534722222222  C 23.401506696428577 3.8208912037037024  25.29241071428572 5.844039351851851  26.698660714285715 8.361979166666666  Z " fill-rule="nonzero" fill="#000000" stroke="none" transform="matrix(1 0 0 1 1032 566 )" />
  </g>
</svg>