<?xml version="1.0" encoding="utf-8"?>
<svg version="1.1" xmlns:xlink="http://www.w3.org/1999/xlink" width="13px" height="13px" viewBox="804 530.5  13 13" xmlns="http://www.w3.org/2000/svg">
  <path d="M 810.5 530.5  C 814.14 530.5  817 533.36  817 537  C 817 540.64  814.14 543.5  810.5 543.5  C 806.86 543.5  804 540.64  804 537  C 804 533.36  806.86 530.5  810.5 530.5  Z " fill-rule="nonzero" fill="#ffffff" stroke="none" />
  <path d="M 810.5 531  C 813.86 531  816.5 533.64  816.5 537  C 816.5 540.36  813.86 543  810.5 543  C 807.14 543  804.5 540.36  804.5 537  C 804.5 533.64  807.14 531  810.5 531  Z " stroke-width="1" stroke="#797979" fill="none" />
  <path d="M 810.5 540.25  C 808.68 540.25  807.25 538.82  807.25 537  C 807.25 535.18  808.68 533.75  810.5 533.75  C 812.32 533.75  813.75 535.18  813.75 537  C 813.75 538.82  812.32 540.25  810.5 540.25  " fill-rule="nonzero" fill="#797979" stroke="none" />
</svg>