<?xml version="1.0" encoding="utf-8"?>
<svg version="1.1" xmlns:xlink="http://www.w3.org/1999/xlink" width="13px" height="13px" viewBox="985 530.5  13 13" xmlns="http://www.w3.org/2000/svg">
  <path d="M 991.5 530.5  C 995.14 530.5  998 533.36  998 537  C 998 540.64  995.14 543.5  991.5 543.5  C 987.86 543.5  985 540.64  985 537  C 985 533.36  987.86 530.5  991.5 530.5  Z " fill-rule="nonzero" fill="#f0f0f0" stroke="none" />
  <path d="M 991.5 531  C 994.86 531  997.5 533.64  997.5 537  C 997.5 540.36  994.86 543  991.5 543  C 988.14 543  985.5 540.36  985.5 537  C 985.5 533.64  988.14 531  991.5 531  Z " stroke-width="1" stroke="#797979" fill="none" />
  <path d="M 991.5 540.25  C 989.68 540.25  988.25 538.82  988.25 537  C 988.25 535.18  989.68 533.75  991.5 533.75  C 993.32 533.75  994.75 535.18  994.75 537  C 994.75 538.82  993.32 540.25  991.5 540.25  " fill-rule="nonzero" fill="#797979" stroke="none" />
</svg>