<?xml version="1.0" encoding="utf-8"?>
<svg version="1.1" xmlns:xlink="http://www.w3.org/1999/xlink" width="13px" height="13px" viewBox="985 538  13 13" xmlns="http://www.w3.org/2000/svg">
  <path d="M 991.5 538  C 995.14 538  998 540.86  998 544.5  C 998 548.14  995.14 551  991.5 551  C 987.86 551  985 548.14  985 544.5  C 985 540.86  987.86 538  991.5 538  Z " fill-rule="nonzero" fill="#f0f0f0" stroke="none" />
  <path d="M 991.5 538.5  C 994.86 538.5  997.5 541.14  997.5 544.5  C 997.5 547.86  994.86 550.5  991.5 550.5  C 988.14 550.5  985.5 547.86  985.5 544.5  C 985.5 541.14  988.14 538.5  991.5 538.5  Z " stroke-width="1" stroke="#797979" fill="none" />
  <path d="M 991.5 547.75  C 989.68 547.75  988.25 546.32  988.25 544.5  C 988.25 542.68  989.68 541.25  991.5 541.25  C 993.32 541.25  994.75 542.68  994.75 544.5  C 994.75 546.32  993.32 547.75  991.5 547.75  " fill-rule="nonzero" fill="#797979" stroke="none" />
</svg>