<?xml version="1.0" encoding="utf-8"?>
<svg version="1.1" xmlns:xlink="http://www.w3.org/1999/xlink" width="32px" height="20px" xmlns="http://www.w3.org/2000/svg">
  <g transform="matrix(1 0 0 1 -1105 -389 )">
    <path d="M 23.758928571428573 15.668402777777777  C 26.145833333333336 14.262152777777777  28.130952380952383 12.372685185185182  29.714285714285715 10  C 27.904761904761905 7.268518518518519  25.636904761904763 5.225694444444445  22.910714285714285 3.871527777777777  C 23.636904761904763 5.075231481481479  24 6.377314814814814  24 7.777777777777777  C 24 9.91898148148148  23.217261904761905 11.750578703703702  21.651785714285715 13.272569444444445  C 20.086309523809526 14.794560185185182  18.202380952380953 15.555555555555555  16 15.555555555555555  C 13.79761904761905 15.555555555555555  11.913690476190478 14.794560185185182  10.348214285714286 13.272569444444445  C 8.782738095238097 11.750578703703702  8 9.91898148148148  8 7.777777777777777  C 8 6.377314814814814  8.363095238095239 5.075231481481479  9.089285714285714 3.871527777777777  C 6.363095238095239 5.225694444444445  4.095238095238096 7.268518518518519  2.2857142857142856 10  C 3.8690476190476195 12.372685185185182  5.854166666666667 14.262152777777777  8.241071428571429 15.668402777777777  C 10.627976190476192 17.07465277777778  13.214285714285714 17.77777777777778  16 17.77777777777778  C 18.785714285714285 17.77777777777778  21.372023809523814 17.07465277777778  23.758928571428573 15.668402777777777  Z M 16.607142857142858 3.9236111111111116  C 16.773809523809526 3.7615740740740744  16.857142857142858 3.564814814814814  16.857142857142858 3.3333333333333326  C 16.857142857142858 3.101851851851851  16.773809523809526 2.905092592592591  16.607142857142858 2.743055555555556  C 16.440476190476193 2.5810185185185164  16.238095238095237 2.499999999999998  16 2.5  C 14.511904761904763 2.499999999999998  13.23511904761905 3.017939814814814  12.169642857142858 4.053819444444445  C 11.104166666666668 5.089699074074074  10.571428571428571 6.331018518518519  10.571428571428571 7.777777777777777  C 10.571428571428571 8.009259259259258  10.654761904761907 8.206018518518519  10.821428571428571 8.368055555555555  C 10.988095238095239 8.530092592592592  11.190476190476192 8.61111111111111  11.428571428571429 8.61111111111111  C 11.666666666666668 8.61111111111111  11.86904761904762 8.530092592592592  12.035714285714286 8.368055555555555  C 12.202380952380953 8.206018518518519  12.285714285714286 8.009259259259258  12.285714285714286 7.777777777777777  C 12.285714285714286 6.7824074074074066  12.648809523809524 5.931712962962963  13.375 5.225694444444445  C 14.101190476190478 4.519675925925926  14.976190476190478 4.166666666666665  16 4.166666666666668  C 16.238095238095237 4.166666666666665  16.440476190476193 4.085648148148147  16.607142857142858 3.9236111111111116  Z M 31.642857142857142 8.802083333333332  C 31.880952380952383 9.207175925925926  32 9.60648148148148  32 10  C 32 10.393518518518515  31.880952380952383 10.792824074074074  31.642857142857142 11.197916666666664  C 29.97619047619048 13.859953703703702  27.735119047619055 15.992476851851853  24.919642857142858 17.59548611111111  C 22.104166666666668 19.19849537037037  19.130952380952383 20  16 20  C 12.86904761904762 20  9.895833333333334 19.195601851851855  7.080357142857143 17.586805555555557  C 4.2648809523809526 15.978009259259258  2.023809523809524 13.848379629629628  0.35714285714285715 11.197916666666664  C 0.11904761904761904 10.792824074074074  0 10.393518518518515  0 10  C 0 9.60648148148148  0.11904761904761904 9.207175925925926  0.35714285714285715 8.802083333333332  C 2.023809523809524 6.15162037037037  4.2648809523809526 4.02199074074074  7.080357142857143 2.413194444444444  C 9.895833333333334 0.8043981481481466  12.86904761904762 0  16 0  C 19.130952380952383 0  22.104166666666668 0.8043981481481466  24.919642857142858 2.413194444444444  C 27.735119047619055 4.02199074074074  29.97619047619048 6.15162037037037  31.642857142857142 8.802083333333332  Z " fill-rule="nonzero" fill="#e59810" stroke="none" transform="matrix(1 0 0 1 1105 389 )" />
  </g>
</svg>