<?xml version="1.0" encoding="utf-8"?>
<svg version="1.1" xmlns:xlink="http://www.w3.org/1999/xlink" width="300px" height="40px" xmlns="http://www.w3.org/2000/svg">
  <g transform="matrix(1 0 0 1 -438 -570 )">
    <path d="M 439 590  A 19 19 0 0 1 458 571 L 718 571  A 19 19 0 0 1 737 590 A 19 19 0 0 1 718 609 L 458 609  A 19 19 0 0 1 439 590 Z " fill-rule="nonzero" fill="#e59810" stroke="none" />
    <path d="M 438.5 590  A 19.5 19.5 0 0 1 458 570.5 L 718 570.5  A 19.5 19.5 0 0 1 737.5 590 A 19.5 19.5 0 0 1 718 609.5 L 458 609.5  A 19.5 19.5 0 0 1 438.5 590 Z " stroke-width="1" stroke="#797979" fill="none" stroke-opacity="0.1568627450980392" />
  </g>
</svg>