<?xml version="1.0" encoding="utf-8"?>
<svg version="1.1" xmlns:xlink="http://www.w3.org/1999/xlink" width="19px" height="19px" xmlns="http://www.w3.org/2000/svg">
  <g transform="matrix(1 0 0 1 -414 -287 )">
    <path d="M 18.552188552188554 14.2020202020202  C 18.850729517396186 14.500561167227831  19 14.863075196408527  19 15.289562289562289  C 19 15.71604938271605  18.850729517396186 16.078563411896745  18.552188552188554 16.377104377104377  L 16.377104377104377 18.552188552188554  C 16.07856341189675 18.850729517396186  15.716049382716049 19  15.289562289562289 19  C 14.863075196408532 19  14.500561167227836 18.850729517396186  14.202020202020202 18.552188552188554  L 9.5 13.850168350168351  L 4.7979797979797985 18.552188552188554  C 4.499438832772166 18.850729517396186  4.13692480359147 19  3.71043771043771 19  C 3.283950617283951 19  2.9214365881032553 18.850729517396186  2.6228956228956233 18.552188552188554  L 0.4478114478114478 16.377104377104377  C 0.1492704826038161 16.078563411896745  0 15.71604938271605  0 15.289562289562289  C 0 14.863075196408527  0.1492704826038161 14.500561167227831  0.4478114478114478 14.2020202020202  L 5.14983164983165 9.5  L 0.4478114478114478 4.797979797979798  C 0.1492704826038161 4.499438832772165  0 4.13692480359147  0 3.71043771043771  C 0 3.2839506172839505  0.1492704826038161 2.9214365881032522  0.4478114478114478 2.6228956228956237  L 2.6228956228956233 0.4478114478114479  C 2.9214365881032553 0.14927048260381526  3.283950617283951 0  3.71043771043771 0  C 4.13692480359147 0  4.499438832772166 0.14927048260381526  4.7979797979797985 0.4478114478114479  L 9.5 5.1498316498316505  L 14.202020202020202 0.4478114478114479  C 14.500561167227836 0.14927048260381526  14.863075196408532 0  15.289562289562289 0  C 15.716049382716049 0  16.07856341189675 0.14927048260381526  16.377104377104377 0.4478114478114479  L 18.552188552188554 2.6228956228956237  C 18.850729517396186 2.9214365881032522  19 3.2839506172839505  19 3.71043771043771  C 19 4.13692480359147  18.850729517396186 4.499438832772165  18.552188552188554 4.797979797979798  L 13.85016835016835 9.5  L 18.552188552188554 14.2020202020202  Z " fill-rule="nonzero" fill="#e59810" stroke="none" fill-opacity="0.9921568627450981" transform="matrix(1 0 0 1 414 287 )" />
  </g>
</svg>