<?xml version="1.0" encoding="utf-8"?>
<svg version="1.1" xmlns:xlink="http://www.w3.org/1999/xlink" width="27px" height="18px" xmlns="http://www.w3.org/2000/svg">
  <g transform="matrix(1 0 0 1 -998 -403 )">
    <path d="M 20.046595982142858 14.1015625  C 22.060546875000004 12.8359375  23.735491071428573 11.135416666666664  25.071428571428573 9  C 23.544642857142858 6.541666666666667  21.631138392857142 4.703125  19.330915178571427 3.484374999999999  C 19.943638392857142 4.567708333333331  20.25 5.739583333333332  20.25 6.999999999999999  C 20.25 8.927083333333332  19.589564732142858 10.575520833333332  18.268694196428573 11.9453125  C 16.94782366071429 13.315104166666664  15.358258928571429 14  13.5 14  C 11.641741071428573 14  10.052176339285715 13.315104166666664  8.731305803571429 11.9453125  C 7.410435267857144 10.575520833333332  6.75 8.927083333333332  6.75 6.999999999999999  C 6.75 5.739583333333332  7.056361607142858 4.567708333333331  7.669084821428571 3.484374999999999  C 5.368861607142858 4.703125  3.4553571428571432 6.541666666666667  1.9285714285714284 9  C 3.264508928571429 11.135416666666664  4.939453125 12.8359375  6.953404017857143 14.1015625  C 8.967354910714286 15.3671875  11.149553571428571 16  13.5 16  C 15.850446428571427 16  18.03264508928572 15.3671875  20.046595982142858 14.1015625  Z M 14.012276785714286 3.5312500000000004  C 14.152901785714286 3.385416666666667  14.223214285714286 3.2083333333333326  14.223214285714286 2.999999999999999  C 14.223214285714286 2.791666666666666  14.152901785714286 2.6145833333333317  14.012276785714286 2.46875  C 13.871651785714288 2.3229166666666647  13.700892857142856 2.2499999999999982  13.5 2.25  C 12.244419642857144 2.2499999999999982  11.167131696428573 2.7161458333333326  10.268136160714286 3.6484375  C 9.369140625000002 4.580729166666667  8.919642857142858 5.697916666666667  8.919642857142858 6.999999999999999  C 8.919642857142858 7.208333333333332  8.98995535714286 7.385416666666667  9.130580357142858 7.53125  C 9.271205357142858 7.677083333333332  9.441964285714286 7.75  9.642857142857142 7.75  C 9.843750000000002 7.75  10.01450892857143 7.677083333333332  10.155133928571429 7.53125  C 10.295758928571429 7.385416666666667  10.366071428571429 7.208333333333332  10.366071428571429 6.999999999999999  C 10.366071428571429 6.104166666666666  10.672433035714286 5.338541666666666  11.28515625 4.703125  C 11.897879464285715 4.067708333333333  12.636160714285715 3.7499999999999987  13.5 3.750000000000001  C 13.700892857142856 3.7499999999999987  13.871651785714288 3.677083333333332  14.012276785714286 3.5312500000000004  Z M 26.698660714285715 7.921874999999999  C 26.899553571428573 8.286458333333332  27 8.645833333333332  27 9  C 27 9.354166666666664  26.899553571428573 9.713541666666668  26.698660714285715 10.078124999999998  C 25.29241071428572 12.473958333333332  23.401506696428577 14.393229166666668  21.025948660714285 15.8359375  C 18.650390625 17.278645833333332  16.141741071428573 18  13.5 18  C 10.85825892857143 18  8.349609375 17.276041666666668  5.974051339285714 15.828125  C 3.598493303571429 14.380208333333332  1.707589285714286 12.463541666666664  0.3013392857142857 10.078124999999998  C 0.10044642857142856 9.713541666666668  0 9.354166666666664  0 9  C 0 8.645833333333332  0.10044642857142856 8.286458333333332  0.3013392857142857 7.921874999999999  C 1.707589285714286 5.536458333333333  3.598493303571429 3.6197916666666656  5.974051339285714 2.171875  C 8.349609375 0.7239583333333319  10.85825892857143 0  13.5 0  C 16.141741071428573 0  18.650390625 0.7239583333333319  21.025948660714285 2.171875  C 23.401506696428577 3.6197916666666656  25.29241071428572 5.536458333333333  26.698660714285715 7.921874999999999  Z " fill-rule="nonzero" fill="#000000" stroke="none" transform="matrix(1 0 0 1 998 403 )" />
  </g>
</svg>