<?xml version="1.0" encoding="utf-8"?>
<svg version="1.1" xmlns:xlink="http://www.w3.org/1999/xlink" width="200px" height="192px" xmlns="http://www.w3.org/2000/svg">
  <g transform="matrix(1 0 0 1 -802 -3886 )">
    <path d="M 193.26923076923077 68.83931947069944  C 197.75641025641028 69.56521739130436  200 71.42028985507247  200 74.4045368620038  C 200 76.17895400126022  198.95833333333334 78.11468178953999  196.875 80.2117202268431  L 153.24519230769232 123.03969754253308  L 163.58173076923077 183.531190926276  C 163.66185897435898 184.0957781978576  163.7019230769231 184.90233144297414  163.7019230769231 185.9508506616257  C 163.7019230769231 187.64461247637053  163.28125 189.07624448645242  162.43990384615387 190.24574669187143  C 161.59855769230768 191.4152488972905  160.37660256410257 192  158.77403846153845 192  C 157.25160256410257 192  155.64903846153845 191.51606805293005  153.96634615384613 190.54820415879018  L 100 161.9962192816635  L 46.03365384615385 190.54820415879018  C 44.270833333333336 191.51606805293005  42.668269230769226 192  41.22596153846153 192  C 39.543269230769226 192  38.28125 191.4152488972905  37.43990384615385 190.24574669187143  C 36.59855769230769 189.07624448645242  36.17788461538461 187.64461247637053  36.17788461538461 185.9508506616257  C 36.17788461538461 185.46691871455576  36.258012820512825 184.66036546943917  36.418269230769226 183.531190926276  L 46.75480769230769 123.03969754253308  L 3.0048076923076925 80.2117202268431  C 1.001602564102564 78.03402646502835  0 76.09829867674858  0 74.4045368620038  C 0 71.42028985507247  2.243589743589743 69.56521739130436  6.730769230769231 68.83931947069944  L 67.0673076923077 60.00756143667296  L 94.11057692307693 4.960302457466909  C 95.63301282051283 1.6534341524889626  97.59615384615384 0  100 0  C 102.40384615384615 0  104.36698717948718 1.6534341524889626  105.88942307692308 4.960302457466909  L 132.93269230769232 60.00756143667296  L 193.26923076923077 68.83931947069944  Z " fill-rule="nonzero" fill="#ffdf25" stroke="none" transform="matrix(1 0 0 1 802 3886 )" />
  </g>
</svg>