<?xml version="1.0" encoding="utf-8"?>
<svg version="1.1" xmlns:xlink="http://www.w3.org/1999/xlink" width="25px" height="9px" xmlns="http://www.w3.org/2000/svg">
  <g transform="matrix(1 0 0 1 -712 -366 )">
    <path d="M 24.734933035714285 3.8671875  C 24.911644345238095 4.0453125  25 4.25625  25 4.5  C 25 4.7437499999999995  24.911644345238095 4.9546874999999995  24.734933035714285 5.1328125  L 21.163504464285715 8.7328125  C 20.986793154761905 8.910937499999998  20.777529761904763 9  20.535714285714285 9  C 20.29389880952381 9  20.084635416666668 8.910937499999998  19.907924107142858 8.7328125  C 19.73121279761905 8.5546875  19.642857142857142 8.34375  19.642857142857142 8.1  L 19.642857142857142 6.3  L 5.357142857142857 6.3  L 5.357142857142857 8.1  C 5.357142857142857 8.34375  5.268787202380952 8.5546875  5.092075892857143 8.7328125  C 4.915364583333334 8.910937499999998  4.706101190476191 9  4.464285714285714 9  C 4.222470238095238 9  4.013206845238095 8.910937499999998  3.8364955357142856 8.7328125  L 0.2650669642857143 5.1328125  C 0.08835565476190477 4.9546874999999995  0 4.7437499999999995  0 4.5  C 0 4.25625  0.08835565476190477 4.0453125  0.2650669642857143 3.8671875  L 3.8364955357142856 0.2671874999999998  C 4.013206845238095 0.08906249999999893  4.222470238095238 0  4.464285714285714 0  C 4.706101190476191 0  4.915364583333334 0.08906249999999893  5.092075892857143 0.2671874999999998  C 5.268787202380952 0.44531249999999967  5.357142857142857 0.6562499999999997  5.357142857142857 0.8999999999999998  L 5.357142857142857 2.7  L 19.642857142857142 2.7  L 19.642857142857142 0.8999999999999998  C 19.642857142857142 0.6562499999999997  19.73121279761905 0.44531249999999967  19.907924107142858 0.2671874999999998  C 20.084635416666668 0.08906249999999893  20.29389880952381 0  20.535714285714285 0  C 20.777529761904763 0  20.986793154761905 0.08906249999999893  21.163504464285715 0.2671874999999998  L 24.734933035714285 3.8671875  Z " fill-rule="nonzero" fill="#4c4c4c" stroke="none" transform="matrix(1 0 0 1 712 366 )" />
  </g>
</svg>