<?xml version="1.0" encoding="utf-8"?>
<svg version="1.1" xmlns:xlink="http://www.w3.org/1999/xlink" width="25px" height="25px" xmlns="http://www.w3.org/2000/svg">
  <g transform="matrix(1 0 0 1 -712 -135 )">
    <path d="M 15.241887019230768 9.758112980769232  C 15.337039262820513 9.853265224358973  15.384615384615385 9.965945512820513  15.384615384615385 10.096153846153847  L 15.384615384615385 11.057692307692307  C 15.384615384615385 11.187900641025642  15.337039262820513 11.300580929487177  15.241887019230768 11.395733173076922  C 15.146734775641027 11.490885416666666  15.034054487179487 11.538461538461538  14.903846153846153 11.538461538461538  L 11.538461538461538 11.538461538461538  L 11.538461538461538 14.903846153846153  C 11.538461538461538 15.034054487179485  11.490885416666666 15.146734775641024  11.395733173076923 15.24188701923077  C 11.30058092948718 15.337039262820515  11.187900641025642 15.384615384615385  11.057692307692307 15.384615384615385  L 10.096153846153847 15.384615384615385  C 9.965945512820513 15.384615384615385  9.853265224358974 15.337039262820515  9.75811298076923 15.24188701923077  C 9.662960737179487 15.146734775641024  9.615384615384617 15.034054487179485  9.615384615384617 14.903846153846153  L 9.615384615384617 11.538461538461538  L 6.25 11.538461538461538  C 6.119791666666667 11.538461538461538  6.007111378205129 11.490885416666666  5.911959134615385 11.395733173076922  C 5.8168068910256405 11.300580929487177  5.769230769230769 11.187900641025642  5.769230769230769 11.057692307692307  L 5.769230769230769 10.096153846153847  C 5.769230769230769 9.965945512820513  5.8168068910256405 9.853265224358973  5.911959134615385 9.758112980769232  C 6.007111378205129 9.662960737179487  6.119791666666667 9.615384615384615  6.25 9.615384615384615  L 9.615384615384617 9.615384615384615  L 9.615384615384617 6.25  C 9.615384615384617 6.119791666666666  9.662960737179487 6.007111378205127  9.75811298076923 5.911959134615385  C 9.853265224358974 5.816806891025639  9.965945512820513 5.769230769230768  10.096153846153847 5.769230769230768  L 11.057692307692307 5.769230769230768  C 11.187900641025642 5.769230769230768  11.30058092948718 5.816806891025639  11.395733173076923 5.911959134615385  C 11.490885416666666 6.007111378205127  11.538461538461538 6.119791666666666  11.538461538461538 6.25  L 11.538461538461538 9.615384615384615  L 14.903846153846153 9.615384615384615  C 15.034054487179487 9.615384615384615  15.146734775641027 9.662960737179487  15.241887019230768 9.758112980769232  Z M 15.33203125 15.33203125  C 16.649138621794872 14.014923878205126  17.307692307692307 12.42988782051282  17.307692307692307 10.576923076923078  C 17.307692307692307 8.723958333333332  16.649138621794872 7.138922275641024  15.33203125 5.821814903846153  C 14.01492387820513 4.50470753205128  12.429887820512821 3.8461538461538463  10.576923076923077 3.8461538461538463  C 8.723958333333334 3.8461538461538463  7.138922275641027 4.50470753205128  5.821814903846153 5.821814903846153  C 4.504707532051282 7.138922275641024  3.8461538461538463 8.723958333333332  3.8461538461538463 10.576923076923078  C 3.8461538461538463 12.42988782051282  4.504707532051282 14.014923878205126  5.821814903846153 15.33203125  C 7.138922275641027 16.64913862179487  8.723958333333334 17.307692307692307  10.576923076923077 17.307692307692307  C 12.429887820512821 17.307692307692307  14.01492387820513 16.64913862179487  15.33203125 15.33203125  Z M 24.444110576923077 21.724759615384613  C 24.814703525641026 22.095352564102566  25 22.54607371794872  25 23.076923076923077  C 25 23.607772435897434  24.812199519230766 24.060997596153847  24.436598557692307 24.436598557692307  C 24.060997596153847 24.812199519230766  23.607772435897438 25  23.076923076923077 25  C 22.536057692307693 25  22.08533653846154 24.80969551282051  21.724759615384613 24.42908653846154  L 16.571514423076923 19.290865384615387  C 14.778645833333334 20.532852564102566  12.780448717948719 21.153846153846153  10.576923076923077 21.153846153846153  C 9.14463141025641 21.153846153846153  7.774939903846153 20.875901442307693  6.4678485576923075 20.32001201923077  C 5.160757211538462 19.764122596153847  4.033954326923077 19.012920673076923  3.087439903846154 18.06640625  C 2.140925480769231 17.119891826923077  1.389723557692308 15.993088942307693  0.8338341346153846 14.685997596153847  C 0.27794471153846156 13.37890625  0 12.009214743589741  0 10.576923076923078  C 0 9.144631410256407  0.27794471153846156 7.774939903846153  0.8338341346153846 6.4678485576923075  C 1.389723557692308 5.160757211538461  2.140925480769231 4.033954326923078  3.087439903846154 3.0874399038461537  C 4.033954326923077 2.1409254807692317  5.160757211538462 1.3897235576923073  6.4678485576923075 0.8338341346153855  C 7.774939903846153 0.2779447115384609  9.14463141025641 0  10.576923076923077 0  C 12.009214743589745 0  13.37890625 0.2779447115384609  14.685997596153847 0.8338341346153855  C 15.993088942307693 1.3897235576923073  17.119891826923077 2.1409254807692317  18.06640625 3.0874399038461537  C 19.012920673076923 4.033954326923078  19.764122596153847 5.160757211538461  20.320012019230766 6.4678485576923075  C 20.875901442307693 7.774939903846153  21.153846153846153 9.144631410256407  21.153846153846153 10.576923076923078  C 21.153846153846153 12.780448717948717  20.532852564102566 14.778645833333332  19.290865384615387 16.571514423076923  L 24.444110576923077 21.724759615384613  Z " fill-rule="nonzero" fill="#4c4c4c" stroke="none" transform="matrix(1 0 0 1 712 135 )" />
  </g>
</svg>