<svg width="10" height="12" viewBox="0 0 10 12" fill="none" xmlns="http://www.w3.org/2000/svg">
<path fill-rule="evenodd" clip-rule="evenodd" d="M5.00355 0.55563C4.87803 0.481457 4.72209 0.481457 4.59657 0.55563L0.196579 3.15563C0.0747877 3.22759 6.77678e-05 3.35853 6.77678e-05 3.49999C6.77678e-05 3.64146 0.0747877 3.7724 0.196579 3.84436L4.59657 6.44436C4.72209 6.51853 4.87803 6.51853 5.00355 6.44436L9.40358 3.84436C9.52534 3.7724 9.60006 3.64146 9.60006 3.49999C9.60006 3.35853 9.52534 3.22759 9.40358 3.15563L5.00355 0.55563ZM4.80006 5.63538L1.18634 3.49999L4.80006 1.36461L8.41374 3.49999L4.80006 5.63538ZM0.0556997 5.8965C0.168083 5.70631 0.413371 5.64324 0.603555 5.75562L4.80006 8.23535L8.99654 5.75562C9.18678 5.64324 9.43206 5.70631 9.54446 5.8965C9.65678 6.08669 9.59374 6.33197 9.40358 6.44436L5.00355 9.04438C4.87803 9.11854 4.72209 9.11854 4.59657 9.04438L0.196579 6.44436C0.0063878 6.33197 -0.0566921 6.08669 0.0556997 5.8965ZM0.0556917 8.29647C0.168083 8.10631 0.413363 8.04327 0.603555 8.15559L4.80006 10.6353L8.99654 8.15559C9.18678 8.04327 9.43206 8.10631 9.54446 8.29647C9.65678 8.48671 9.59374 8.73199 9.40358 8.84439L5.00355 11.4444C4.87803 11.5185 4.72209 11.5185 4.59656 11.4444L0.196571 8.84439C0.00637978 8.73199 -0.0566921 8.48671 0.0556917 8.29647Z" fill="#7339ED"/>
</svg>
