<?xml version="1.0" encoding="utf-8"?>
<svg version="1.1" xmlns:xlink="http://www.w3.org/1999/xlink" width="83px" height="55px" xmlns="http://www.w3.org/2000/svg">
  <g transform="matrix(1 0 0 1 -766 -9246 )">
    <path d="M 66.77119444444443 24.569416666666665  L 66.76981111111112 24.56895833333333  C 66.54847777777779 18.124791666666663  63.88371666666668 12.000999999999998  59.30949444444445 7.424541666666665  C 54.532383333333335 2.6697916666666646  48.04639444444444 0  41.2842 0  C 34.52200555555555 0  28.039244444444446 2.6697916666666646  23.258905555555557 7.424541666666665  C 20.388027777777786 10.241916666666668  18.25400555555556 13.714250000000002  17.043127777777784 17.543166666666668  C 14.53007222222222 18.5295  12.253566666666662 20.02916666666666  10.359783333333336 21.94454166666667  C 6.663055555555557 25.540625  4.58713333333334 30.469999999999995  4.611111111111111 35.61387499999999  C 4.632783333333332 40.748124999999995  6.693488888888885 45.669250000000005  10.344566666666672 49.29833333333333  C 13.99887222222223 52.930625000000006  18.948900000000005 54.97891666666667  24.115188888888895 55  L 63.741694444444455 55  C 67.85711111111111 55  71.80560555555554 53.35595833333334  74.69538888888889 50.441416666666676  C 75.27500555555555 49.87766666666667  75.79421666666667 49.25616666666667  76.24933333333334 48.58929166666666  C 78.17954444444445 45.99466666666666  79.21473888888887 42.85416666666667  79.20274999999998 39.628875  C 79.19952222222223 36.07816666666667  77.9609777777778 32.63608333333333  75.69415555555554 29.891124999999995  C 73.42687222222224 27.145708333333335  70.27333333333334 25.266083333333338  66.77119444444443 24.569416666666665  Z M 53.71575555555556 28.81633333333333  C 53.29107222222221 29.26  52.70223333333333 29.51345833333333  52.08572777777778 29.51345833333333  C 51.46691666666666 29.51345833333333  50.87807777777777 29.26  50.45293333333334 28.81633333333333  L 44 22.637999999999998  L 44 41.17345833333333  C 44.237155555555546 42.452666666666666  43.1932 43.49033333333334  41.90623888888889 43.49033333333334  C 40.61927777777778 43.49033333333334  39.57532222222222 42.452666666666666  40 41.17345833333333  L 40 22.637999999999998  L 33.35908333333334 28.81633333333333  C 32.9344 29.26  32.34556111111112 29.51345833333333  31.7262888888889 29.51345833333333  C 31.110244444444444 29.51345833333333  30.521405555555553 29.26  30.09626111111112 28.81633333333333  C 29.644372222222216 28.382291666666664  29.389377777777778 27.781874999999996  29.389377777777778 27.15716666666667  C 29.389377777777778 26.529708333333332  29.644372222222216 25.932499999999997  30.09626111111112 25.49525  L 41.905777777777786 13.756874999999999  L 53.715294444444446 25.49525  C 54.16764444444444 25.932499999999997  54.42263888888888 26.529708333333332  54.42263888888888 27.15716666666667  C 54.42263888888888 27.781874999999996  54.16764444444444 28.382291666666664  53.715294444444446 28.81633333333333  Z " fill-rule="nonzero" fill="#2a6ff6" stroke="none" transform="matrix(1 0 0 1 766 9246 )" />
  </g>
</svg>