<?xml version="1.0" encoding="utf-8"?>
<svg version="1.1" xmlns:xlink="http://www.w3.org/1999/xlink" width="16px" height="16px" xmlns="http://www.w3.org/2000/svg">
  <g transform="matrix(1 0 0 1 -232 -30 )">
    <path d="M 240 31  C 243.92 31  247 34.08  247 38  C 247 41.92  243.92 45  240 45  C 236.08 45  233 41.92  233 38  C 233 34.08  236.08 31  240 31  Z " fill-rule="nonzero" fill="#ffffff" stroke="none" />
    <path d="M 240 31  C 243.92 31  247 34.08  247 38  C 247 41.92  243.92 45  240 45  C 236.08 45  233 41.92  233 38  C 233 34.08  236.08 31  240 31  Z " stroke-width="2" stroke="#dedede" fill="none" />
  </g>
</svg>