<?xml version="1.0" encoding="utf-8"?>
<svg version="1.1" xmlns:xlink="http://www.w3.org/1999/xlink" width="16px" height="16px" xmlns="http://www.w3.org/2000/svg">
  <g transform="matrix(1 0 0 1 -80 -30 )">
    <path d="M 88 30  C 92.48 30  96 33.519999999999996  96 38  C 96 42.480000000000004  92.48 46  88 46  C 83.52 46  80 42.480000000000004  80 38  C 80 33.519999999999996  83.52 30  88 30  Z " fill-rule="nonzero" fill="#ffffff" stroke="none" />
    <path d="M 88 30.5  C 92.2 30.5  95.5 33.8  95.5 38  C 95.5 42.2  92.2 45.5  88 45.5  C 83.8 45.5  80.5 42.2  80.5 38  C 80.5 33.8  83.8 30.5  88 30.5  Z " stroke-width="1" stroke="#eb2084" fill="none" />
  </g>
</svg>