<?xml version="1.0" encoding="utf-8"?>
<svg version="1.1" xmlns:xlink="http://www.w3.org/1999/xlink" width="152px" height="46px" xmlns="http://www.w3.org/2000/svg">
  <g transform="matrix(1 0 0 1 -882 -9251 )">
    <path d="M 18.6352 5.018139999999998  C 23.50288484848486 5.018139999999998  27.19326060606059 7.33148  27.663999999999998 11.290699999999998  L 32.37507878787877 11.290699999999998  C 32.15905454545456 5.233880000000002  26.564993939393947 0.7056399999999979  18.792266666666677 0.7056399999999979  C 11.097842424242415 0.7056399999999979  5.0523878787878695 5.175  5.0523878787878695 11.918139999999998  C 5.0523878787878695 17.328199999999995  8.978133333333322 20.543139999999998  15.258957575757588 22.3468  L 20.205406060606048 23.758079999999996  C 24.445284848484857 24.9343  28.21350303030304 26.423779999999994  28.21350303030304 30.422560000000008  C 28.21350303030304 34.81372  23.974084848484857 37.71493999999999  18.39983030303031 37.71493999999999  C 13.610448484848495 37.71493999999999  9.370569696969687 35.59756000000001  8.978133333333322 31.05  L 3.9533818181818177 31.05  C 4.4245818181818155 37.63628  9.763466666666673 42.10564000000001  18.39983030303031 42.10564000000001  C 27.663999999999998 42.10564000000001  32.924581818181814 37.0093  32.924581818181814 30.501220000000004  C 32.924581818181814 22.973780000000005  25.7796606060606 20.543139999999998  21.618545454545455 19.445579999999996  L 17.536193939393947 18.34756  C 14.552387878787869 17.563719999999996  9.763466666666673 15.995579999999999  9.763466666666673 11.683079999999999  C 9.763466666666673 7.840699999999997  13.29631515151514 5.018139999999998  18.6352 5.018139999999998  Z M 45 41.4  L 45 23.287499999999998  C 44.932121212121224 18.0343  48.288557575757565 15.054420000000002  52.86191515151514 15.054420000000002  C 57.21924848484849 15.054420000000002  59.849309090909095 17.798780000000004  60 22.581860000000002  L 60 41.4  L 65 41.4  L 65 22.26814  C 64.48162424242423 14.52542  60.359660606060594 10.898780000000004  54.19629090909092 10.898780000000004  C 49.446521212121226 10.898780000000004  46.73769696969696 12.878619999999998  45.324557575757595 15.995579999999999  L 45 15.995579999999999  L 45 1.2544200000000016  L 41 1.2544200000000016  L 41 41.4  L 45 41.4  Z M 71.54271515151515 32.8532  C 71.54271515151515 38.734300000000005  76.09626666666665 42.10564000000001  81.82804848484851 42.10564000000001  C 87.08816969696969 42.10564000000001  89.83614545454546 39.28308  90.77808484848484 37.32256000000001  L 91.01391515151514 37.32256000000001  L 91.01391515151514 41.4  L 95 41.4  L 95 21.5625  C 95.64623030303028 11.996800000000002  88.34424242424242 10.898780000000004  84.49726060606059 10.898780000000004  C 79.9437090909091 10.898780000000004  74.76189090909091 12.466920000000002  72.40635151515151 17.95564  L 76.80329696969696 19.523780000000002  C 77.82353939393938 17.328199999999995  80.23803636363635 14.976219999999996  84.65432727272727 14.976219999999996  C 88.91355151515154 14.976219999999996  91.01391515151514 17.23022  91.01391515151514 21.091920000000002  L 91.01391515151514 21.248780000000004  C 91.01391515151514 23.48346  88.73713939393942 23.287499999999998  83.24118787878787 23.993140000000004  C 77.64712727272726 24.718559999999997  71.54271515151515 25.953199999999995  71.54271515151515 32.8532  Z M 91.01391515151514 30.501220000000004  C 91.01391515151514 34.264939999999996  88.03056969696969 37.949999999999996  82.53461818181817 37.949999999999996  C 78.84424242424242 37.949999999999996  76.17503030303028 36.3032  76.17503030303028 33.08872  C 76.17503030303028 29.560060000000007  79.39420606060607 28.462500000000002  83.00535757575756 27.991920000000004  C 84.96846060606059 27.756859999999996  90.22858181818182 27.20808  91.01391515151514 26.266920000000002  L 91.01391515151514 30.501220000000004  Z M 104 11.290699999999998  L 104 41.4  L 108 41.4  L 108 22.3468  C 108.73296969696969 18.269360000000002  111.95214545454549 15.289940000000001  116.34863030303032 15.289940000000001  C 117.5853575757576 15.289940000000001  118.86123636363638 15.525  119.17536969696968 15.603199999999998  L 119.17536969696968 10.898780000000004  C 118.64521212121211 10.859679999999997  117.42829090909088 10.820579999999998  116.74152727272731 10.820579999999998  C 113.12991515151514 10.820579999999998  109.98950303030304 12.859300000000003  108.89003636363638 15.838719999999995  L 108.57590303030304 15.838719999999995  L 108.57590303030304 11.290699999999998  L 104 11.290699999999998  Z M 122.33558787878792 26.580640000000006  C 122.33558787878792 35.83308  127.6740121212121 42.02743999999999  136.3891393939394 42.02743999999999  C 142.51289696969692 42.02743999999999  146.98814545454547 38.969359999999995  148.40128484848486 34.421800000000005  L 143.92649696969698 33.16692  C 142.74872727272728 36.3032  140.020096969697 37.8718  136.3891393939394 37.8718  C 130.95214545454547 37.8718  127.20327272727275 34.36291999999999  126.98724848484846 28  L 148.87248484848482 28  L 148.87248484848482 25.953199999999995  C 148.87248484848482 14.740699999999999  142.19922424242426 10.898780000000004  135.91793939393938 10.898780000000004  C 127.75277575757575 10.898780000000004  122.33558787878792 17.328199999999995  122.33558787878792 26.580640000000006  Z M 144.16186666666664 24  L 126.98724848484846 24  C 127.30138181818181 19.229840000000003  130.61820606060604 15.054420000000002  135.91793939393938 15.054420000000002  C 140.9426909090909 15.054420000000002  144.16186666666664 18.81814  144.16186666666664 24  Z " fill-rule="nonzero" fill="#2a6ff6" stroke="none" transform="matrix(1 0 0 1 882 9251 )" />
  </g>
</svg>