<?xml version="1.0" encoding="utf-8"?>
<svg version="1.1" xmlns:xlink="http://www.w3.org/1999/xlink" width="10px" height="8px" xmlns="http://www.w3.org/2000/svg">
  <g transform="matrix(1 0 0 1 -83 -34 )">
    <path d="M 9.819354838709678 1.1043771043771047  C 9.93978494623656 1.2300785634118965  10.000000000000002 1.382716049382716  10 1.5622895622895623  C 10.000000000000002 1.7418630751964077  9.93978494623656 1.8945005611672272  9.819354838709678 2.02020202020202  L 5.148387096774194 6.895622895622895  L 4.270967741935484 7.811447811447811  C 4.150537634408603 7.937149270482604  4.004301075268818 8  3.8322580645161293 8  C 3.660215053763441 8  3.5139784946236565 7.937149270482604  3.393548387096774 7.811447811447811  L 2.516129032258064 6.895622895622895  L 0.1806451612903226 4.4579124579124585  C 0.06021505376344092 4.332210998877665  0 4.179573512906845  0 4  C 0 3.8204264870931537  0.06021505376344092 3.667789001122334  0.1806451612903226 3.5420875420875424  L 1.0580645161290323 2.6262626262626263  C 1.1784946236559142 2.5005611672278336  1.3247311827956993 2.437710437710437  1.4967741935483871 2.4377104377104377  C 1.6688172043010758 2.437710437710437  1.8150537634408603 2.5005611672278336  1.935483870967742 2.6262626262626263  L 3.8322580645161293 4.6127946127946124  L 8.064516129032258 0.18855218855218858  C 8.18494623655914 0.0628507295173959  8.331182795698926 0  8.503225806451614 0  C 8.675268817204302 0  8.821505376344087 0.0628507295173959  8.941935483870967 0.18855218855218858  L 9.819354838709678 1.1043771043771047  Z " fill-rule="nonzero" fill="#eb2084" stroke="none" transform="matrix(1 0 0 1 83 34 )" />
  </g>
</svg>