<?xml version="1.0" encoding="utf-8"?>
<svg version="1.1" xmlns:xlink="http://www.w3.org/1999/xlink" width="297px" height="164px" xmlns="http://www.w3.org/2000/svg">
  <g transform="matrix(1 0 0 1 -519 -914 )">
    <path d="M 19 150  L 297 150  L 297 164  L 0 164  L 0 0  L 19 0  L 19 150  Z M 277.13232421875 14.627604166666673  C 278.00244140625006 15.268229166666673  278.43750000000006 16.08680555555554  278 17.08333333333333  L 278 63.52864583333333  C 278.43750000000006 65.02343749999999  277.49487304687506 66.07335069444444  275.609619140625 66.67838541666667  C 273.72436523437506 67.28342013888889  272.00830078125006 67.01649305555556  270.46142578125 65.87760416666667  L 252.9140625 52.95833333333333  L 161.11669921875 120.54427083333334  C 160.14990234375003 121.25607638888889  159.0380859375 121.61197916666666  157.78125 121.61197916666666  C 156.52441406250003 121.61197916666666  155.41259765625 121.25607638888889  154.44580078125 120.54427083333334  L 120.65625 95.66666666666666  L 60.328125 140.08333333333331  L 32.484375 119.58333333333334  L 117.32080078125 57.12239583333333  C 118.28759765625001 56.41059027777777  119.39941406250003 56.0546875  120.65625 56.0546875  C 121.91308593750001 56.0546875  123.02490234375 56.41059027777777  123.99169921875 57.12239583333333  L 157.78125 82  L 225.0703125 32.45833333333333  L 207.52294921875 19.5390625  C 205.97607421875003 18.400173611111097  205.61352539062503 17.13671875  206.435302734375 15.748697916666673  C 207.257080078125 14.360677083333327  208.68310546875 13.666666666666673  210.71337890625 14  L 273.796875 14  C 275.150390625 13.666666666666673  276.26220703125006 13.986979166666673  277.13232421875 14.627604166666673  Z " fill-rule="nonzero" fill="#000000" stroke="none" transform="matrix(1 0 0 1 519 914 )" />
  </g>
</svg>