<?xml version="1.0" encoding="utf-8"?>
<svg version="1.1" xmlns:xlink="http://www.w3.org/1999/xlink" width="307px" height="139px" xmlns="http://www.w3.org/2000/svg">
  <g transform="matrix(1 0 0 1 -205 -787 )">
    <path d="M 20 127  L 307 127  L 307 139  L 0 139  L 0 0  L 20 0  L 20 127  Z M 286.46337890625 12.39778645833334  C 287.36279296875006 12.94075520833334  287.81250000000006 13.634548611111097  287 14.47916666666666  L 287 53.844401041666664  C 287.81250000000006 55.111328124999986  286.83813476562506 56.001193576388886  284.889404296875 56.513997395833336  C 282.94067382812506 57.02680121527777  281.16682942708337 56.800564236111114  279.56787109375 55.835286458333336  L 261.4296875 44.885416666666664  L 166.54150390625 102.16861979166667  C 165.54215494791669 102.77191840277777  164.39290364583334 103.07356770833333  163.09375 103.07356770833333  C 161.79459635416669 103.07356770833333  160.64534505208334 102.77191840277777  159.64599609375 102.16861979166667  L 124.71875 81.08333333333333  L 62.359375 118.72916666666666  L 33.578125 101.35416666666667  L 121.27099609375 48.414713541666664  C 122.27034505208334 47.81141493055555  123.41959635416669 47.509765625  124.71875 47.509765625  C 126.01790364583334 47.509765625  127.16715494791667 47.81141493055555  128.16650390625 48.414713541666664  L 163.09375 69.5  L 232.6484375 27.51041666666666  L 214.51025390625 16.560546875  C 212.91129557291669 15.59526909722221  212.53653971354169 14.5244140625  213.385986328125 13.34798177083334  C 214.23543294270834 12.17154947916666  215.70947265625 11.58333333333334  217.80810546875 12  L 283.015625 12  C 284.4147135416667 11.58333333333334  285.56396484375006 11.85481770833334  286.46337890625 12.39778645833334  Z " fill-rule="nonzero" fill="#000000" stroke="none" transform="matrix(1 0 0 1 205 787 )" />
  </g>
</svg>