<?xml version="1.0" encoding="utf-8"?>
<svg version="1.1" xmlns:xlink="http://www.w3.org/1999/xlink" width="13px" height="13px" viewBox="421 259  13 13" xmlns="http://www.w3.org/2000/svg">
  <path d="M 427.5 259  C 431.14 259  434 261.86  434 265.5  C 434 269.14  431.14 272  427.5 272  C 423.86 272  421 269.14  421 265.5  C 421 261.86  423.86 259  427.5 259  Z " fill-rule="nonzero" fill="#ffffff" stroke="none" />
  <path d="M 427.5 259.5  C 430.86 259.5  433.5 262.14  433.5 265.5  C 433.5 268.86  430.86 271.5  427.5 271.5  C 424.14 271.5  421.5 268.86  421.5 265.5  C 421.5 262.14  424.14 259.5  427.5 259.5  Z " stroke-width="1" stroke="#797979" fill="none" />
  <path d="M 427.5 268.75  C 425.68 268.75  424.25 267.32  424.25 265.5  C 424.25 263.68  425.68 262.25  427.5 262.25  C 429.32 262.25  430.75 263.68  430.75 265.5  C 430.75 267.32  429.32 268.75  427.5 268.75  " fill-rule="nonzero" fill="#797979" stroke="none" />
</svg>