<?xml version="1.0" encoding="utf-8"?>
<svg version="1.1" xmlns:xlink="http://www.w3.org/1999/xlink" width="13px" height="13px" viewBox="421 367  13 13" xmlns="http://www.w3.org/2000/svg">
  <path d="M 427.5 367  C 431.14 367  434 369.86  434 373.5  C 434 377.14  431.14 380  427.5 380  C 423.86 380  421 377.14  421 373.5  C 421 369.86  423.86 367  427.5 367  Z " fill-rule="nonzero" fill="#ffffff" stroke="none" />
  <path d="M 427.5 367.5  C 430.86 367.5  433.5 370.14  433.5 373.5  C 433.5 376.86  430.86 379.5  427.5 379.5  C 424.14 379.5  421.5 376.86  421.5 373.5  C 421.5 370.14  424.14 367.5  427.5 367.5  Z " stroke-width="1" stroke="#797979" fill="none" />
  <path d="M 427.5 376.75  C 425.68 376.75  424.25 375.32  424.25 373.5  C 424.25 371.68  425.68 370.25  427.5 370.25  C 429.32 370.25  430.75 371.68  430.75 373.5  C 430.75 375.32  429.32 376.75  427.5 376.75  " fill-rule="nonzero" fill="#797979" stroke="none" />
</svg>