<?xml version="1.0" encoding="utf-8"?>
<svg version="1.1" xmlns:xlink="http://www.w3.org/1999/xlink" width="23px" height="25px" xmlns="http://www.w3.org/2000/svg">
  <g transform="matrix(1 0 0 1 -893 -368 )">
    <path d="M 8.216619318181818 20.686848958333336  C 8.314630681818182 20.589192708333336  8.363636363636363 20.46440972222222  8.363636363636363 20.3125  L 8.363636363636363 8.854166666666666  C 8.363636363636363 8.702256944444445  8.314630681818182 8.577473958333334  8.216619318181818 8.479817708333334  C 8.118607954545455 8.382161458333334  7.993371212121214 8.333333333333334  7.84090909090909 8.333333333333334  L 6.795454545454546 8.333333333333334  C 6.642992424242426 8.333333333333334  6.517755681818183 8.382161458333334  6.419744318181818 8.479817708333334  C 6.321732954545454 8.577473958333334  6.2727272727272725 8.702256944444445  6.2727272727272725 8.854166666666666  L 6.2727272727272725 20.3125  C 6.2727272727272725 20.46440972222222  6.321732954545454 20.589192708333336  6.419744318181818 20.686848958333336  C 6.517755681818183 20.784505208333336  6.642992424242426 20.833333333333336  6.795454545454546 20.833333333333336  L 7.84090909090909 20.833333333333336  C 7.993371212121214 20.833333333333336  8.118607954545455 20.784505208333336  8.216619318181818 20.686848958333336  Z M 12.3984375 20.686848958333336  C 12.496448863636363 20.589192708333336  12.545454545454545 20.46440972222222  12.545454545454545 20.3125  L 12.545454545454545 8.854166666666666  C 12.545454545454545 8.702256944444445  12.496448863636363 8.577473958333334  12.3984375 8.479817708333334  C 12.300426136363637 8.382161458333334  12.175189393939394 8.333333333333334  12.022727272727272 8.333333333333334  L 10.977272727272728 8.333333333333334  C 10.824810606060607 8.333333333333334  10.699573863636363 8.382161458333334  10.6015625 8.479817708333334  C 10.503551136363637 8.577473958333334  10.454545454545455 8.702256944444445  10.454545454545455 8.854166666666666  L 10.454545454545455 20.3125  C 10.454545454545455 20.46440972222222  10.503551136363637 20.589192708333336  10.6015625 20.686848958333336  C 10.699573863636363 20.784505208333336  10.824810606060607 20.833333333333336  10.977272727272728 20.833333333333336  L 12.022727272727272 20.833333333333336  C 12.175189393939394 20.833333333333336  12.300426136363637 20.784505208333336  12.3984375 20.686848958333336  Z M 16.58025568181818 20.686848958333336  C 16.678267045454543 20.589192708333336  16.727272727272727 20.46440972222222  16.727272727272727 20.3125  L 16.727272727272727 8.854166666666666  C 16.727272727272727 8.702256944444445  16.678267045454543 8.577473958333334  16.58025568181818 8.479817708333334  C 16.48224431818182 8.382161458333334  16.357007575757574 8.333333333333334  16.204545454545457 8.333333333333334  L 15.159090909090908 8.333333333333334  C 15.006628787878787 8.333333333333334  14.881392045454545 8.382161458333334  14.78338068181818 8.479817708333334  C 14.68536931818182 8.577473958333334  14.636363636363637 8.702256944444445  14.636363636363637 8.854166666666666  L 14.636363636363637 20.3125  C 14.636363636363637 20.46440972222222  14.68536931818182 20.589192708333336  14.78338068181818 20.686848958333336  C 14.881392045454545 20.784505208333336  15.006628787878787 20.833333333333336  15.159090909090908 20.833333333333336  L 16.204545454545457 20.833333333333336  C 16.357007575757574 20.833333333333336  16.48224431818182 20.784505208333336  16.58025568181818 20.686848958333336  Z M 8.641335227272728 2.2623697916666656  L 7.84090909090909 4.166666666666666  L 15.159090909090908 4.166666666666666  L 14.375 2.2623697916666656  C 14.298768939393943 2.1647135416666656  14.206202651515152 2.105034722222221  14.097301136363637 2.0833333333333344  L 8.91903409090909 2.0833333333333344  C 8.810132575757576 2.105034722222221  8.717566287878789 2.1647135416666656  8.641335227272728 2.2623697916666656  Z M 22.852982954545457 4.313151041666666  C 22.95099431818182 4.410807291666666  23 4.535590277777776  23 4.6875  L 23 5.729166666666666  C 23 5.881076388888887  22.95099431818182 6.005859375  22.852982954545457 6.103515625  C 22.75497159090909 6.201171875  22.62973484848485 6.25  22.477272727272727 6.25  L 21 6.25  L 21 21.6796875  C 20.90909090909091 22.580295138888886  20.65317234848485 23.35883246527778  20.141335227272727 24.015299479166664  C 19.62949810606061 24.671766493055554  19.014204545454543 25  18.295454545454543 25  L 4.704545454545455 25  C 3.985795454545455 25  3.3705018939393945 24.6826171875  2.8586647727272725 24.0478515625  C 2.346827651515152 23.4130859375  2.090909090909091 22.645399305555554  2 21.744791666666664  L 2 6.25  L 0.5227272727272727 6.25  C 0.3702651515151515 6.25  0.24502840909090912 6.201171875  0.14701704545454547 6.103515625  C 0.049005681818181816 6.005859375  0 5.881076388888887  0 5.729166666666666  L 0 4.6875  C 0 4.535590277777776  0.049005681818181816 4.410807291666666  0.14701704545454547 4.313151041666666  C 0.24502840909090912 4.215494791666666  0.3702651515151515 4.166666666666666  0.5227272727272727 4.166666666666666  L 5.5703125 4.166666666666666  L 6.71377840909091 1.4485677083333344  C 6.877130681818183 1.0470920138888866  7.171164772727273 0.7052951388888867  7.595880681818182 0.42317708333333426  C 8.020596590909092 0.14105902777777624  8.450757575757576 0  8.886363636363637 0  L 14.113636363636363 0  C 14.549242424242427 0  14.979403409090908 0.14105902777777624  15.40411931818182 0.42317708333333426  C 15.828835227272728 0.7052951388888867  16.12286931818182 1.0470920138888866  16.28622159090909 1.4485677083333344  L 17.4296875 4.166666666666666  L 22.477272727272727 4.166666666666666  C 22.62973484848485 4.166666666666666  22.75497159090909 4.215494791666666  22.852982954545457 4.313151041666666  Z " fill-rule="nonzero" fill="#e59810" stroke="none" transform="matrix(1 0 0 1 893 368 )" />
  </g>
</svg>