<?xml version="1.0" encoding="utf-8"?>
<svg version="1.1" xmlns:xlink="http://www.w3.org/1999/xlink" width="13px" height="13px" viewBox="421 232  13 13" xmlns="http://www.w3.org/2000/svg">
  <path d="M 427.5 232  C 431.14 232  434 234.86  434 238.5  C 434 242.14  431.14 245  427.5 245  C 423.86 245  421 242.14  421 238.5  C 421 234.86  423.86 232  427.5 232  Z " fill-rule="nonzero" fill="#f0f0f0" stroke="none" />
  <path d="M 427.5 232.5  C 430.86 232.5  433.5 235.14  433.5 238.5  C 433.5 241.86  430.86 244.5  427.5 244.5  C 424.14 244.5  421.5 241.86  421.5 238.5  C 421.5 235.14  424.14 232.5  427.5 232.5  Z " stroke-width="1" stroke="#797979" fill="none" />
  <path d="M 427.5 241.75  C 425.68 241.75  424.25 240.32  424.25 238.5  C 424.25 236.68  425.68 235.25  427.5 235.25  C 429.32 235.25  430.75 236.68  430.75 238.5  C 430.75 240.32  429.32 241.75  427.5 241.75  " fill-rule="nonzero" fill="#797979" stroke="none" />
</svg>