<?xml version="1.0" encoding="utf-8"?>
<svg version="1.1" xmlns:xlink="http://www.w3.org/1999/xlink" width="300px" height="40px" xmlns="http://www.w3.org/2000/svg">
  <g transform="matrix(1 0 0 1 -446 -770 )">
    <path d="M 447 790  A 19 19 0 0 1 466 771 L 726 771  A 19 19 0 0 1 745 790 A 19 19 0 0 1 726 809 L 466 809  A 19 19 0 0 1 447 790 Z " fill-rule="nonzero" fill="#e59810" stroke="none" fill-opacity="0.9921568627450981" />
    <path d="M 446.5 790  A 19.5 19.5 0 0 1 466 770.5 L 726 770.5  A 19.5 19.5 0 0 1 745.5 790 A 19.5 19.5 0 0 1 726 809.5 L 466 809.5  A 19.5 19.5 0 0 1 446.5 790 Z " stroke-width="1" stroke="#797979" fill="none" stroke-opacity="0.1568627450980392" />
  </g>
</svg>