<?xml version="1.0" encoding="utf-8"?>
<svg version="1.1" xmlns:xlink="http://www.w3.org/1999/xlink" width="23px" height="20px" xmlns="http://www.w3.org/2000/svg">
  <g transform="matrix(1 0 0 1 -742 -640 )">
    <path d="M 17.4296875 18.162499999999998  C 17.604767628205128 18.004166666666666  17.692307692307693 17.816666666666666  17.692307692307693 17.6  C 17.692307692307693 17.383333333333336  17.604767628205128 17.195833333333333  17.4296875 17.037499999999998  C 17.254607371794872 16.879166666666666  17.047275641025646 16.8  16.807692307692307 16.8  C 16.568108974358974 16.8  16.360777243589745 16.879166666666666  16.185697115384617 17.037499999999998  C 16.01061698717949 17.195833333333333  15.923076923076923 17.383333333333336  15.923076923076923 17.6  C 15.923076923076923 17.816666666666666  16.01061698717949 18.004166666666666  16.185697115384617 18.162499999999998  C 16.360777243589745 18.320833333333336  16.568108974358974 18.400000000000002  16.807692307692307 18.400000000000002  C 17.047275641025646 18.400000000000002  17.254607371794872 18.320833333333336  17.4296875 18.162499999999998  Z M 20.96814903846154 18.162499999999998  C 21.143229166666664 18.004166666666666  21.230769230769234 17.816666666666666  21.230769230769234 17.6  C 21.230769230769234 17.383333333333336  21.143229166666664 17.195833333333333  20.96814903846154 17.037499999999998  C 20.793068910256412 16.879166666666666  20.58573717948718 16.8  20.346153846153847 16.8  C 20.106570512820515 16.8  19.899238782051285 16.879166666666666  19.724158653846153 17.037499999999998  C 19.54907852564103 17.195833333333333  19.46153846153846 17.383333333333336  19.46153846153846 17.6  C 19.46153846153846 17.816666666666666  19.54907852564103 18.004166666666666  19.724158653846153 18.162499999999998  C 19.899238782051285 18.320833333333336  20.106570512820515 18.400000000000002  20.346153846153847 18.400000000000002  C 20.58573717948718 18.400000000000002  20.793068910256412 18.320833333333336  20.96814903846154 18.162499999999998  Z M 22.612980769230766 13.95  C 22.87099358974359 14.18333333333333  23 14.466666666666665  23 14.8  L 23 18.799999999999997  C 23 19.133333333333333  22.87099358974359 19.416666666666668  22.612980769230766 19.650000000000002  C 22.354967948717952 19.883333333333336  22.04166666666667 20  21.673076923076923 20  L 1.326923076923077 20  C 0.9583333333333335 20  0.6450320512820514 19.883333333333336  0.3870192307692307 19.650000000000002  C 0.12900641025641024 19.416666666666668  0 19.133333333333333  0 18.799999999999997  L 0 14.8  C 0 14.466666666666665  0.12900641025641024 14.18333333333333  0.3870192307692307 13.95  C 0.6450320512820514 13.716666666666669  0.9583333333333335 13.599999999999998  1.326923076923077 13.599999999999998  L 7.228966346153847 13.599999999999998  C 7.422475961538462 14.066666666666666  7.7472956730769225 14.45  8.20342548076923 14.75  C 8.659555288461538 15.049999999999999  9.168669871794872 15.2  9.73076923076923 15.2  L 13.269230769230768 15.2  C 13.83133012820513 15.2  14.340444711538462 15.049999999999999  14.796574519230768 14.75  C 15.252704326923077 14.45  15.577524038461538 14.066666666666666  15.771033653846155 13.599999999999998  L 21.673076923076923 13.599999999999998  C 22.04166666666667 13.599999999999998  22.354967948717952 13.716666666666669  22.612980769230766 13.95  Z M 18.314302884615383 5.8375  C 18.599959935897438 6.087499999999999  18.664463141025646 6.375  18.5078125 6.699999999999999  C 18.35116185897436 7.033333333333331  18.079326923076923 7.199999999999999  17.692307692307693 7.199999999999999  L 14.153846153846155 7.199999999999999  L 14.153846153846155 12.8  C 14.153846153846155 13.016666666666666  14.06630608974359 13.204166666666666  13.891225961538462 13.3625  C 13.716145833333336 13.520833333333332  13.508814102564102 13.599999999999998  13.269230769230768 13.599999999999998  L 9.73076923076923 13.599999999999998  C 9.491185897435898 13.599999999999998  9.283854166666668 13.520833333333332  9.108774038461538 13.3625  C 8.93369391025641 13.204166666666666  8.846153846153847 13.016666666666666  8.846153846153847 12.8  L 8.846153846153847 7.199999999999999  L 5.307692307692308 7.199999999999999  C 4.920673076923077 7.199999999999999  4.648838141025641 7.033333333333331  4.4921875 6.699999999999999  C 4.3355368589743595 6.375  4.400040064102565 6.087499999999999  4.685697115384615 5.8375  L 10.878004807692308 0.23749999999999938  C 11.043870192307692 0.07916666666666572  11.251201923076923 0  11.5 0  C 11.748798076923077 0  11.956129807692307 0.07916666666666572  12.121995192307693 0.23749999999999938  L 18.314302884615383 5.8375  Z " fill-rule="nonzero" fill="#000000" stroke="none" transform="matrix(1 0 0 1 742 640 )" />
  </g>
</svg>