<?xml version="1.0" encoding="utf-8"?>
<svg version="1.1" xmlns:xlink="http://www.w3.org/1999/xlink" width="32px" height="32px" xmlns="http://www.w3.org/2000/svg">
  <g transform="matrix(1 0 0 1 -1073 -440 )">
    <path d="M 18.145833333333332 21.854166666666664  C 18.270833333333332 21.979166666666664  18.333333333333332 22.138888888888886  18.333333333333332 22.333333333333336  L 18.333333333333332 25.666666666666668  C 18.333333333333332 25.86111111111111  18.270833333333332 26.020833333333332  18.145833333333332 26.145833333333332  C 18.020833333333332 26.270833333333332  17.86111111111111 26.333333333333332  17.666666666666668 26.333333333333332  L 14.333333333333334 26.333333333333332  C 14.138888888888891 26.333333333333332  13.979166666666666 26.270833333333332  13.854166666666666 26.145833333333332  C 13.729166666666666 26.020833333333332  13.666666666666666 25.86111111111111  13.666666666666666 25.666666666666668  L 13.666666666666666 22.333333333333336  C 13.666666666666666 22.138888888888886  13.729166666666666 21.979166666666664  13.854166666666666 21.854166666666664  C 13.979166666666666 21.729166666666664  14.138888888888891 21.666666666666664  14.333333333333334 21.666666666666664  L 17.666666666666668 21.666666666666664  C 17.86111111111111 21.666666666666664  18.020833333333332 21.729166666666664  18.145833333333332 21.854166666666664  Z M 21.385416666666668 7.53125  C 22.90625 8.774305555555554  23.666666666666668 10.263888888888886  23.666666666666668 12  C 23.666666666666668 12.694444444444443  23.5625 13.319444444444443  23.354166666666668 13.875  C 23.145833333333332 14.430555555555554  22.829861111111114 14.909722222222221  22.40625 15.3125  C 21.98263888888889 15.715277777777775  21.621527777777782 16.020833333333336  21.322916666666668 16.229166666666664  C 21.024305555555557 16.4375  20.611111111111114 16.6875  20.083333333333332 16.979166666666664  C 19.63888888888889 17.229166666666664  19.315972222222225 17.423611111111107  19.114583333333332 17.5625  C 18.913194444444446 17.701388888888886  18.73263888888889 17.868055555555557  18.572916666666668 18.0625  C 18.413194444444446 18.256944444444443  18.333333333333332 18.458333333333336  18.333333333333332 18.666666666666664  L 18.333333333333332 19.333333333333336  C 18.333333333333332 19.52777777777778  18.270833333333332 19.6875  18.145833333333332 19.8125  C 18.020833333333332 19.9375  17.86111111111111 20  17.666666666666668 20  L 14.333333333333334 20  C 14.138888888888891 20  13.979166666666666 19.9375  13.854166666666666 19.8125  C 13.729166666666666 19.6875  13.666666666666666 19.52777777777778  13.666666666666666 19.333333333333336  L 13.666666666666666 17.916666666666664  C 13.666666666666666 17.430555555555557  13.739583333333334 16.982638888888886  13.885416666666666 16.572916666666664  C 14.03125 16.163194444444443  14.197916666666666 15.833333333333332  14.385416666666666 15.583333333333332  C 14.572916666666666 15.333333333333332  14.84375 15.086805555555554  15.197916666666666 14.84375  C 15.552083333333334 14.600694444444443  15.836805555555557 14.42361111111111  16.052083333333332 14.3125  C 16.267361111111114 14.20138888888889  16.57638888888889 14.055555555555554  16.979166666666668 13.875  C 17.71527777777778 13.527777777777775  18.23611111111111 13.229166666666668  18.541666666666668 12.979166666666668  C 18.847222222222225 12.729166666666668  19.000000000000004 12.38888888888889  19 11.958333333333332  C 19.000000000000004 11.374999999999996  18.697916666666668 10.878472222222218  18.09375 10.46875  C 17.489583333333336 10.059027777777775  16.82638888888889 9.854166666666668  16.104166666666668 9.854166666666668  C 15.326388888888891 9.854166666666668  14.666666666666666 10.041666666666668  14.125 10.416666666666668  C 13.722222222222223 10.694444444444443  13.166666666666666 11.270833333333332  12.458333333333334 12.145833333333332  C 12.333333333333334 12.312499999999996  12.159722222222223 12.395833333333332  11.9375 12.395833333333332  C 11.784722222222223 12.395833333333332  11.652777777777779 12.354166666666664  11.541666666666666 12.270833333333332  L 9.291666666666666 10.5625  C 9.152777777777779 10.465277777777775  9.069444444444445 10.326388888888886  9.041666666666666 10.145833333333332  C 9.013888888888891 9.965277777777775  9.048611111111112 9.805555555555554  9.145833333333334 9.666666666666668  C 10.840277777777779 7  13.263888888888891 5.666666666666668  16.416666666666668 5.666666666666668  C 18.208333333333332 5.666666666666668  19.864583333333332 6.288194444444443  21.385416666666668 7.53125  Z M 21.177083333333332 3.729166666666668  C 19.53125 3.020833333333332  17.805555555555557 2.666666666666668  16 2.666666666666668  C 14.194444444444445 2.666666666666668  12.46875 3.020833333333332  10.822916666666666 3.729166666666668  C 9.177083333333334 4.4375  7.760416666666667 5.385416666666668  6.572916666666667 6.572916666666668  C 5.385416666666667 7.760416666666668  4.4375 9.177083333333332  3.7291666666666665 10.822916666666668  C 3.0208333333333335 12.46875  2.6666666666666665 14.194444444444443  2.6666666666666665 16  C 2.6666666666666665 17.805555555555557  3.0208333333333335 19.53125  3.7291666666666665 21.177083333333336  C 4.4375 22.822916666666664  5.385416666666667 24.239583333333332  6.572916666666667 25.427083333333332  C 7.760416666666667 26.614583333333332  9.177083333333334 27.5625  10.822916666666666 28.270833333333332  C 12.46875 28.979166666666668  14.194444444444445 29.333333333333332  16 29.333333333333332  C 17.805555555555557 29.333333333333332  19.53125 28.979166666666668  21.177083333333332 28.270833333333332  C 22.822916666666668 27.5625  24.239583333333332 26.614583333333332  25.427083333333332 25.427083333333332  C 26.614583333333332 24.239583333333332  27.5625 22.822916666666664  28.270833333333332 21.177083333333336  C 28.979166666666668 19.53125  29.333333333333332 17.805555555555557  29.333333333333332 16  C 29.333333333333332 14.194444444444443  28.979166666666668 12.46875  28.270833333333332 10.822916666666668  C 27.5625 9.177083333333332  26.614583333333332 7.760416666666668  25.427083333333332 6.572916666666668  C 24.239583333333332 5.385416666666668  22.822916666666668 4.4375  21.177083333333332 3.729166666666668  Z M 29.854166666666668 7.96875  C 31.284722222222218 10.420138888888886  32 13.097222222222218  32 16  C 32 18.90277777777778  31.284722222222218 21.579861111111107  29.854166666666668 24.03125  C 28.423611111111114 26.48263888888889  26.48263888888889 28.42361111111111  24.03125 29.854166666666668  C 21.579861111111114 31.284722222222225  18.90277777777778 32  16 32  C 13.097222222222223 32  10.42013888888889 31.284722222222225  7.96875 29.854166666666668  C 5.517361111111112 28.42361111111111  3.5763888888888893 26.48263888888889  2.1458333333333335 24.03125  C 0.7152777777777777 21.579861111111107  0 18.90277777777778  0 16  C 0 13.097222222222218  0.7152777777777777 10.420138888888886  2.1458333333333335 7.96875  C 3.5763888888888893 5.517361111111111  5.517361111111112 3.5763888888888857  7.96875 2.145833333333332  C 10.42013888888889 0.715277777777775  13.097222222222223 0  16 0  C 18.90277777777778 0  21.579861111111114 0.715277777777775  24.03125 2.145833333333332  C 26.48263888888889 3.5763888888888857  28.423611111111114 5.517361111111111  29.854166666666668 7.96875  Z " fill-rule="nonzero" fill="#000000" stroke="none" transform="matrix(1 0 0 1 1073 440 )" />
  </g>
</svg>