<?xml version="1.0" encoding="utf-8"?>
<svg version="1.1" xmlns:xlink="http://www.w3.org/1999/xlink" width="33px" height="33px" xmlns="http://www.w3.org/2000/svg">
  <g transform="matrix(1 0 0 1 -1073 -691 )">
    <path d="M 18.712890625 22.537109374999996  C 18.841796875 22.666015624999996  18.90625 22.830729166666664  18.90625 23.031250000000004  L 18.90625 26.46875  C 18.90625 26.669270833333332  18.841796875 26.833984375  18.712890625 26.962890625  C 18.583984375 27.091796875  18.419270833333332 27.15625  18.21875 27.15625  L 14.78125 27.15625  C 14.58072916666667 27.15625  14.416015625 27.091796875  14.287109375 26.962890625  C 14.158203125 26.833984375  14.09375 26.669270833333332  14.09375 26.46875  L 14.09375 23.031250000000004  C 14.09375 22.830729166666664  14.158203125 22.666015624999996  14.287109375 22.537109374999996  C 14.416015625 22.408203124999996  14.58072916666667 22.343749999999996  14.78125 22.343749999999996  L 18.21875 22.343749999999996  C 18.419270833333332 22.343749999999996  18.583984375 22.408203124999996  18.712890625 22.537109374999996  Z M 22.0537109375 7.7666015625  C 23.6220703125 9.048502604166664  24.40625 10.584635416666664  24.40625 12.375  C 24.40625 13.091145833333332  24.298828125 13.735677083333332  24.083984375 14.30859375  C 23.869140625 14.881510416666664  23.543294270833336 15.375651041666666  23.1064453125 15.791015625  C 22.669596354166668 16.206380208333332  22.29720052083334 16.521484375000004  21.9892578125 16.736328124999996  C 21.681315104166668 16.951171875  21.255208333333336 17.208984375  20.7109375 17.509765624999996  C 20.252604166666668 17.767578124999996  19.919596354166668 17.96809895833333  19.7119140625 18.111328125  C 19.504231770833336 18.254557291666664  19.318033854166668 18.426432291666668  19.1533203125 18.626953125  C 18.988606770833336 18.827473958333332  18.90625 19.035156250000004  18.90625 19.249999999999996  L 18.90625 19.937500000000004  C 18.90625 20.138020833333336  18.841796875 20.302734375  18.712890625 20.431640625  C 18.583984375 20.560546875  18.419270833333332 20.625  18.21875 20.625  L 14.78125 20.625  C 14.58072916666667 20.625  14.416015625 20.560546875  14.287109375 20.431640625  C 14.158203125 20.302734375  14.09375 20.138020833333336  14.09375 19.937500000000004  L 14.09375 18.476562499999996  C 14.09375 17.975260416666668  14.1689453125 17.513346354166664  14.3193359375 17.090820312499996  C 14.4697265625 16.668294270833332  14.6416015625 16.328125  14.8349609375 16.0703125  C 15.0283203125 15.812499999999998  15.3076171875 15.558268229166664  15.6728515625 15.3076171875  C 16.0380859375 15.056966145833332  16.331705729166668 14.874348958333332  16.5537109375 14.759765625  C 16.775716145833336 14.645182291666668  17.094401041666668 14.494791666666664  17.509765625 14.30859375  C 18.268880208333336 13.95052083333333  18.805989583333332 13.642578125000002  19.12109375 13.384765625000002  C 19.436197916666668 13.126953125000002  19.593750000000004 12.776041666666668  19.59375 12.332031249999998  C 19.593750000000004 11.730468749999996  19.2822265625 11.218424479166663  18.6591796875 10.7958984375  C 18.036132812500004 10.37337239583333  17.352213541666668 10.162109375000002  16.607421875 10.162109375000002  C 15.80533854166667 10.162109375000002  15.125 10.355468750000002  14.56640625 10.742187500000002  C 14.151041666666668 11.028645833333332  13.578125 11.623046874999998  12.84765625 12.525390624999998  C 12.71875 12.697265624999996  12.539713541666668 12.783203124999998  12.310546875 12.783203124999998  C 12.152994791666668 12.783203124999998  12.016927083333334 12.740234374999998  11.90234375 12.654296874999998  L 9.58203125 10.892578125  C 9.438802083333334 10.79231770833333  9.352864583333334 10.649088541666664  9.32421875 10.462890624999998  C 9.29557291666667 10.27669270833333  9.331380208333334 10.111979166666664  9.431640625 9.968750000000002  C 11.179036458333334 7.21875  13.67838541666667 5.843750000000001  16.9296875 5.843750000000001  C 18.77734375 5.843750000000001  20.4853515625 6.484700520833332  22.0537109375 7.7666015625  Z M 21.8388671875 3.8457031250000013  C 20.1416015625 3.1152343749999987  18.361979166666668 2.7500000000000013  16.5 2.7500000000000013  C 14.638020833333334 2.7500000000000013  12.8583984375 3.1152343749999987  11.1611328125 3.8457031250000013  C 9.4638671875 4.576171875  8.0029296875 5.553710937500001  6.7783203125 6.778320312500001  C 5.5537109375 8.002929687500002  4.576171875 9.463867187499998  3.845703125 11.161132812500002  C 3.115234375 12.8583984375  2.75 14.638020833333332  2.75 16.5  C 2.75 18.361979166666668  3.115234375 20.1416015625  3.845703125 21.838867187500004  C 4.576171875 23.536132812499996  5.5537109375 24.9970703125  6.7783203125 26.2216796875  C 8.0029296875 27.4462890625  9.4638671875 28.423828125  11.1611328125 29.154296875  C 12.8583984375 29.884765625  14.638020833333334 30.25  16.5 30.25  C 18.361979166666668 30.25  20.1416015625 29.884765625  21.8388671875 29.154296875  C 23.5361328125 28.423828125  24.9970703125 27.4462890625  26.2216796875 26.2216796875  C 27.4462890625 24.9970703125  28.423828125 23.536132812499996  29.154296875 21.838867187500004  C 29.884765625 20.1416015625  30.25 18.361979166666668  30.25 16.5  C 30.25 14.638020833333332  29.884765625 12.8583984375  29.154296875 11.161132812500002  C 28.423828125 9.463867187499998  27.4462890625 8.002929687500002  26.2216796875 6.778320312500001  C 24.9970703125 5.553710937500001  23.5361328125 4.576171875  21.8388671875 3.8457031250000013  Z M 30.787109375 8.2177734375  C 32.262369791666664 10.745768229166664  33 13.506510416666663  33 16.5  C 33 19.493489583333336  32.262369791666664 22.25423177083333  30.787109375 24.7822265625  C 29.311848958333336 27.310221354166668  27.310221354166668 29.311848958333332  24.7822265625 30.787109375  C 22.254231770833336 32.26236979166667  19.493489583333336 33  16.5 33  C 13.506510416666668 33  10.745768229166668 32.26236979166667  8.2177734375 30.787109375  C 5.689778645833334 29.311848958333332  3.688151041666667 27.310221354166668  2.212890625 24.7822265625  C 0.7376302083333333 22.25423177083333  0 19.493489583333336  0 16.5  C 0 13.506510416666663  0.7376302083333333 10.745768229166664  2.212890625 8.2177734375  C 3.688151041666667 5.689778645833333  5.689778645833334 3.6881510416666634  8.2177734375 2.2128906249999987  C 10.745768229166668 0.7376302083333305  13.506510416666668 0  16.5 0  C 19.493489583333336 0  22.254231770833336 0.7376302083333305  24.7822265625 2.2128906249999987  C 27.310221354166668 3.6881510416666634  29.311848958333336 5.689778645833333  30.787109375 8.2177734375  Z " fill-rule="nonzero" fill="#000000" stroke="none" transform="matrix(1 0 0 1 1073 691 )" />
  </g>
</svg>