<?xml version="1.0" encoding="utf-8"?>
<svg version="1.1" xmlns:xlink="http://www.w3.org/1999/xlink" width="24px" height="25px" xmlns="http://www.w3.org/2000/svg">
  <g transform="matrix(1 0 0 1 -1010 -303 )">
    <path d="M 23.39673913043478 11.05584082156611  C 23.79891304347826 11.430252460419341  24 11.911638853230636  24 12.5  C 24 13.077663671373557  23.79891304347826 13.564398801882755  23.39673913043478 13.9602053915276  L 12.782608695652176 24.406290115532734  C 12.358695652173914 24.80209670517758  11.86413043478261 25  11.298913043478262 25  C 10.744565217391305 25  10.255434782608695 24.80209670517758  9.831521739130434 24.406290115532734  L 8.608695652173912 23.202824133504492  C 8.195652173913043 22.796320068463842  7.989130434782609 22.30958493795464  7.989130434782609 21.742618741976894  C 7.989130434782609 21.175652545999146  8.195652173913043 20.688917415489943  8.608695652173912 20.282413350449293  L 13.385869565217392 15.5808729139923  L 1.907608695652174 15.5808729139923  C 1.3423913043478262 15.5808729139923  0.8831521739130436 15.380295250320925  0.5298913043478262 14.979139922978177  C 0.17663043478260868 14.57798459563543  0 14.09392383397518  0 13.526957637997434  L 0 11.473042362002566  C 0 10.906076166024818  0.17663043478260868 10.42201540436457  0.5298913043478262 10.020860077021823  C 0.8831521739130436 9.619704749679075  1.3423913043478262 9.419127086007704  1.907608695652174 9.419127086007704  L 13.385869565217392 9.419127086007704  L 8.608695652173912 4.701540436456996  C 8.195652173913043 4.316431322207959  7.989130434782609 3.8350449293966635  7.989130434782609 3.2573812580231065  C 7.989130434782609 2.679717586649552  8.195652173913043 2.1983311938382544  8.608695652173912 1.8132220795892162  L 9.831521739130434 0.6097560975609762  C 10.244565217391305 0.20325203252032353  10.733695652173914 0  11.298913043478262 0  C 11.875 0  12.369565217391305 0.20325203252032353  12.782608695652176 0.6097560975609762  L 23.39673913043478 11.05584082156611  Z " fill-rule="nonzero" fill="#000000" stroke="none" transform="matrix(1 0 0 1 1010 303 )" />
  </g>
</svg>