<?xml version="1.0" encoding="utf-8"?>
<svg version="1.1" xmlns:xlink="http://www.w3.org/1999/xlink" width="42px" height="42px" xmlns="http://www.w3.org/2000/svg">
  <g transform="matrix(1 0 0 1 -245 -288 )">
    <path d="M 38.68088942307693 3.9225852272727266  C 40.893629807692314 6.53764204545454  42 9.684659090909086  42 13.363636363636365  L 42 21  C 42 21.51704545454545  41.84014423076923 21.964488636363637  41.52043269230769 22.342329545454547  C 41.20072115384615 22.720170454545457  40.82211538461539 22.909090909090907  40.38461538461539 22.909090909090907  L 38.769230769230774 22.909090909090907  C 38.331730769230774 22.909090909090907  37.953125 22.720170454545457  37.63341346153846 22.342329545454547  C 37.31370192307693 21.964488636363637  37.15384615384615 21.51704545454545  37.15384615384615 21  L 37.15384615384615 13.363636363636365  C 37.15384615384615 11.255681818181817  36.52283653846154 9.455965909090907  35.26081730769231 7.964488636363634  C 33.99879807692307 6.473011363636366  32.47596153846154 5.727272727272727  30.69230769230769 5.727272727272727  C 28.90865384615385 5.727272727272727  27.38581730769231 6.473011363636366  26.123798076923077 7.964488636363634  C 24.861778846153847 9.455965909090907  24.230769230769234 11.255681818181817  24.23076923076923 13.363636363636365  L 24.23076923076923 19.090909090909093  L 26.653846153846153 19.090909090909093  C 27.326923076923077 19.090909090909093  27.899038461538463 19.369318181818183  28.37019230769231 19.926136363636367  C 28.841346153846153 20.482954545454543  29.076923076923077 21.159090909090903  29 21.954545454545453  L 29 39.13636363636364  C 29.076923076923077 39.93181818181819  28.841346153846153 40.60795454545455  28.37019230769231 41.16477272727273  C 27.899038461538463 41.721590909090914  27.326923076923077 42  26.653846153846153 42  L 2.4230769230769234 42  C 1.7500000000000002 42  1.1778846153846156 41.721590909090914  0.7067307692307692 41.16477272727273  C 0.23557692307692304 40.60795454545455  0 39.93181818181819  0 39.13636363636364  L 0 21.954545454545453  C 0 21.159090909090903  0.23557692307692304 20.482954545454543  0.7067307692307692 19.926136363636367  C 1.1778846153846156 19.369318181818183  1.7500000000000002 19.090909090909093  2.4230769230769234 19  L 19.384615384615387 19  L 19.384615384615387 13.363636363636365  C 19.384615384615387 9.684659090909086  20.490985576923073 6.53764204545454  22.703725961538463 3.9225852272727266  C 24.91646634615385 1.307528409090909  27.579326923076927 0  30.69230769230769 0  C 33.80528846153847 0  36.46814903846154 1.307528409090909  38.68088942307693 3.9225852272727266  Z " fill-rule="nonzero" fill="#e59810" stroke="none" transform="matrix(1 0 0 1 245 288 )" />
  </g>
</svg>