<?xml version="1.0" encoding="utf-8"?>
<svg version="1.1" xmlns:xlink="http://www.w3.org/1999/xlink" width="25px" height="26px" xmlns="http://www.w3.org/2000/svg">
  <g transform="matrix(1 0 0 1 -1009 -383 )">
    <path d="M 4.224422442244224 23.803300330033004  L 5.99009900990099 23.803300330033004  L 7.491749174917492 22.24158415841584  L 3.6138613861386135 18.20858085808581  L 2.112211221122112 19.77029702970297  L 2.112211221122112 21.606600660066007  L 4.224422442244224 21.606600660066007  L 4.224422442244224 23.803300330033004  Z M 14.504950495049505 8.168976897689769  C 14.581958195819583 8.088888888888889  14.620462046204622 7.991639163916391  14.620462046204622 7.877227722772279  C 14.620462046204622 7.625522552255225  14.499449944994499 7.499669966996699  14.257425742574256 7.499669966996699  C 14.14741474147415 7.499669966996699  14.053905390539057 7.539713971397139  13.976897689768977 7.619801980198021  L 5.033003300330033 16.921452145214523  C 4.955995599559956 17.001540154015398  4.917491749174918 17.098789878987894  4.917491749174918 17.213201320132015  C 4.917491749174918 17.46490649064906  5.038503850385039 17.59075907590759  5.2805280528052805 17.59075907590759  C 5.390539053905391 17.59075907590759  5.484048404840484 17.55071507150715  5.561056105610561 17.47062706270627  L 14.504950495049505 8.168976897689769  Z M 0 18.860726072607264  L 13.72937293729373 4.582178217821784  L 20.594059405940595 11.72145214521452  L 6.864686468646865 26  L 0 26  L 0 18.860726072607264  Z M 24.38943894389439 4.667986798679867  C 24.796479647964798 5.114191419141915  25 5.634763476347635  25 6.22970297029703  C 25 6.836083608360836  24.796479647964798 7.3509350935093485  24.38943894389439 7.774257425742576  L 21.65016501650165 10.623102310231022  L 14.785478547854785 3.483828382838285  L 17.524752475247524 0.6521452145214508  C 17.92079207920792 0.217381738173815  18.415841584158414 0  19.00990099009901 0  C 19.592959295929596 0  20.093509350935097 0.217381738173815  20.511551155115512 0.6521452145214508  L 24.38943894389439 4.667986798679867  Z " fill-rule="nonzero" fill="#000000" stroke="none" transform="matrix(1 0 0 1 1009 383 )" />
  </g>
</svg>