<?xml version="1.0" encoding="utf-8"?>
<svg version="1.1" xmlns:xlink="http://www.w3.org/1999/xlink" width="38px" height="38px" xmlns="http://www.w3.org/2000/svg">
  <g transform="matrix(1 0 0 1 -737 -126 )">
    <path d="M 6.421122112211221 34.78943894389439  L 9.104950495049504 34.78943894389439  L 11.387458745874588 32.50693069306931  L 5.493069306930693 26.61254125412541  L 3.2105610561056106 28.895049504950496  L 3.2105610561056106 31.578877887788778  L 6.421122112211221 31.578877887788778  L 6.421122112211221 34.78943894389439  Z M 22.047524752475248 11.939273927392739  C 22.164576457645765 11.822222222222223  22.223102310231024 11.680088008800878  22.223102310231024 11.512871287128714  C 22.223102310231024 11.144994499449945  22.03916391639164 10.96105610561056  21.67128712871287 10.96105610561056  C 21.504070407040707 10.96105610561056  21.361936193619364 11.019581958195818  21.244884488448847 11.136633663366338  L 7.65016501650165 24.731353135313533  C 7.5331133113311335 24.848404840484047  7.474587458745875 24.990539053905387  7.474587458745875 25.157755775577556  C 7.474587458745875 25.52563256325632  7.658525852585259 25.709570957095714  8.026402640264026 25.709570957095714  C 8.193619361936195 25.709570957095714  8.335753575357536 25.65104510451045  8.452805280528052 25.533993399339934  L 22.047524752475248 11.939273927392739  Z M 0 27.565676567656766  L 20.86864686468647 6.6970297029702985  L 31.302970297029702 17.13135313531353  L 10.434323432343234 38  L 0 38  L 0 27.565676567656766  Z M 37.07194719471947 6.822442244224422  C 37.690649064906495 7.474587458745876  38 8.235423542354235  38 9.104950495049504  C 38 9.991199119911991  37.690649064906495 10.74367436743674  37.07194719471947 11.362376237623764  L 32.908250825082504 15.526072607260726  L 22.473927392739274 5.091749174917494  L 26.637623762376236 0.9531353135313512  C 27.23960396039604 0.31771177117711424  27.992079207920792 0  28.895049504950496 0  C 29.781298129812985 0  30.542134213421345 0.31771177117711424  31.177557755775577 0.9531353135313512  L 37.07194719471947 6.822442244224422  Z " fill-rule="nonzero" fill="#e59810" stroke="none" transform="matrix(1 0 0 1 737 126 )" />
  </g>
</svg>