<?xml version="1.0" encoding="utf-8"?>
<svg version="1.1" xmlns:xlink="http://www.w3.org/1999/xlink" width="25px" height="25px" xmlns="http://www.w3.org/2000/svg">
  <g transform="matrix(1 0 0 1 -1065 -563 )">
    <path d="M 14.436848958333334 6.396484375  C 14.534505208333334 6.494140625  14.583333333333334 6.618923611111108  14.583333333333334 6.770833333333334  L 14.583333333333334 14.0625  C 14.583333333333334 14.214409722222221  14.534505208333334 14.339192708333332  14.436848958333334 14.436848958333332  C 14.339192708333334 14.534505208333332  14.214409722222223 14.583333333333332  14.0625 14.583333333333332  L 8.854166666666668 14.583333333333332  C 8.702256944444446 14.583333333333332  8.577473958333332 14.534505208333332  8.479817708333332 14.436848958333332  C 8.382161458333332 14.339192708333332  8.333333333333332 14.214409722222221  8.333333333333332 14.0625  L 8.333333333333332 13.020833333333332  C 8.333333333333332 12.86892361111111  8.382161458333332 12.744140625  8.479817708333332 12.646484375  C 8.577473958333332 12.548828125  8.702256944444446 12.5  8.854166666666668 12.5  L 12.5 12.5  L 12.5 6.770833333333334  C 12.5 6.618923611111108  12.548828125 6.494140625  12.646484375 6.396484375  C 12.744140625000004 6.298828125  12.868923611111112 6.25  13.020833333333334 6.25  L 14.0625 6.25  C 14.214409722222223 6.25  14.339192708333334 6.298828125  14.436848958333334 6.396484375  Z M 20.166015625 16.943359375  C 20.958116319444446 15.587022569444443  21.354166666666664 14.105902777777779  21.354166666666664 12.5  C 21.354166666666664 10.894097222222221  20.958116319444446 9.412977430555555  20.166015625 8.056640625  C 19.373914930555557 6.700303819444442  18.299696180555557 5.626085069444442  16.943359375 4.833984375  C 15.587022569444445 4.041883680555555  14.105902777777779 3.6458333333333344  12.5 3.6458333333333344  C 10.894097222222223 3.6458333333333344  9.412977430555557 4.041883680555555  8.056640625 4.833984375  C 6.700303819444445 5.626085069444442  5.626085069444445 6.700303819444442  4.833984375 8.056640625  C 4.041883680555556 9.412977430555555  3.6458333333333335 10.894097222222221  3.6458333333333335 12.5  C 3.6458333333333335 14.105902777777779  4.041883680555556 15.587022569444443  4.833984375 16.943359375  C 5.626085069444445 18.299696180555554  6.700303819444445 19.373914930555554  8.056640625 20.166015625  C 9.412977430555557 20.958116319444446  10.894097222222223 21.354166666666664  12.5 21.354166666666664  C 14.105902777777779 21.354166666666664  15.587022569444445 20.958116319444446  16.943359375 20.166015625  C 18.299696180555557 19.373914930555554  19.373914930555557 18.299696180555554  20.166015625 16.943359375  Z M 23.323567708333336 6.2255859375  C 24.441189236111107 8.140733506944443  25 10.232204861111107  25 12.5  C 25 14.76779513888889  24.441189236111107 16.859266493055554  23.323567708333336 18.7744140625  C 22.205946180555557 20.689561631944446  20.689561631944446 22.205946180555554  18.7744140625 23.323567708333336  C 16.859266493055557 24.441189236111114  14.76779513888889 25  12.5 25  C 10.232204861111112 25  8.140733506944445 24.441189236111114  6.2255859375 23.323567708333336  C 4.310438368055556 22.205946180555554  2.7940538194444446 20.689561631944446  1.6764322916666667 18.7744140625  C 0.5588107638888888 16.859266493055554  0 14.76779513888889  0 12.5  C 0 10.232204861111107  0.5588107638888888 8.140733506944443  1.6764322916666667 6.2255859375  C 2.7940538194444446 4.310438368055555  4.310438368055556 2.794053819444442  6.2255859375 1.6764322916666656  C 8.140733506944445 0.5588107638888867  10.232204861111112 0  12.5 0  C 14.76779513888889 0  16.859266493055557 0.5588107638888867  18.7744140625 1.6764322916666656  C 20.689561631944446 2.794053819444442  22.205946180555557 4.310438368055555  23.323567708333336 6.2255859375  Z " fill-rule="nonzero" fill="#b02b2b" stroke="none" transform="matrix(1 0 0 1 1065 563 )" />
  </g>
</svg>