<?xml version="1.0" encoding="utf-8"?>
<svg version="1.1" xmlns:xlink="http://www.w3.org/1999/xlink" width="20px" height="20px" xmlns="http://www.w3.org/2000/svg">
  <g transform="matrix(1 0 0 1 -73 -30 )">
    <path d="M 11.549479166666668 5.1171875  C 11.627604166666668 5.1953125  11.666666666666668 5.295138888888886  11.666666666666668 5.416666666666668  L 11.666666666666668 11.25  C 11.666666666666668 11.371527777777777  11.627604166666668 11.471354166666664  11.549479166666668 11.549479166666664  C 11.471354166666668 11.627604166666664  11.371527777777779 11.666666666666664  11.25 11.666666666666664  L 7.083333333333334 11.666666666666664  C 6.961805555555557 11.666666666666664  6.861979166666666 11.627604166666664  6.783854166666666 11.549479166666664  C 6.705729166666666 11.471354166666664  6.666666666666666 11.371527777777777  6.666666666666666 11.25  L 6.666666666666666 10.416666666666664  C 6.666666666666666 10.29513888888889  6.705729166666666 10.1953125  6.783854166666666 10.1171875  C 6.861979166666666 10.0390625  6.961805555555557 10  7.083333333333334 10  L 10 10  L 10 5.416666666666668  C 10 5.295138888888886  10.0390625 5.1953125  10.1171875 5.1171875  C 10.195312500000002 5.0390625  10.295138888888891 5  10.416666666666668 5  L 11.25 5  C 11.371527777777779 5  11.471354166666668 5.0390625  11.549479166666668 5.1171875  Z M 16.1328125 13.5546875  C 16.766493055555557 12.469618055555554  17.083333333333332 11.284722222222223  17.083333333333332 10  C 17.083333333333332 8.715277777777777  16.766493055555557 7.530381944444445  16.1328125 6.4453125  C 15.499131944444446 5.360243055555554  14.639756944444446 4.500868055555554  13.5546875 3.8671875  C 12.469618055555555 3.233506944444444  11.284722222222223 2.9166666666666674  10 2.9166666666666674  C 8.715277777777779 2.9166666666666674  7.5303819444444455 3.233506944444444  6.4453125 3.8671875  C 5.360243055555555 4.500868055555554  4.500868055555555 5.360243055555554  3.8671875 6.4453125  C 3.2335069444444446 7.530381944444445  2.916666666666667 8.715277777777777  2.916666666666667 10  C 2.916666666666667 11.284722222222223  3.2335069444444446 12.469618055555554  3.8671875 13.5546875  C 4.500868055555555 14.639756944444443  5.360243055555555 15.499131944444445  6.4453125 16.1328125  C 7.5303819444444455 16.766493055555557  8.715277777777779 17.083333333333332  10 17.083333333333332  C 11.284722222222223 17.083333333333332  12.469618055555555 16.766493055555557  13.5546875 16.1328125  C 14.639756944444446 15.499131944444445  15.499131944444446 14.639756944444443  16.1328125 13.5546875  Z M 18.658854166666668 4.98046875  C 19.552951388888886 6.512586805555554  20 8.185763888888886  20 10  C 20 11.81423611111111  19.552951388888886 13.487413194444443  18.658854166666668 15.01953125  C 17.764756944444446 16.551649305555557  16.551649305555557 17.764756944444443  15.01953125 18.658854166666668  C 13.487413194444446 19.55295138888889  11.81423611111111 20  10 20  C 8.18576388888889 20  6.512586805555555 19.55295138888889  4.98046875 18.658854166666668  C 3.4483506944444446 17.764756944444443  2.235243055555556 16.551649305555557  1.3411458333333335 15.01953125  C 0.44704861111111105 13.487413194444443  0 11.81423611111111  0 10  C 0 8.185763888888886  0.44704861111111105 6.512586805555554  1.3411458333333335 4.98046875  C 2.235243055555556 3.448350694444444  3.4483506944444446 2.2352430555555536  4.98046875 1.3411458333333326  C 6.512586805555555 0.4470486111111094  8.18576388888889 0  10 0  C 11.81423611111111 0  13.487413194444446 0.4470486111111094  15.01953125 1.3411458333333326  C 16.551649305555557 2.2352430555555536  17.764756944444446 3.448350694444444  18.658854166666668 4.98046875  Z " fill-rule="nonzero" fill="#1c8642" stroke="none" transform="matrix(1 0 0 1 73 30 )" />
  </g>
</svg>