<?xml version="1.0" encoding="utf-8"?>
<svg version="1.1" xmlns:xlink="http://www.w3.org/1999/xlink" width="13px" height="13px" viewBox="421 286  13 13" xmlns="http://www.w3.org/2000/svg">
  <path d="M 427.5 286  C 431.14 286  434 288.86  434 292.5  C 434 296.14  431.14 299  427.5 299  C 423.86 299  421 296.14  421 292.5  C 421 288.86  423.86 286  427.5 286  Z " fill-rule="nonzero" fill="#ffffff" stroke="none" />
  <path d="M 427.5 286.5  C 430.86 286.5  433.5 289.14  433.5 292.5  C 433.5 295.86  430.86 298.5  427.5 298.5  C 424.14 298.5  421.5 295.86  421.5 292.5  C 421.5 289.14  424.14 286.5  427.5 286.5  Z " stroke-width="1" stroke="#797979" fill="none" />
  <path d="M 427.5 295.75  C 425.68 295.75  424.25 294.32  424.25 292.5  C 424.25 290.68  425.68 289.25  427.5 289.25  C 429.32 289.25  430.75 290.68  430.75 292.5  C 430.75 294.32  429.32 295.75  427.5 295.75  " fill-rule="nonzero" fill="#797979" stroke="none" />
</svg>