<?xml version="1.0" encoding="utf-8"?>
<svg version="1.1" xmlns:xlink="http://www.w3.org/1999/xlink" width="13px" height="13px" viewBox="421 313  13 13" xmlns="http://www.w3.org/2000/svg">
  <path d="M 427.5 313  C 431.14 313  434 315.86  434 319.5  C 434 323.14  431.14 326  427.5 326  C 423.86 326  421 323.14  421 319.5  C 421 315.86  423.86 313  427.5 313  Z " fill-rule="nonzero" fill="#ffffff" stroke="none" />
  <path d="M 427.5 313.5  C 430.86 313.5  433.5 316.14  433.5 319.5  C 433.5 322.86  430.86 325.5  427.5 325.5  C 424.14 325.5  421.5 322.86  421.5 319.5  C 421.5 316.14  424.14 313.5  427.5 313.5  Z " stroke-width="1" stroke="#797979" fill="none" />
  <path d="M 427.5 322.75  C 425.68 322.75  424.25 321.32  424.25 319.5  C 424.25 317.68  425.68 316.25  427.5 316.25  C 429.32 316.25  430.75 317.68  430.75 319.5  C 430.75 321.32  429.32 322.75  427.5 322.75  " fill-rule="nonzero" fill="#797979" stroke="none" />
</svg>