<?xml version="1.0" encoding="utf-8"?>
<svg version="1.1" xmlns:xlink="http://www.w3.org/1999/xlink" width="38px" height="44px" xmlns="http://www.w3.org/2000/svg">
  <g transform="matrix(1 0 0 1 -73 -30 )">
    <path d="M 31.666666666666668 12.571428571428571  C 31.666666666666668 14.977678571428571  31.015190972222225 17.203869047619044  29.712239583333332 19.25  C 30.48741319444445 19.479166666666664  31.225477430555557 19.79017857142857  31.926432291666668 20.18303571428571  C 32.62738715277778 20.575892857142858  33.361328125 21.17336309523809  34.12825520833333 21.97544642857143  C 34.89518229166667 22.77752976190476  35.55078125 23.72284226190476  36.09505208333333 24.81138392857143  C 36.63932291666667 25.89992559523809  37.09288194444445 27.307663690476186  37.45572916666667 29.034598214285715  C 37.818576388888886 30.76153273809524  38 32.69717261904762  38 34.84151785714286  C 38 37.3623511904762  37.17534722222222 39.518973214285715  35.52604166666667 41.31138392857143  C 33.876736111111114 43.10379464285714  31.889322916666668 44  29.563802083333332 44  L 8.436197916666668 44  C 6.110677083333333 44  4.123263888888889 43.10379464285714  2.4739583333333335 41.31138392857143  C 0.8246527777777776 39.518973214285715  0 37.3623511904762  0 34.84151785714286  C 0 32.69717261904762  0.1814236111111111 30.76153273809524  0.5442708333333333 29.034598214285715  C 0.9071180555555556 27.307663690476186  1.3606770833333333 25.89992559523809  1.9049479166666667 24.81138392857143  C 2.44921875 23.72284226190476  3.1048177083333335 22.77752976190476  3.8717447916666665 21.97544642857143  C 4.638671875 21.17336309523809  5.372612847222223 20.575892857142858  6.073567708333333 20.18303571428571  C 6.774522569444445 19.79017857142857  7.512586805555556 19.479166666666664  8.287760416666668 19.25  C 6.9848090277777795 17.203869047619044  6.333333333333333 14.977678571428571  6.333333333333333 12.571428571428571  C 6.333333333333333 10.869047619047615  6.667317708333333 9.244419642857142  7.335286458333333 7.6975446428571415  C 8.003255208333332 6.1506696428571415  8.90625 4.8125  10.044270833333334 3.683035714285712  C 11.182291666666666 2.5535714285714293  12.530598958333334 1.6573660714285707  14.089192708333334 0.9944196428571415  C 15.647786458333334 0.3314732142857122  17.284722222222225 0  19 0  C 20.71527777777778 0  22.352213541666668 0.3314732142857122  23.910807291666668 0.9944196428571415  C 25.469401041666668 1.6573660714285707  26.817708333333332 2.5535714285714293  27.955729166666668 3.683035714285712  C 29.09375 4.8125  29.996744791666668 6.1506696428571415  30.664713541666668 7.6975446428571415  C 31.332682291666668 9.244419642857142  31.666666666666668 10.869047619047615  31.666666666666668 12.571428571428571  Z M 25.716796875 5.905133928571429  C 23.861328125000004 4.063616071428571  21.622395833333336 3.1428571428571415  19 3.1428571428571415  C 16.377604166666664 3.1428571428571415  14.138671875 4.063616071428571  12.283203125 5.905133928571429  C 10.427734375 7.746651785714288  9.5 9.96875  9.5 12.571428571428571  C 9.5 15.174107142857142  10.427734375 17.396205357142858  12.283203125 19.23772321428571  C 14.138671875 21.07924107142857  16.377604166666664 22  19 22  C 21.622395833333336 22  23.861328125000004 21.07924107142857  25.716796875 19.23772321428571  C 27.572265625 17.396205357142858  28.5 15.174107142857142  28.5 12.571428571428571  C 28.5 9.96875  27.572265625 7.746651785714288  25.716796875 5.905133928571429  Z M 8.436197916666668 40  L 29.563802083333332 40  C 31.015190972222225 40.85714285714286  32.25629340277778 40.271949404761905  33.287109375 39.1015625  C 34.31792534722222 37.931175595238095  34.83333333333333 36.511160714285715  34.83333333333333 34.84151785714286  C 34.83333333333333 30.929315476190474  34.18598090277778 27.84375  32.89127604166667 25.58482142857143  C 31.596571180555557 23.325892857142858  29.736979166666668 22.1391369047619  27.3125 22.02455357142857  C 24.921006944444443 24.10342261904762  22.15017361111111 25.142857142857142  19 25.142857142857142  C 15.84982638888889 25.142857142857142  13.078993055555559 24.10342261904762  10.6875 22.02455357142857  C 8.263020833333332 22.1391369047619  6.403428819444445 23.325892857142858  5.108723958333333 25.58482142857143  C 3.8140190972222223 27.84375  3.1666666666666665 30.929315476190474  3.1666666666666665 34.84151785714286  C 3.1666666666666665 36.511160714285715  3.682074652777778 37.931175595238095  4.712890625 39.1015625  C 5.743706597222223 40.271949404761905  6.9848090277777795 40.85714285714286  8.436197916666668 40  Z " fill-rule="nonzero" fill="#0c736d" stroke="none" fill-opacity="0.9921568627450981" transform="matrix(1 0 0 1 73 30 )" />
  </g>
</svg>