<?xml version="1.0" encoding="utf-8"?>
<svg version="1.1" xmlns:xlink="http://www.w3.org/1999/xlink" width="42px" height="42px" xmlns="http://www.w3.org/2000/svg">
  <g transform="matrix(1 0 0 1 -69 -291 )">
    <path d="M 34.09517045454545 19.359375  C 34.27414772727273 19.538352272727273  34.36363636363637 19.767045454545453  34.36363636363637 20.045454545454547  L 34.36363636363637 21.954545454545453  C 34.36363636363637 22.232954545454543  34.27414772727273 22.461647727272727  34.09517045454545 22.640625  C 33.91619318181818 22.819602272727273  33.68750000000001 22.909090909090907  33.40909090909091 23  L 23 23  L 23 33.40909090909091  C 22.909090909090907 33.6875  22.819602272727273 33.91619318181818  22.640625 34.09517045454545  C 22.461647727272727 34.27414772727273  22.232954545454547 34.36363636363636  21.954545454545453 34.36363636363636  L 20.045454545454547 34.36363636363636  C 19.767045454545457 34.36363636363636  19.538352272727273 34.27414772727273  19.359375 34.09517045454545  C 19.180397727272727 33.91619318181818  19.09090909090909 33.6875  19 33.40909090909091  L 19 23  L 8.590909090909092 23  C 8.3125 22.909090909090907  8.083806818181818 22.819602272727273  7.904829545454545 22.640625  C 7.725852272727273 22.461647727272727  7.636363636363637 22.232954545454543  7.636363636363637 21.954545454545453  L 7.636363636363637 20.045454545454547  C 7.636363636363637 19.767045454545453  7.725852272727273 19.538352272727273  7.904829545454545 19.359375  C 8.083806818181818 19.180397727272727  8.3125 19.090909090909093  8.590909090909092 19  L 19 19  L 19 8.590909090909093  C 19.09090909090909 8.312499999999993  19.180397727272727 8.08380681818182  19.359375 7.904829545454547  C 19.538352272727273 7.725852272727273  19.767045454545457 7.636363636363634  20.045454545454547 7.636363636363634  L 21.954545454545453 7.636363636363634  C 22.232954545454547 7.636363636363634  22.461647727272727 7.725852272727273  22.640625 7.904829545454547  C 22.819602272727273 8.08380681818182  22.909090909090907 8.312499999999993  23 8.590909090909093  L 23 19  L 33.40909090909091 19  C 33.68750000000001 19.090909090909093  33.91619318181818 19.180397727272727  34.09517045454545 19.359375  Z M 36.77982954545455 36.77982954545455  C 37.71448863636364 35.845170454545446  38.18181818181818 34.72159090909091  38 33.40909090909091  L 38 8.590909090909093  C 38.18181818181818 7.278409090909093  37.71448863636364 6.154829545454543  36.77982954545455 5.220170454545453  C 35.84517045454545 4.28551136363636  34.72159090909091 3.8181818181818192  33.40909090909091 4  L 8.590909090909092 4  C 7.278409090909092 3.8181818181818192  6.154829545454547 4.28551136363636  5.220170454545454 5.220170454545453  C 4.285511363636364 6.154829545454543  3.8181818181818183 7.278409090909093  4 8.590909090909093  L 4 33.40909090909091  C 3.8181818181818183 34.72159090909091  4.285511363636364 35.845170454545446  5.220170454545454 36.77982954545455  C 6.154829545454547 37.71448863636363  7.278409090909092 38.18181818181818  8.590909090909092 38  L 33.40909090909091 38  C 34.72159090909091 38.18181818181818  35.84517045454545 37.71448863636363  36.77982954545455 36.77982954545455  Z M 39.47940340909091 2.5205965909090926  C 41.15980113636364 4.200994318181817  42 6.224431818181813  42 8.590909090909093  L 42 33.40909090909091  C 42 35.77556818181818  41.15980113636364 37.79900568181819  39.47940340909091 39.47940340909091  C 37.79900568181819 41.15980113636363  35.77556818181819 42  33.40909090909091 42  L 8.590909090909092 42  C 6.224431818181819 42  4.200994318181818 41.15980113636363  2.520596590909091 39.47940340909091  C 0.8401988636363636 37.79900568181819  0 35.77556818181818  0 33.40909090909091  L 0 8.590909090909093  C 0 6.224431818181813  0.8401988636363636 4.200994318181817  2.520596590909091 2.5205965909090926  C 4.200994318181818 0.8401988636363595  6.224431818181819 0  8.590909090909092 0  L 33.40909090909091 0  C 35.77556818181819 0  37.79900568181819 0.8401988636363595  39.47940340909091 2.5205965909090926  Z " fill-rule="nonzero" fill="#000000" stroke="none" transform="matrix(1 0 0 1 69 291 )" />
  </g>
</svg>