<?xml version="1.0" encoding="utf-8"?>
<svg version="1.1" xmlns:xlink="http://www.w3.org/1999/xlink" width="13px" height="13px" viewBox="804 538  13 13" xmlns="http://www.w3.org/2000/svg">
  <path d="M 810.5 538  C 814.14 538  817 540.86  817 544.5  C 817 548.14  814.14 551  810.5 551  C 806.86 551  804 548.14  804 544.5  C 804 540.86  806.86 538  810.5 538  Z " fill-rule="nonzero" fill="#ffffff" stroke="none" />
  <path d="M 810.5 538.5  C 813.86 538.5  816.5 541.14  816.5 544.5  C 816.5 547.86  813.86 550.5  810.5 550.5  C 807.14 550.5  804.5 547.86  804.5 544.5  C 804.5 541.14  807.14 538.5  810.5 538.5  Z " stroke-width="1" stroke="#797979" fill="none" />
  <path d="M 810.5 547.75  C 808.68 547.75  807.25 546.32  807.25 544.5  C 807.25 542.68  808.68 541.25  810.5 541.25  C 812.32 541.25  813.75 542.68  813.75 544.5  C 813.75 546.32  812.32 547.75  810.5 547.75  " fill-rule="nonzero" fill="#797979" stroke="none" />
</svg>